<svg xmlns="http://www.w3.org/2000/svg" fill="none" viewBox="-0.5 -0.5 600 600" id="Being-Creative--Streamline-Bangalore.svg" height="600" width="600"><desc>Being Creative Streamline Illustration: https://streamlinehq.com</desc><g id="Work-Being-creative-01"><g id="color 2"><path id="Vector" fill="#add8e6" d="M406.81684 170.25377c-1.596335 -10.38067 -10.38067 -21.102770000000003 -18.59296 -26.293105 -0.8565699999999999 -0.5690500000000001 -1.710145 -1.08419 -2.566715 -1.596335 -18.59296 12.8785 -52.58920500000001 33.708725 -92.51555 40.040155 -3.07886 0.5121450000000001 -6.843575 -0.23061500000000001 -9.18267 1.88086 -7.35572 6.55905 -8.838245 29.488770000000002 -27.03287 30.000915 -2.512805 6.39133 -4.792000000000001 12.549050000000001 -7.244905 17.796290000000003 2.974035 -4.166045 24.708750000000002 -0.21564 30.228535 1.0272850000000002 5.414960000000001 1.1980000000000002 28.772965 7.562375 27.778625 12.549050000000001 4.106145 -8.844235 2.50981 -17.796290000000003 -0.170715 -27.152670000000004 32.56763 -6.271529999999999 77.68431 -29.315060000000003 99.299225 -48.252445Z" stroke-width="1"></path><path id="Vector_2" fill="#add8e6" d="M121.97736499999999 266.47713000000005c-5.7926295 5.5680045 -13.106419500000001 9.2931855 -21.016514 10.7044295 -7.909795 1.4112440000000002 -16.0606875 0.4453565 -23.421499 -2.775766s-13.601193499999999 -8.5528215 -17.931963500000002 -15.320623000000001c-4.33077 -6.7678015 -6.557253 -14.667713000000001 -6.3982185 -22.700902000000003 0.159334 -8.033189 2.6969975 -15.839057500000001 7.2925255 -22.4298545 4.5952285 -6.5910965 11.041966 -11.6712155 18.524674 -14.598229 7.482708000000001 -2.9270135 15.665347500000001 -3.5691415 23.513146 -1.8458185 7.8477985 1.7236225 15.0082445 5.735425 20.5759495 11.5286535 3.7000230000000003 3.8443820000000004 6.6060715000000005 8.3803095 8.551623500000002 13.348715s2.8925710000000002 10.271652000000001 2.787147 15.606346c-0.1057235 5.334694 -1.2620930000000001 10.5960105 -3.4032185000000004 15.483551000000002 -2.140826 4.8872409999999995 -5.2241785 9.304866 -9.073652 12.999497999999999Z" stroke-width="1"></path><path id="Vector_3" fill="#add8e6" d="M558.5345550000001 426.12261c4.106145 -14.20229 17.796290000000003 -9.868525 25.32572 -18.425240000000002 1.3687150000000001 13.06419 -5.819285000000001 26.182290000000002 -18.823575 26.808245000000003l-6.502145 -8.383005Z" stroke-width="1"></path></g><g id="color 1"><path id="Vector_4" fill="#41175e" d="M248.995315 454.23967c-5.190335 3.02495 -14.88515 -3.249575 -25.493440000000003 -15.229575 0.18539049999999999 4.1331 1.357933 8.16437 3.42029 11.75238 7.188 13.459529999999999 6.846570000000001 46.65611 14.831240000000001 44.326 2.225285 -0.6858550000000001 4.848905 -11.98 7.188 -24.92439 1.210579 -6.25356 2.8111070000000002 -12.426255000000001 4.792000000000001 -18.482145000000003 -0.991345 0.506155 -3.7437500000000004 1.8958350000000002 -4.738090000000001 2.55773Z" stroke-width="1"></path><path id="Vector_5" fill="#41175e" d="M282.19189500000005 168.20219500000002c1.0473515 3.0450165 2.589477 5.896556 4.56438 8.439910000000001 5.016625 -0.739765 10.593315 -2.261225 11.63258 -4.561385 0.1817965 -0.387553 0.334841 -0.7879845 0.458235 -1.1980000000000002 -1.3118100000000001 4.16305 -8.898145000000001 1.3687150000000001 -16.655195 -2.6805250000000003Z" stroke-width="1"></path><path id="Vector_6" fill="#41175e" d="M288.92166000000003 137.57233c-10.096145 -10.60829 -43.005205000000004 -2.28219 -65.305975 13.86086 -22.41458 16.19696 -15.96934 31.36963 13.061195 24.412245 -1.710145 0.5121450000000001 -20.3061 6.100815 -32.45382 20.0665 -17.853195000000003 20.53372 -2.3390950000000004 28.40458 17.6705 24.298434999999998 23.897105 -4.90581 44.430825000000006 -24.526055 51.38821000000001 -38.10239 3.195665 -7.9987465 5.3631465 -16.3709695 6.45123 -24.915405000000003 -8.3261 -6.78667 -3.249575 -12.947385000000002 1.3118100000000001 -8.269195 2.452905 2.50981 5.190335 1.3118100000000001 2.16838 -6.8885 3.045915 -1.889845 6.70281 -2.494835 5.70847 -4.46255Z" stroke-width="1"></path><path id="Vector_7" fill="#41175e" d="M365.06654 469.18472c-1.05424 -13.54339 -0.901495 -27.152670000000004 0.45524 -40.669105 -10.820935 3.0549 -22.30077 2.878195 -33.02287 -0.5121450000000001 0.22762 9.47019 -2.7374300000000003 14.259195 -0.28452500000000003 20.135385 1.47354 3.2945 3.56405 6.274525000000001 6.15772 8.78134 10.725095 10.838905 19.907765 42.777585 26.922055000000004 38.2162 1.94076 -1.260895 1.1980000000000002 -12.833575000000002 -0.22762 -25.951674999999998Z" stroke-width="1"></path><path id="Vector_8" fill="#41175e" d="M257.77965 230.258595c-0.5130435000000001 2.6469810000000003 -1.3163025000000002 5.2295695 -2.3960000000000004 7.700145000000001 -9.29648 -4.621285 -7.1281 -7.6432400000000005 2.3960000000000004 -7.700145000000001Z" stroke-width="1"></path><path id="Vector_9" fill="#41175e" d="M307.74523500000004 245.59c-0.23061500000000001 1.08419 -1.7700449999999999 1.7700449999999999 -4.33676 2.0965 0.97038 -1.76705 1.82695 -3.3663800000000004 2.566715 -4.962715 1.3118100000000001 1.10815 1.9377650000000002 2.0785299999999998 1.7700449999999999 2.866215Z" stroke-width="1"></path><path id="Vector_10" fill="#41175e" d="m333.29558000000003 333.094915 -5.99 17.167340000000003c-0.22762 -6.672860000000001 -0.45524 -13.231910000000001 -0.572045 -19.67715l6.5620449999999995 2.50981Z" stroke-width="1"></path><path id="Vector_11" fill="#41175e" d="M128.458545 454.296575c-15.31643 -26.21823 -35.6405 -48.548950000000005 -45.242470000000004 -44.850125 -12.995305000000002 5.00764 4.63626 45.1646 14.747380000000001 62.703320000000005 16.996625 29.431865000000002 37.530345000000004 49.39354 46.096045000000004 44.78723 12.450215 -6.93642 -7.88883 -49.44146 -15.600954999999999 -62.640425Z" stroke-width="1"></path><path id="Vector_12" fill="#41175e" d="M233.768735 392.52769500000005c-16.882815 -29.204245 -37.35963 -48.9383 -45.802535 -44.0265 -8.496815000000002 4.902815 -1.6532400000000003 32.510725 15.17267 61.711975s37.35963 48.881395000000005 45.79954 44.0265c8.49981 -4.902815 1.6562350000000001 -32.510725 -15.169675000000002 -61.711975Z" stroke-width="1"></path></g><g id="outlines"><path id="Vector_13" stroke="#ffffff" stroke-linecap="round" stroke-linejoin="round" d="M253.73041 451.672955c-1.9752025 6.05589 -3.575431 12.228585 -4.792000000000001 18.482145000000003 -2.3121400000000003 12.95038 -4.9567250000000005 24.2595 -7.188 24.92439 -7.969695000000001 2.3960000000000004 -7.6701950000000005 -30.848500000000005 -14.831240000000001 -44.326 -2.06655 -3.5850150000000003 -3.2396915000000006 -7.616285 -3.42029 -11.75238" stroke-width="1"></path><path id="Vector_14" stroke="#ffffff" stroke-linecap="round" stroke-linejoin="round" d="M451.133855 237.04526500000003c-1.1381000000000001 -1.841925 -2.66555 -3.4110055000000004 -4.477525000000001 -4.5964265 -1.8119750000000001 -1.185421 -3.8605549999999997 -1.9578315 -6.004975 -2.2627224999999997s-4.327775 -0.134775 -6.397320000000001 0.4980685c-2.0695449999999997 0.633143 -3.9773600000000005 1.7137390000000001 -5.582680000000001 3.1654155 -0.6349400000000001 -2.166583 -1.764055 -4.157659000000001 -3.291505 -5.818386500000001 -1.530445 -1.6607275000000001 -3.4232850000000004 -2.9464810000000003 -5.531765 -3.757527 -2.105485 -0.8113454999999999 -4.3727 -1.1258205000000001 -6.621945 -0.919465 -2.249245 0.20635550000000003 -4.417625 0.9281505000000001 -6.3434099999999995 2.1093785 -1.6652200000000001 1.0251885 -3.111805 2.3690450000000003 -4.255895000000001 3.9545980000000003 -1.1470850000000001 1.585553 -1.967715 3.3816545000000002 -2.4169650000000003 5.284977 -2.3690450000000003 -1.7856189999999998 -5.2202850000000005 -2.8144015000000002 -8.182340000000002 -2.9509735 -2.962055 -0.136572 -5.897155000000001 0.6250565 -8.418945 2.1848525000000003 -2.52179 1.5600955 -4.513465 3.8458795 -5.71446 6.5575525 -1.200995 2.7113735 -1.5514100000000002 5.7225465 -1.01231 8.6384785 -1.925785 -0.504358 -3.932435 -0.617569 -5.90015 -0.3333435 -1.9707100000000002 0.28452500000000003 -3.8605549999999997 0.9610955000000001 -5.564710000000001 1.9895785000000001 -1.9227900000000002 1.1803295 -3.54608 2.7862485 -4.75007 4.6940634999999995 -1.2039900000000001 1.907815 -1.9527400000000001 4.0663115 -2.189345 6.309266999999999 -0.236605 2.2429555000000003 0.044925 4.51047 0.823625 6.6276355 0.7757050000000001 2.1171655 2.0306100000000002 4.0273765 3.6628850000000006 5.583279 -2.0006600000000003 0.788284 -3.80365 2.004254 -5.283180000000001 3.5625525000000002s-2.602655 3.4214880000000005 -3.285515 5.458687c-0.6858550000000001 2.0374985000000003 -0.91647 4.1998885 -0.6768700000000001 6.3359225 0.236605 2.136034 0.94043 4.194198 2.0575650000000003 6.030133 1.5603950000000002 2.579893 3.8935000000000004 4.606310000000001 6.663875000000001 5.79233 2.7733700000000003 1.18602 5.849235 1.47354 8.79332 0.823625l79.62207500000001 -48.81850000000001c2.003655 -1.2069850000000002 4.4385900000000005 -9.425265 0.27853500000000003 -16.14305Z" stroke-width="1"></path><path id="Vector_15" stroke="#ffffff" stroke-linecap="round" stroke-linejoin="round" d="M390.73368999999997 259.687465c1.88086 1.7727405 3.093835 4.1393895 3.4352650000000002 6.7019115 0.34143 2.562522 -0.20965000000000003 5.1642785 -1.56339 7.3674005000000005 -1.3537400000000002 2.203122 -3.4232850000000004 3.8728344999999997 -5.8612150000000005 4.728506 -2.440925 0.8553720000000001 -5.100485000000001 0.84459 -7.532425000000001 -0.031148" stroke-width="1"></path><path id="Vector_16" stroke="#ffffff" stroke-linecap="round" stroke-linejoin="round" d="M426.20946499999997 249.65122c-0.31747000000000003 2.307348 -1.3357700000000001 4.460453500000001 -2.92312 6.1652075 -1.58735 1.7044545000000002 -3.6628850000000006 2.8772965 -5.939085 3.357994 -2.279195 0.48069750000000006 -4.651235 0.24529050000000002 -6.79266 -0.673276 -2.13843 -0.9188660000000001 -3.9414200000000004 -2.476266 -5.16338 -4.4592555 -0.518135 -0.8562705 -0.919465 -1.7766339999999998 -1.1980000000000002 -2.7374300000000003" stroke-width="1"></path><path id="Vector_17" stroke="#ffffff" stroke-linecap="round" stroke-linejoin="round" d="M428.66237 233.8496c-1.5334400000000001 1.4462855000000001 -2.806315 3.1453490000000004 -3.764715 5.022615" stroke-width="1"></path><path id="Vector_18" stroke="#ffffff" stroke-linecap="round" stroke-linejoin="round" d="M368.15738000000005 273.04217c-1.7700449999999999 0.0889515 -3.5191250000000003 0.41331000000000007 -5.2023150000000005 0.9643900000000001" stroke-width="1"></path><path id="Vector_19" stroke="#ffffff" stroke-linecap="round" stroke-linejoin="round" d="M400.20088499999997 234.70617000000001c-0.374375 1.8586970000000003 -0.43427499999999997 3.766512 -0.182695 5.645575" stroke-width="1"></path><path id="Vector_20" stroke="#ffffff" stroke-linecap="round" stroke-linejoin="round" d="M382.524395 251.780665c-1.710145 -1.2108785 -3.6239500000000002 -2.1063835 -5.651565000000001 -2.644585" stroke-width="1"></path><path id="Vector_21" stroke="#ffffff" stroke-linecap="round" stroke-linejoin="round" d="M471.439955 270.01123c-4.231935 -6.969365 -12.965354999999999 -8.21229 -14.486815 -7.071195000000001l-79.68197500000001 48.881395000000005c-2.279195 1.3687150000000001 -5.40897 9.649890000000001 -1.081195 16.6522 1.12612 1.829945 2.638595 3.393335 4.4296050000000005 4.57636 1.794005 1.18602 3.8246149999999997 1.9617250000000002 5.951065000000001 2.2762000000000002 2.12645 0.31148 4.29483 0.15574 6.35539 -0.458235 2.0575650000000003 -0.6139749999999999 3.9593900000000004 -1.6712100000000003 5.564710000000001 -3.099825 0.913475 3.141755 2.854235 5.88817 5.507805 7.8019750000000005s5.8702000000000005 2.884185 9.140740000000001 2.76139c3.2705400000000004 -0.12579 6.406305 -1.338765 8.90713 -3.45024 2.500825 -2.10848 4.22295 -4.99566 4.896825 -8.197315000000001 2.35407 1.80299 5.19932 2.854235 8.161375000000001 3.01297 2.962055 0.16173 5.903145 -0.5780350000000001 8.439910000000001 -2.12046 2.53377 -1.5424250000000002 4.5434149999999995 -3.8126349999999998 5.765375000000001 -6.517120000000001 1.2189649999999999 -2.704485 1.5933400000000002 -5.71446 1.075205 -8.634585 3.159725 0.7996650000000001 6.496155000000001 0.52712 9.485165 -0.77271 2.98901 -1.3028250000000001 5.46288 -3.561055 7.0292650000000005 -6.418285 1.5663850000000001 -2.860225 2.13843 -6.15772 1.6262850000000002 -9.38034 -0.5121450000000001 -3.2187265000000003 -2.0785299999999998 -6.1771875000000005 -4.453565 -8.40996 2.0216250000000002 -0.7670195 3.85157 -1.9698114999999998 5.358055 -3.5233179999999997 1.50349 -1.553207 2.650575 -3.419092 3.3544000000000005 -5.464677 0.7008300000000001 -2.0458845 0.94642 -4.221153 0.7128099999999999 -6.3718625 -0.23061500000000001 -2.1507095 -0.93444 -4.223848500000001 -2.0575650000000003 -6.0723625Z" stroke-width="1"></path><path id="Vector_22" stroke="#ffffff" stroke-linecap="round" stroke-linejoin="round" d="M423.813465 313.64538500000003c-0.5870200000000001 -1.9856850000000001 -1.70715 -3.770705 -3.2405900000000005 -5.160385000000001 -1.5334400000000001 -1.38968 -3.417295 -2.3301100000000003 -5.450900000000001 -2.71946s-4.1331 -0.20965000000000003 -6.070865 0.5151399999999999c-1.9377650000000002 0.727785 -3.6389250000000004 1.9707100000000002 -4.914795 3.59999 -1.248915 1.6083150000000002 -2.0545700000000005 3.51613 -2.3390950000000004 5.531765" stroke-width="1"></path><path id="Vector_23" stroke="#ffffff" stroke-linecap="round" stroke-linejoin="round" d="M448.85466 286.6215c-2.195335 -0.7580345 -4.573365 -0.8206300000000001 -6.807635 -0.179101 -2.231275 0.6418285 -4.213965 1.9560345000000001 -5.67253 3.7644154999999997 -1.4585650000000001 1.808381 -2.327115 4.022285 -2.47986 6.340714500000001 -0.15574 2.3184295 0.40732000000000007 4.629671 1.6113100000000002 6.615356 0.5151399999999999 0.86256 1.15008 1.6502450000000002 1.883855 2.3390950000000004" stroke-width="1"></path><path id="Vector_24" stroke="#ffffff" stroke-linecap="round" stroke-linejoin="round" d="M464.08124000000004 291.458425c-2.0096450000000003 0.74276 -4.1331 1.1288155 -6.274525000000001 1.141095" stroke-width="1"></path><path id="Vector_25" stroke="#ffffff" stroke-linecap="round" stroke-linejoin="round" d="M401.64747 327.653c-0.853575 1.52146 -1.9168 2.914135 -3.15673 4.142085" stroke-width="1"></path><path id="Vector_26" stroke="#ffffff" stroke-linecap="round" stroke-linejoin="round" d="M450.39409 316.43972c-1.835935 -0.52712 -3.5730350000000004 -1.350745 -5.142415000000001 -2.4379299999999997" stroke-width="1"></path><path id="Vector_27" stroke="#ffffff" stroke-linecap="round" stroke-linejoin="round" d="M427.11395500000003 324.589115c0.272545 2.033605 0.21564 4.094165 -0.16173 6.1098" stroke-width="1"></path><path id="Vector_28" stroke="#ffffff" stroke-linecap="round" stroke-linejoin="round" d="m377.271165 311.82143 -8.496815000000002 5.130435" stroke-width="1"></path><path id="Vector_29" stroke="#ffffff" stroke-linecap="round" stroke-linejoin="round" d="m371.227255 302.00981 -8.386 5.076525" stroke-width="1"></path><path id="Vector_30" stroke="#ffffff" stroke-linecap="round" stroke-linejoin="round" d="M327.02405 342.33449 236.44925999999998 397.3167" stroke-width="1"></path><path id="Vector_31" stroke="#ffffff" stroke-linecap="round" stroke-linejoin="round" d="m325.19710000000003 329.956155 -94.51022 57.43811" stroke-width="1"></path><path id="Vector_32" stroke="#ffffff" stroke-linecap="round" stroke-linejoin="round" d="M405.61884 171.281055c20.285135 -1.8763675 40.681085 2.148014 58.73195 11.588853 18.050865 9.4405395 32.99292 23.8956075 43.023175 41.626307000000004 30.29742 52.06807500000001 14.426915000000001 119.31481000000001 -35.421865000000004 150.17828500000002 -31.180945 19.30577 -39.8335 9.09881 -100.38341500000001 26.356" stroke-width="1"></path><path id="Vector_33" stroke="#ffffff" stroke-linecap="round" stroke-linejoin="round" d="M249.59132 453.79641000000004c27.69776 -14.444885000000001 52.451435000000004 -27.071805 77.944875 -37.485420000000005" stroke-width="1"></path><path id="Vector_34" stroke="#ffffff" stroke-linecap="round" stroke-linejoin="round" d="M252.76003000000003 299.898335c-19.218915 15.400290000000002 -40.267775 30.402245 -64.850735 48.539965" stroke-width="1"></path><path id="Vector_35" stroke="#ffffff" stroke-linecap="round" stroke-linejoin="round" d="M335.35015 210.35083c-11.953045000000001 17.971797000000002 -25.364655 34.9303855 -40.09706 50.70535" stroke-width="1"></path><path id="Vector_36" stroke="#ffffff" stroke-linecap="round" stroke-linejoin="round" d="M385.60026 142.421235c9.63791 5.417955 19.44953 16.541385 21.21658 27.832535 -21.617910000000002 18.937385000000003 -66.731595 41.980915 -99.299225 48.252445 2.6805250000000003 9.356380000000001 4.27686 18.31143 0.170715 27.152670000000004 0.9943400000000001 -4.980685 -22.022235 -11.264195 -27.778625 -12.549050000000001 -5.61862 -1.254905 -27.278460000000003 -5.154395 -30.228535 -1.0272850000000002 2.452905 -5.247240000000001 4.735095 -11.407955000000001 7.244905 -17.796290000000003 18.194625000000002 -0.5121450000000001 19.647199999999998 -23.47481 27.03287 -30.000915 2.327115 -2.0545700000000005 5.99 -1.36572 9.18267 -1.88086 39.902385 -6.490164999999999 73.92259 -27.149675 92.51555 -40.040155l-0.056905 0.056905Z" stroke-width="1"></path><path id="Vector_37" stroke="#ffffff" stroke-linecap="round" stroke-linejoin="round" d="M252.94572000000002 242.2356c16.3290395 -0.2596665 32.4103925 4.011503 46.45844 12.339400000000001" stroke-width="1"></path><path id="Vector_38" stroke="#ffffff" stroke-linecap="round" stroke-linejoin="round" d="M298.58353 171.49070500000002c-1.859895 3.2525700000000004 -9.047895 0.54509 -16.391635 -3.2945 1.046453 3.0453159999999997 2.588878 5.897155000000001 4.56438 8.439910000000001" stroke-width="1"></path><path id="Vector_39" stroke="#ffffff" stroke-linecap="round" stroke-linejoin="round" d="M291.027145 182.61713c-3.974365 -0.9763700000000001 -2.91114 -2.91114 -4.27087 -5.9750250000000005 10.722100000000001 -1.5843550000000002 12.579 -3.55806 12.138735 -8.931090000000001 -0.643925 -7.80497 -5.226275 -24.81058 -9.97335 -30.138685000000002" stroke-width="1"></path><path id="Vector_40" stroke="#ffffff" stroke-linecap="round" stroke-linejoin="round" d="M307.51761500000003 218.506215c-3.309475 0.62895 -6.502145 1.08419 -9.47019 1.3717100000000002" stroke-width="1"></path><path id="Vector_41" stroke="#ffffff" stroke-linecap="round" stroke-linejoin="round" d="M283.21918 142.02290000000002c3.0219549999999997 8.21229 0.29950000000000004 9.41029 -2.16838 6.8885 -4.56438 -4.675195 -9.63791 1.4975 -1.3118100000000001 8.269195 -1.085388 8.5474305 -3.2510725 16.922349 -6.445240000000001 24.92439 -6.957385 13.576335000000002 -27.491105 33.19658 -51.38821000000001 38.10239 -20.021575 4.106145 -35.535675000000005 -3.764715 -17.6705 -24.298434999999998 12.147720000000001 -13.974670000000001 30.743675000000003 -19.56334 32.45382 -20.0665 -29.030535 6.957385 -35.469785 -8.2063 -13.061195 -24.412245 22.30676 -16.134065 55.209830000000004 -24.46915 65.305975 -13.86086 0.9643900000000001 1.9527400000000001 -2.7823550000000004 2.6415900000000003 -5.71446 4.453565Z" stroke-width="1"></path><path id="Vector_42" stroke="#ffffff" stroke-linecap="round" stroke-linejoin="round" d="M256.926075 214.28626000000003c3.0123710000000004 -8.150593 6.89449 -15.952568 11.57867 -23.27115 1.8518085 -2.7706745 3.4364630000000003 -5.7111655 4.7321 -8.78134" stroke-width="1"></path><path id="Vector_43" stroke="#ffffff" stroke-linecap="round" stroke-linejoin="round" d="M295.339945 260.96633c3.9554965 -5.8243765000000005 7.517449999999999 -11.905724000000001 10.665195 -18.20361" stroke-width="1"></path><path id="Vector_44" stroke="#ffffff" stroke-linecap="round" stroke-linejoin="round" d="M419.25208000000003 139.6269c8.610625 -2.0545700000000005 15.69979 1.82695 15.112770000000001 5.13343 -0.13178 0.6627935 -0.40432500000000005 1.2899465 -0.7966700000000001 1.840128 -0.39534 0.550481 -0.8985 1.011112 -1.482525 1.3525420000000001" stroke-width="1"></path><path id="Vector_45" stroke="#ffffff" stroke-linecap="round" stroke-linejoin="round" d="M418.45241500000003 134.37966c9.06886 -2.16838 18.080815 2.3960000000000004 14.20229 7.188" stroke-width="1"></path><path id="Vector_46" stroke="#ffffff" stroke-linecap="round" stroke-linejoin="round" d="M405.84646000000004 166.147625c5.36704 -6.125973 12.252545000000001 -10.7289885 19.96467 -13.345720000000002" stroke-width="1"></path><path id="Vector_47" stroke="#ffffff" stroke-linecap="round" stroke-linejoin="round" d="M418.90765500000003 145.78462000000002c8.386 -1.710145 13.90878 1.596335 13.576335000000002 4.848905 -0.41031500000000004 3.992335 -8.386 10.03924 -15.115765 6.160715" stroke-width="1"></path><path id="Vector_48" stroke="#ffffff" stroke-linecap="round" stroke-linejoin="round" d="M411.83646000000005 131.35470999999998c0.11381 -0.11381 3.594 -4.95972 2.0545700000000005 -6.502145 -1.3118100000000001 -1.3118100000000001 -20.249195 14.259195 -25.553340000000002 19.22191" stroke-width="1"></path><path id="Vector_49" stroke="#ffffff" stroke-linecap="round" stroke-linejoin="round" d="M422.72927500000003 133.807615c15.05886 -7.241910000000001 19.10211 -15.978325 16.25686 -14.376 -9.49415 4.753065 -19.24587 8.980208000000001 -29.204245 12.66286 -7.70913 2.9330035 -14.95104 6.968167 -21.501105000000003 11.98" stroke-width="1"></path><path id="Vector_50" stroke="#ffffff" stroke-linecap="round" stroke-linejoin="round" d="M365.52178 428.515615c-1.3447550000000001 13.516435 -1.4975 27.125715000000003 -0.45524 40.669105 1.452575 13.115105 2.165385 24.693775 0.22762 25.951674999999998 -7.02028 4.555395 -16.217925 -27.356330000000003 -26.922055000000004 -38.2162 -2.59966 -2.50382 -4.69017 -5.486840000000001 -6.15772 -8.78134 -2.458895 -5.885175 0.52113 -10.683165 0.28153 -20.183305" stroke-width="1"></path><path id="Vector_51" stroke="#ffffff" stroke-linecap="round" stroke-linejoin="round" d="M233.768735 392.52769500000005c16.846875 29.189270000000004 23.675475000000002 56.818145 15.169675000000002 61.69700000000001 -8.43392 4.85789 -28.97363 -14.828244999999999 -45.79954 -44.0265 -16.82591 -29.198255000000003 -23.663495 -56.788194999999995 -15.17267 -61.70299 8.490825000000001 -4.914795 28.940685000000002 14.816265000000001 45.802535 44.03249Z" stroke-width="1"></path><path id="Vector_52" stroke="#ffffff" stroke-linecap="round" stroke-linejoin="round" d="M147.19826 500.85984c-4.26488 -26.544685 -29.90208 -70.708955 -50.717330000000004 -86.65733 -10.75205 -8.329095 -18.452195 -6.855555000000001 -17.571665 7.113125 1.6712100000000003 26.50575 31.186935000000002 77.64238 53.218154999999996 92.64733000000001 12.23158 8.3261 17.4908 1.9647200000000002 15.07084 -13.103125Z" stroke-width="1"></path><path id="Vector_53" stroke="#ffffff" stroke-linecap="round" stroke-linejoin="round" d="m144.62555500000002 516.6375 16.93373 -9.796645c1.6313765 -1.278865 2.740425 -3.10881 3.1186935 -5.14541 0.3782685 -2.0366000000000004 -0.0002995 -4.142085 -1.0641235 -5.921115 6.7387500000000005 10.150055 19.961675 -0.32945 14.657530000000001 -9.125765000000001 4.920785 8.386 20.392955 2.97104 14.031575 -9.751719999999999 1.441793 1.86888 3.4966625000000002 3.165715 5.802213500000001 3.66588 2.3055510000000004 0.50316 4.71413 0.17371 6.800746500000001 -0.92845 6.8885 -4.39666 4.3337650000000005 -12.947385000000002 0.0599 -26.865150000000003 -7.994254000000001 -23.903095 -20.6759825 -45.97325 -37.302725 -64.91662500000001 -3.9959290000000003 -4.759055 -8.5707915 -9.00297 -13.618265 -12.62692 -7.981675 -4.950735 -16.960685 -1.23993 -13.87284 12.228585 -2.5397600000000002 -4.231935 -5.519785 -6.999315000000001 -10.55438 -5.64857 -1.2710780000000002 0.35341 -2.4430215 0.9973350000000001 -3.423884 1.8778650000000001 -0.9811620000000001 0.883525 -1.7445875000000002 1.9796950000000002 -2.2303765 3.207645 -0.48608850000000003 1.224955 -0.6813625000000001 2.548745 -0.5705475 3.86355 0.11051550000000002 1.314805 0.524125 2.584685 1.208183 3.7138 0 0 -5.909135000000001 -7.469530000000001 -12.605955 -2.165385 -1.6631235000000002 1.296835 -2.783553 3.165715 -3.1423539999999996 5.24125 -0.35880100000000004 2.0785299999999998 0.069484 4.213965 1.201594 5.992995 -0.5391 -0.9524100000000001 -1.2614940000000001 -1.78502 -2.125252 -2.4558999999999997 -0.863758 -0.67088 -1.851509 -1.16206 -2.906947 -1.44958 -1.0551385 -0.28752 -2.1564 -0.3594 -3.2405900000000005 -0.218635 -1.08419 0.140765 -2.1291455 0.49717000000000006 -3.075266 1.045255l-15.939390000000001 9.17069" stroke-width="1"></path><path id="Vector_54" stroke="#ffffff" stroke-linecap="round" stroke-linejoin="round" d="M558.5345550000001 426.12261c-7.035255000000001 3.884515 -13.779995 8.269195 -20.189295 13.1181 -18.82657 14.540725000000002 -37.188915 32.795249999999996 -34.742 35.990915 2.4469149999999997 3.195665 24.702759999999998 -9.916445 43.574255 -24.46915 6.32544 -4.9717 12.27351 -10.404630000000001 17.796290000000003 -16.25686" stroke-width="1"></path><path id="Vector_55" stroke="#ffffff" stroke-linecap="round" stroke-linejoin="round" d="M558.5345550000001 426.12261c4.106145 -14.20229 17.796290000000003 -9.868525 25.32572 -18.425240000000002 1.3687150000000001 13.06419 -5.819285000000001 26.182290000000002 -18.823575 26.808245000000003l-6.502145 -8.383005Z" stroke-width="1"></path><path id="Vector_56" stroke="#ffffff" stroke-linecap="round" stroke-linejoin="round" d="m540.71131 437.45269500000006 8.811290000000001 11.425925" stroke-width="1"></path><path id="Vector_57" stroke="#ffffff" stroke-linecap="round" stroke-linejoin="round" d="m571.9401750000001 152.915715 -7.472525000000001 16.739055h13.68715l-7.52943 16.74205" stroke-width="1"></path><path id="Vector_58" stroke="#ffffff" stroke-linecap="round" stroke-linejoin="round" d="m305.97519000000005 566.375465 -30.342345 0.91048" stroke-width="1"></path><path id="Vector_59" stroke="#ffffff" stroke-linecap="round" stroke-linejoin="round" d="m291.260755 582.003375 -0.913475 -30.34534" stroke-width="1"></path><path id="Vector_60" stroke="#ffffff" stroke-linecap="round" stroke-linejoin="round" d="M257.77965 230.258595c-0.5130435000000001 2.6469810000000003 -1.3163025000000002 5.2292700000000005 -2.3960000000000004 7.700145000000001 -9.29648 -4.621285 -7.1281 -7.6432400000000005 2.3960000000000004 -7.700145000000001Z" stroke-width="1"></path><path id="Vector_61" stroke="#ffffff" stroke-linecap="round" stroke-linejoin="round" d="M307.68833 245.658885c-0.27554 1.033275 -1.740095 1.70715 -4.21696 2.04259" stroke-width="1"></path><path id="Vector_62" stroke="#ffffff" stroke-linecap="round" stroke-linejoin="round" d="M257.77965 230.258595c-0.93444 6.4796825 -4.223848500000001 12.387919 -9.239575 16.595295 -22.41458 17.796290000000003 -22.762 42.72068 -6.3883350000000005 61.373540000000006" stroke-width="1"></path><path id="Vector_63" stroke="#ffffff" stroke-linecap="round" stroke-linejoin="round" d="m81.76949 410.25210500000003 -25.271810000000002 14.32808" stroke-width="1"></path><path id="Vector_64" stroke="#ffffff" stroke-linecap="round" stroke-linejoin="round" d="m143.46649000000002 517.263455 -22.687125 13.234905" stroke-width="1"></path><path id="Vector_65" stroke="#ffffff" stroke-linecap="round" stroke-linejoin="round" d="m109.82665000000001 537.39884 -16.82591 9.81162" stroke-width="1"></path><path id="Vector_66" stroke="#ffffff" stroke-linecap="round" stroke-linejoin="round" d="m44.748295000000006 431.9389 -17.167399900000003 9.754715000000001" stroke-width="1"></path><path id="Vector_67" stroke="#ffffff" stroke-linecap="round" stroke-linejoin="round" d="m98.02036000000001 472.14977 -55.26973 32.68144" stroke-width="1"></path><path id="Vector_68" stroke="#ffffff" stroke-linecap="round" stroke-linejoin="round" d="M31.744005 511.734685 14.975000000000001 521.486405" stroke-width="1"></path><path id="Vector_69" stroke="#ffffff" stroke-linecap="round" stroke-linejoin="round" d="M121.97736499999999 266.47713000000005c-5.7926295 5.5680045 -13.106419500000001 9.2931855 -21.016514 10.7044295 -7.909795 1.4112440000000002 -16.0606875 0.4453565 -23.421499 -2.775766s-13.601193499999999 -8.5528215 -17.931963500000002 -15.320623000000001c-4.33077 -6.7678015 -6.557253 -14.667713000000001 -6.3982185 -22.700902000000003 0.159334 -8.033189 2.6969975 -15.839057500000001 7.2925255 -22.4298545 4.5952285 -6.5910965 11.041966 -11.6712155 18.524674 -14.598229 7.482708000000001 -2.9270135 15.665347500000001 -3.5691415 23.513146 -1.8458185 7.8477985 1.7236225 15.0082445 5.735425 20.5759495 11.5286535 3.7000230000000003 3.8443820000000004 6.6060715000000005 8.3803095 8.551623500000002 13.348715s2.8925710000000002 10.271652000000001 2.787147 15.606346c-0.1057235 5.334694 -1.2620930000000001 10.5960105 -3.4032185000000004 15.483551000000002 -2.140826 4.8872409999999995 -5.2241785 9.304866 -9.073652 12.999497999999999Z" stroke-width="1"></path><path id="Vector_70" stroke="#ffffff" stroke-linecap="round" stroke-linejoin="round" d="M134.40961000000001 239.60000000000002c12.605955 5.99 20.0665 11.6805 18.99429 15.2745 -1.9197950000000001 6.490164999999999 -30.288435 3.992335 -63.425115 -5.591665S31.5074 226.66160000000002 33.397245 220.16245000000004c1.0782 -3.7108050000000006 10.665195 -4.5074749999999995 24.858500000000003 -2.7374300000000003" stroke-width="1"></path><path id="Vector_71" stroke="#ffffff" stroke-linecap="round" stroke-linejoin="round" d="M244.392 281.98823500000003c1.6532400000000003 10.38067 7.487500000000001 19.898780000000002 15.343385000000001 22.360670000000002 24.532045000000004 7.67319 67.01612 26.293105 67.01612 26.293105 0.530115 29.37496 3.189675 61.69700000000001 0.34442500000000004 95.4806 13.60329 5.72644 28.871800000000004 6.070865 42.72068 0.967385 2.3960000000000004 -31.881775 3.932435 -62.45473500000001 3.363385 -90.68860000000001 -0.12878499999999998 -7.02627 -1.75507 -13.941725000000002 -4.774030000000001 -20.288130000000002 -3.0219549999999997 -6.3434099999999995 -7.36171 -11.971015 -12.73474 -16.499455 -22.165995 -18.324907500000002 -46.880735 -33.330157 -73.36552 -44.544635" stroke-width="1"></path><path id="Vector_72" stroke="#ffffff" stroke-linecap="round" stroke-linejoin="round" d="m326.73653 330.64201 6.55905 2.452905 -5.987005000000001 17.167340000000003" stroke-width="1"></path><path id="Vector_73" stroke="#ffffff" stroke-linecap="round" stroke-linejoin="round" d="M328.278955 403.591225c13.86685 4.759055 28.796925 5.489835 43.062110000000004 2.111475" stroke-width="1"></path><path id="Vector_74" stroke="#ffffff" stroke-linecap="round" stroke-linejoin="round" d="M315.729905 16.99659505v9.527095000000001" stroke-width="1"></path><path id="Vector_75" stroke="#ffffff" stroke-linecap="round" stroke-linejoin="round" d="M334.26596 35.532680000000006h-9.527095000000001" stroke-width="1"></path><path id="Vector_76" stroke="#ffffff" stroke-linecap="round" stroke-linejoin="round" d="M315.729905 54.071729999999995v-9.527095000000001" stroke-width="1"></path><path id="Vector_77" stroke="#ffffff" stroke-linecap="round" stroke-linejoin="round" d="M297.19385 35.532680000000006h9.53009" stroke-width="1"></path><path id="Vector_78" stroke="#ffffff" stroke-linecap="round" stroke-linejoin="round" d="M324.73886500000003 35.532680000000006c-1.183025 0.0029950000000000003 -2.357065 -0.22762 -3.45024 -0.679266 -1.09617 -0.451646 -2.09051 -1.1153380000000002 -2.9261150000000002 -1.9524405000000002 -0.8386000000000001 -0.8371025000000001 -1.5004950000000001 -1.8314425000000003 -1.9527400000000001 -2.9261150000000002 -0.452245 -1.0943131 -0.68286 -2.267215 -0.679865 -3.45116845 0.0029950000000000003 1.1837138500000002 -0.22762 2.35637615 -0.679865 3.45056945 -0.44925 1.094373 -1.1141400000000001 2.0884135 -1.949745 2.9258155 -0.8386000000000001 0.8371025000000001 -1.83294 1.5004950000000001 -2.9261150000000002 1.9524405000000002 -1.093175 0.451646 -2.267215 0.68286 -3.45024 0.6801645000000001 1.183025 -0.0026955 2.357065 0.22851850000000004 3.45024 0.6804640000000001 1.09617 0.45194550000000006 2.09051 1.1156375 2.9261150000000002 1.9533390000000002 0.8356050000000002 0.8374020000000001 1.5004950000000001 1.8320415 1.9527400000000001 2.926714 0.44925 1.094373 0.679865 2.2675145 0.6768700000000001 3.4514380000000005 -0.0029950000000000003 -1.184223 0.22762 -2.3573645 0.679865 -3.4523365000000004 0.44925 -1.0946725 1.1141400000000001 -2.0896115 1.949745 -2.9270135 0.8386000000000001 -0.8374020000000001 1.83294 -1.501094 2.9261150000000002 -1.9530395 1.09617 -0.45194550000000006 2.27021 -0.68286 3.4532350000000003 -0.6795655v0Z" stroke-width="1"></path></g></g></svg>