<svg xmlns="http://www.w3.org/2000/svg" fill="none" viewBox="-0.5 -0.5 600 600" id="Illustrator-Drawing-With-Ipad--Streamline-Bangalore.svg" height="600" width="600"><desc>Illustrator Drawing With Ipad Streamline Illustration: https://streamlinehq.com</desc><g id="Design-Illustrator-drawing-with-ipad-01"><g id="color 2"><path id="Vector" fill="#add8e6" d="M372.2785 206.40342c-4.381685 4.950735 -19.4675 21.564 -24.184625 27.883450000000003 -30.348335 -44.13432 -36.32336 -48.81850000000001 -60.319300000000005 -48.81850000000001C245.59 185.69 201.686295 200.985465 166.171585 223.07658500000002c-23.55867 14.675500000000001 -25.493440000000003 22.022235 -28.22488 44.784235 -2.033605 15.836062499999999 -3.1336685 31.77695 -3.2945 47.743295 1.05424 -7.583340000000001 48.653775 -6.010965000000001 48.653775 2.73144 0.11381 -14.396965000000002 1.422625 -47.970915 2.2192950000000002 -55.596185 3.129775 -1.1381000000000001 7.340745 -2.674535 11.950050000000001 -4.267875 8.4378135 -7.441976 16.401219 -15.405082000000002 23.843195 -23.843195 2.8772965 13.8917085 4.6281735 27.993067000000003 5.23526 42.166605000000004 19.524405 -9.365364999999999 43.798880000000004 -10.527425000000001 65.27003500000001 -6.14574 0.28452500000000003 -0.7966700000000001 0.625955 -1.6502450000000002 0.8985 -2.4469149999999997 0.1254905 -10.995244 -0.52113 -21.9859955 -1.93477 -32.89109 6.31945 10.02726 29.917055000000005 42.591895 38.935 51.442119999999996 14.675500000000001 14.45387 27.2545 13.145055000000001 41.426840000000006 -3.4143 12.240565 -14.165751 23.657505 -29.023347 34.193915000000004 -44.49971 1.94076 -21.357345000000002 -19.4675 -35.98792 -33.0648 -32.43585Z" stroke-width="1"></path><path id="Vector_2" fill="#add8e6" d="M367.615285 497.358685c-2.49184 -3.315465 -3.7048150000000004 -7.4156200000000005 -3.4143 -11.551715000000002 -10.65621 -2.249245 -21.555015 -3.147745 -32.43585 -2.674535 -2.0006600000000003 12.579 -3.21064 24.472144999999998 -4.154065 30.848500000000005 2.61763 -8.42194 81.37415000000001 14.90911 83.0813 25.26582 0.42529 -14.939060000000001 -31.693090000000005 -26.934035 -43.077085 -41.888070000000006Z" stroke-width="1"></path><path id="Vector_3" fill="#add8e6" d="M508.9104 73.70096000000001c-13.372675 -12.746720000000002 -0.5690500000000001 -25.493440000000003 -5.7474050000000005 -38.80921 15.307445 6.0888349999999996 25.664155000000004 21.73771 18.77865 36.476105000000004l-13.031245 2.333105Z" stroke-width="1"></path><path id="Vector_4" fill="#add8e6" d="M112.28255000000001 468.05261c-14.414935 3.0219549999999997 -23.061500000000002 5.6156250000000005 -29.24917 6.999315000000001 9.958375 0 15.193635000000002 81.37415000000001 5.292165 88.54418 14.636565 -6.15772 13.58532 -39.093735 19.4675 -52.807840000000006 0.8598645000000001 -2.4319400000000004 2.3334045000000003 -4.60032 4.2774589999999995 -6.29549 1.9440545 -1.6951699999999998 4.293033 -2.85723 6.819016 -3.37836 -0.382761 -11.306125 -2.6146350000000003 -22.47448 -6.6069700000000005 -33.061805Z" stroke-width="1"></path><path id="Vector_5" fill="#add8e6" d="M439.543205 148.075795c-14.283155 -11.551715000000002 -34.427524999999996 1.0242900000000001 -33.46014 16.445545 3.09084 0.068286 6.139749999999999 0.7250895 8.985 1.93477 1.6861849999999998 2.770375 2.644585 5.921714000000001 2.788345 9.161705000000001 1.93477 3.52811 3.4712050000000003 6.4302649999999995 4.723115 8.934085000000001 18.955355 5.7474050000000005 35.74233 -21.3244 16.96368 -36.476105000000004Z" stroke-width="1"></path><path id="Vector_6" fill="#add8e6" d="m380.87415000000004 171.23613 -4.4925 -4.8938299999999995 -3.86954 -11.950050000000001c-14.738395 -6.316455 -39.534 6.25955 -38.524685 31.183940000000003 0.8985 21.680805 22.022235 30.501079999999998 32.945 26.97297 2.333105 -2.61763 4.267875 -4.792000000000001 5.46288 -6.14574 1.278865 -0.3507145 2.602655 -0.504358 3.926445 -0.45524 0.5690500000000001 -10.641235 -1.0242900000000001 -16.388640000000002 -1.0242900000000001 -21.794615 0 -2.16239 2.560725 -6.14574 5.57669 -12.917435Z" stroke-width="1"></path></g><g id="color 1"><path id="Vector_7" fill="#41175e" d="M486.60364000000004 128.44357000000002 335.57777000000004 92.5455c-9.90147 -1.82096 -15.648875 2.333105 -18.494125 9.730755l-11.09947 28.581284999999998c3.201655 25.607250000000004 2.896165 37.362625 0.5151399999999999 40.273765 -2.0485800000000003 2.50382 -6.771695 3.6988250000000003 -12.462195 2.84525 0.5801315 3.962984 1.3588315 7.8945205 2.333105 11.779335 2.106084 0.1788015 4.19899 0.501962 6.25955 0.967385L333.64300000000003 105.90919000000001l145.164655 35.224195 -45.75162 130.76769 -42.280415000000005 -12.746720000000002c-3.243585 4.21097 -6.771695 8.706465 -10.641235 13.42958l53.206175 15.990305000000001c8.137415 2.4469149999999997 15.990305000000001 -0.170715 19.575319999999998 -10.01528l45.011855000000004 -129.458875c3.07287 -8.877180000000001 2.16239 -17.356025 -11.324095000000002 -20.656515000000002Zm-16.61626 84.10559c-0.18569 0.672078 -0.506155 1.299231 -0.9434250000000001 1.842524 -0.43727 0.5435925 -0.9823600000000001 0.9922435 -1.596335 1.3180995 -0.61697 0.325856 -1.29384 0.522328 -1.9886800000000002 0.5774360000000001 -0.69484 0.055108000000000004 -1.3956700000000002 -0.032346 -2.0545700000000005 -0.2572705 -0.661895 -0.224625 -1.266885 -0.5819285000000001 -1.78502 -1.0500470000000002 -0.518135 -0.46781900000000004 -0.9314450000000001 -1.0365695000000001 -1.22196 -1.6709105 -0.290515 -0.6343409999999999 -0.446255 -1.321394 -0.46123000000000003 -2.0186300000000004 -0.014975 -0.6969365 0.11381 -1.38968 0.37737000000000004 -2.0357015 0.18569 -0.672078 0.506155 -1.299231 0.9434250000000001 -1.842524 0.43727 -0.5435925 0.979365 -0.991944 1.596335 -1.3180995 0.61697 -0.325856 1.29384 -0.522328 1.9886800000000002 -0.5774360000000001 0.69484 -0.055108000000000004 1.3956700000000002 0.032346 2.0545700000000005 0.2572705 0.6589 0.2249245 1.266885 0.582228 1.78502 1.0500470000000002 0.5151399999999999 0.46781900000000004 0.9314450000000001 1.0365695000000001 1.22196 1.6709105 0.290515 0.6343409999999999 0.446255 1.321394 0.46123000000000003 2.0186300000000004 0.014975 0.6972360000000001 -0.11381 1.3899795000000001 -0.37737000000000004 2.0357015Z" stroke-width="1"></path><path id="Vector_8" fill="#41175e" d="m387.47513 178.40616 12.63291 13.827915c-6.544075 2.84525 -13.714105 -2.950075 -12.63291 -13.827915Z" stroke-width="1"></path><path id="Vector_9" fill="#41175e" d="M405.45711 174.08138000000002c-1.5933400000000002 -0.39833500000000005 -5.12145 -1.0242900000000001 -9.284500000000001 -1.6502450000000002l9.284500000000001 10.129090000000001c0.22762 -2.8215895000000004 0.22762 -5.657255500000001 0 -8.478845Z" stroke-width="1"></path><path id="Vector_10" fill="#41175e" d="M364.25789000000003 485.75006500000006c9.787659999999999 2.2762000000000002 12.40529 5.34907 12.40529 7.6252699999999995 0 2.902155 -4.792000000000001 3.926445 -8.985 3.926445 -2.476865 -3.3214550000000003 -3.6898400000000002 -7.4156200000000005 -3.42029 -11.551715000000002Z" stroke-width="1"></path><path id="Vector_11" fill="#41175e" d="M331.765135 483.132435c-0.739765 5.00764 -1.36572 9.161705000000001 -1.82096 12.746720000000002 -6.71479 -1.308815 -11.00363 -4.1570599999999995 -10.755045 -7.28384 0.20965000000000003 -2.620625 3.7557300000000002 -4.836925 12.576005 -5.46288Z" stroke-width="1"></path><path id="Vector_12" fill="#41175e" d="M102.66560500000001 458.43566500000003c2.6236200000000003 -0.66489 6.25955 1.6502450000000002 9.616945 9.67385 -5.99 1.308815 -10.527425000000001 2.3960000000000004 -14.22625 3.2945 -0.91048 -6.9933250000000005 1.5993300000000001 -12.207619999999999 4.609305 -12.968350000000001Z" stroke-width="1"></path><path id="Vector_13" fill="#41175e" d="M118.88353000000001 501.11441500000006c-2.5143025000000003 0.548085 -4.8495040000000005 1.722125 -6.789066 3.4143 -1.9398615000000001 1.68918 -3.4211885000000004 3.8425849999999997 -4.307409 6.25955 1.1980000000000002 3.7467449999999998 4.399655 7.70913 7.328765000000001 5.61862 2.135435 -1.52146 3.9713700000000003 -6.2565550000000005 3.76771 -15.29247Z" stroke-width="1"></path><path id="Vector_14" fill="#41175e" d="M277.47776500000003 316.059355c-1.0242900000000001 14.510775 -0.28452500000000003 49.05211 0 61.22978 -5.6905 -1.82096 -10.69814 -3.357395 -14.45387 -4.381685 5.57669 -22.932715 10.01528 -40.9716 14.45387 -56.84809500000001Z" stroke-width="1"></path><path id="Vector_15" fill="#41175e" d="M134.70312 315.49030500000003c-0.34143 2.50382 4.32478 5.12145 11.0815 5.46288 0.6088835 -0.464225 1.0970685 -1.069215 1.422625 -1.764055 0.5232265 -2.7374300000000003 0.7143075 -5.525775 0.5690500000000001 -8.30813 -9.03292 0.625955 -12.788649999999999 2.61763 -13.073175 4.609305Z" stroke-width="1"></path><path id="Vector_16" fill="#41175e" d="M183.294 317.69762c-0.5001650000000001 -1.8958350000000002 -3.4891750000000004 -3.932435 -9.93741 -5.22328 0.170715 2.50382 0.28452500000000003 6.14574 0.45524 10.183 3.76771 -0.116805 10.38067 -1.5514100000000002 9.48217 -4.95972Z" stroke-width="1"></path><path id="Vector_17" fill="#41175e" d="M221.369435 234.571395c1.0242900000000001 4.8938299999999995 1.991675 10.299805000000001 2.788345 15.8735 -8.985898500000001 2.2094115000000003 -17.855291500000003 4.8683725 -26.574635 7.9667 8.39199 -7.470728000000001 16.33473 -15.431138500000001 23.78629 -23.8402Z" stroke-width="1"></path><path id="Vector_18" fill="#41175e" d="M300.18286 249.02526500000002c-2.674535 6.71479 -5.12145 13.031245 -7.3976500000000005 19.168000000000003 0.123993 -10.9955435 -0.5226275 -21.9859955 -1.93477 -32.89109 1.5933400000000002 2.56971 5.05556 7.691160000000001 9.33242 13.723090000000001Z" stroke-width="1"></path><path id="Vector_19" fill="#41175e" d="M374.74638 521.192895c-21.794615 -6.99632 -45.682735 -11.791314999999999 -47.13531 -7.217950000000001 -1.9227900000000002 6.12178 19.907765 14.99896 41.669435 21.045865000000003 18.8685 5.247240000000001 37.70106 8.368030000000001 40.926674999999996 5.72045 6.208635 -5.0915 -27.74568 -17.0715 -35.4608 -19.548365Z" stroke-width="1"></path><path id="Vector_20" fill="#41175e" d="M93.09059 515.4395c-1.3956700000000002 -20.773320000000002 -5.172365 -40.32468 -10.114115 -40.32468 -6.010965000000001 -0.026955 -8.086500000000001 19.949695 -7.364705000000001 40.980585 0.8056550000000001 23.361 5.064545000000001 48.018835 11.234245 48.018835 8.694485 -1.9377650000000002 6.837585 -39.86345 6.244575 -48.67474Z" stroke-width="1"></path><path id="Vector_21" fill="#41175e" d="M519.665445 328.06631c-15.00495 -2.938095 -30.537020000000002 -1.494505 -44.73931 4.16305 -14.205285000000002 5.66055 -26.478794999999998 15.289475000000001 -35.349985000000004 27.739690000000003 -8.874185 12.453210000000002 -13.971675000000001 27.197595 -14.684484999999999 42.4691 -0.709815 15.271505000000001 2.9920050000000002 30.426205000000003 10.66819 43.64913 42.394225 -26.51773 71.643395 -69.08267 84.10559 -118.02097Z" stroke-width="1"></path><path id="Vector_22" fill="#41175e" d="M293.58188 166.171585c5.91812 4.267875 11.381 7.05622 13.201960000000001 4.381685 -1.764055 3.52811 -5.46288 4.5524000000000004 -12.63291 3.4143 -0.28452500000000003 -2.61763 -0.45524 -5.23526 -0.5690500000000001 -7.795985000000001Z" stroke-width="1"></path><path id="Vector_23" fill="#41175e" d="M313.49863000000005 106.19371500000001c-3.1866800000000004 -4.040255 -8.706465 -6.48717 -17.18531 -5.57669 3.7557300000000002 -31.013225000000002 -40.459455000000005 -35.451815 -42.166605000000004 -9.503135 -22.591285000000003 -17.583645 -58.896675 9.67385 -33.34633 28.4525 -13.884820000000001 0.853575 -18.494125 19.23389 -3.64192 19.23389 -34.25681 23.387955 -7.28384 75.45603 66.80647 26.0565 3.9932335 -3.4316709999999997 7.5824415 -7.307201 10.69814 -11.551715000000002 -6.316455 -8.592655 0.739765 -13.998630000000002 3.357395 -7.85289 1.47953 3.52811 3.129775 -1.8778650000000001 3.129775 -6.25955 2.08452 0.123394 4.1211199999999995 0.665489 5.99 1.5933400000000002 8.532755000000002 -4.944745 14.223255 -24.69078 6.358385000000001 -34.59225Z" stroke-width="1"></path></g><g id="outlines"><path id="Vector_24" stroke="#ffffff" stroke-linecap="round" stroke-linejoin="round" d="M508.9104 73.70096000000001c-13.372675 -12.746720000000002 -0.5690500000000001 -25.493440000000003 -5.7474050000000005 -38.80921 15.307445 6.0888349999999996 25.664155000000004 21.73771 18.77865 36.476105000000004l-13.031245 2.333105Z" stroke-width="1"></path><path id="Vector_25" stroke="#ffffff" stroke-linejoin="round" d="M296.370225 185.75589c2.106084 0.1788015 4.195995 0.501962 6.25955 0.967385L333.64300000000003 105.90919000000001l145.164655 35.224195 -45.75162 130.76769 -42.280415000000005 -12.746720000000002c-3.243585 4.21097 -6.771695 8.706465 -10.641235 13.42958l53.206175 15.990305000000001c8.137415 2.4469149999999997 15.990305000000001 -0.170715 19.575319999999998 -10.01528l45.011855000000004 -129.458875c3.07287 -8.877180000000001 2.16239 -17.356025 -11.324095000000002 -20.656515000000002L335.57777000000004 92.5455c-9.90147 -1.82096 -15.648875 2.333105 -18.494125 9.730755l-2.30016 5.919318m155.203895 104.35358699999999c-0.18569 0.672078 -0.506155 1.299231 -0.9434250000000001 1.842524 -0.43727 0.5435925 -0.9823600000000001 0.9922435 -1.596335 1.3180995 -0.61697 0.325856 -1.29384 0.522328 -1.9886800000000002 0.5774360000000001 -0.69484 0.055108000000000004 -1.3956700000000002 -0.032346 -2.0545700000000005 -0.2572705 -0.661895 -0.224625 -1.266885 -0.5819285000000001 -1.78502 -1.0500470000000002 -0.518135 -0.46781900000000004 -0.9314450000000001 -1.0365695000000001 -1.22196 -1.6709105 -0.290515 -0.6343409999999999 -0.446255 -1.321394 -0.46123000000000003 -2.0186300000000004 -0.014975 -0.6969365 0.11381 -1.38968 0.37737000000000004 -2.0357015 0.18569 -0.672078 0.506155 -1.299231 0.9434250000000001 -1.842524 0.43727 -0.5435925 0.979365 -0.991944 1.596335 -1.3180995 0.61697 -0.325856 1.29384 -0.522328 1.9886800000000002 -0.5774360000000001 0.69484 -0.055108000000000004 1.3956700000000002 0.032346 2.0545700000000005 0.2572705 0.6589 0.2249245 1.266885 0.582228 1.78502 1.0500470000000002 0.5151399999999999 0.46781900000000004 0.9314450000000001 1.0365695000000001 1.22196 1.6709105 0.290515 0.6343409999999999 0.446255 1.321394 0.46123000000000003 2.0186300000000004 0.014975 0.6972360000000001 -0.11381 1.3899795000000001 -0.37737000000000004 2.0357015Z" stroke-width="1"></path><path id="Vector_26" stroke="#ffffff" stroke-linecap="round" stroke-linejoin="round" d="m23.05551 453.25731 37.78492 -53.94594" stroke-width="1"></path><path id="Vector_27" stroke="#ffffff" stroke-linecap="round" stroke-linejoin="round" d="m14.975000000000001 407.39188 53.94594 37.78492" stroke-width="1"></path><path id="Vector_28" stroke="#ffffff" stroke-linecap="round" stroke-linejoin="round" d="m382.524395 329.488935 36.419200000000004 -6.4302649999999995" stroke-width="1"></path><path id="Vector_29" stroke="#ffffff" stroke-linecap="round" stroke-linejoin="round" d="m397.547315 308.09265500000004 6.373360000000001 36.419200000000004" stroke-width="1"></path><path id="Vector_30" stroke="#ffffff" stroke-linecap="round" stroke-linejoin="round" d="M504.41490500000003 485.80697c43.9666 0 79.610095 -35.643495 79.610095 -79.610095s-35.643495 -79.610095 -79.610095 -79.610095 -79.610095 35.643495 -79.610095 79.610095 35.643495 79.610095 79.610095 79.610095Z" stroke-width="1"></path><path id="Vector_31" stroke="#ffffff" stroke-linecap="round" stroke-linejoin="round" d="M98.34082500000001 238.099505c17.976589 0 32.54966 -14.573071 32.54966 -32.54966s-14.573071 -32.54966 -32.54966 -32.54966c-17.9768885 0 -32.54966 14.573071 -32.54966 32.54966s14.572771500000002 32.54966 32.54966 32.54966Z" stroke-width="1"></path><path id="Vector_32" stroke="#ffffff" stroke-linecap="round" stroke-linejoin="round" d="M239.1807 469.017c26.345817 5.29516 53.20138300000001 7.622275 80.065335 6.942410000000001" stroke-width="1"></path><path id="Vector_33" stroke="#ffffff" stroke-linecap="round" stroke-linejoin="round" d="M376.66318 470.158095c131.55238 -29.186275 190.982165 -184.14458000000002 118.59002 -313.222491M166.171585 444.26033c-61.396302000000006 -30.23752 -108.54718600000001 -83.269985 -131.39364500000002 -147.782285 -48.141659950000005 -132.0196 33.978275000000004 -190.49997000000002 111.24927500000001 -167.52832 40.228840000000005 11.959035 59.75025 1.47953 62.254070000000006 -34.143 2.333105 -33.175615 25.891775 -58.05807500000001 96.226355 -53.775225 60.94825000000001 3.7152975 130.716775 39.504649 169.11567000000002 84.242761" stroke-width="1"></path><path id="Vector_34" stroke="#ffffff" stroke-linecap="round" stroke-linejoin="round" d="m114.843275 60.04376 -75.17450000000001 13.258865c-2.9048505000000002 0.5609635 -5.4727635 2.2417575000000003 -7.149065 4.679388 -1.676601 2.4376305 -2.3274145 5.4368235 -1.8119750000000001 8.35006 0.5154395 2.9132365 2.155801 5.5069065 4.566776 7.2212445 2.4112745 1.7146375 5.3996855 2.412173 8.320709 1.9422575l75.17450000000001 -13.258865 21.39628 -15.250539999999999 -25.322725000000002 -6.942410000000001Z" stroke-width="1"></path><path id="Vector_35" stroke="#ffffff" stroke-linecap="round" stroke-linejoin="round" d="m43.19988 72.67696950000001 3.926445 22.19295" stroke-width="1"></path><path id="Vector_36" stroke="#ffffff" stroke-linecap="round" stroke-linejoin="round" d="m55.946600000000004 70.457375 3.86954 22.19295" stroke-width="1"></path><path id="Vector_37" stroke="#ffffff" stroke-linecap="round" stroke-linejoin="round" d="m114.843275 60.04376 3.926445 22.19295" stroke-width="1"></path><path id="Vector_38" stroke="#ffffff" stroke-linecap="round" stroke-linejoin="round" d="M508.9104 73.70096000000001c0.22762 10.067992 1.159065 20.107831 2.788345 30.045840000000002 5.16937 29.37496 14.738395 60.319300000000005 19.68913 59.465725000000006 4.950735 -0.853575 3.3873450000000003 -33.2445 -1.82096 -62.5955 -1.8449200000000001 -9.899673 -4.393665 -19.654987 -7.6252699999999995 -29.192265l-13.031245 2.2762000000000002Z" stroke-width="1"></path><path id="Vector_39" stroke="#ffffff" stroke-linecap="round" stroke-linejoin="round" d="m511.07279 100.10488000000001 17.868170000000003 -3.129775" stroke-width="1"></path><path id="Vector_40" stroke="#ffffff" stroke-linecap="round" stroke-linejoin="round" d="M145.799595 321.01009c-6.771695 -0.34143 -11.425925 -2.95906 -11.0815 -5.46288 0.35341 -2.674535 6.771695 -5.286175 23.274145 -4.792000000000001 18.66484 0.57504 25.574305 4.4385900000000005 25.436535000000003 7.568365000000001 -0.09584000000000001 2.2192950000000002 -4.097160000000001 4.097160000000001 -9.56004 4.267875" stroke-width="1"></path><path id="Vector_41" stroke="#ffffff" stroke-linecap="round" stroke-linejoin="round" d="M348.15377500000005 234.229965c4.723115 -6.316455 19.80294 -22.87581 24.184625 -27.883450000000003 10.641235 -2.902155 34.882765 8.023605 33.0049 32.492755 -10.55438 15.4598905 -21.974315 30.312694500000003 -34.199905 44.48773 -14.205285000000002 16.52641 -26.67946 17.91609 -41.426840000000006 3.4143 -9.497145 -9.33841 -33.744665 -43.128 -38.866115 -51.442119999999996 1.41364 10.9050945 2.0602605 21.895546500000002 1.93477 32.89109" stroke-width="1"></path><path id="Vector_42" stroke="#ffffff" stroke-linecap="round" stroke-linejoin="round" d="M353.95808500000004 242.76571500000003c-36.134675 -53.14927 -41.426840000000006 -57.360240000000005 -66.12361 -57.360240000000005 -38.524685 0 -83.371815 13.705119999999999 -121.59700000000001 37.614205 -23.561665 14.732405 -25.39161 22.09112 -28.22488 44.784235 -2.0015585000000002 15.839357 -3.1013225 31.779945 -3.2945 47.743295" stroke-width="1"></path><path id="Vector_43" stroke="#ffffff" stroke-linecap="round" stroke-linejoin="round" d="M300.18286 248.96865950000003c-21.794615 54.3439755 -27.521055 84.1112805 -56.33595 204.5582005 -5.44491 22.83388 -11.43491 34.134015000000005 -38.12635 41.84614 -27.88944 8.05655 -83.53654 19.290795 -91.61705 21.453185" stroke-width="1"></path><path id="Vector_44" stroke="#ffffff" stroke-linecap="round" stroke-linejoin="round" d="M98.05630000000001 471.3531c-0.8985 -6.8885 1.5933400000000002 -12.126755000000001 4.609305 -12.917435 3.9234500000000003 -1.0302799999999999 10.13508 4.723115 14.22625 25.94868 4.33077 22.462500000000002 0.8985 31.615219999999997 -2.788345 32.492755 -2.3361 0.554075 -5.00764 -1.991675 -6.316455 -6.0888349999999996" stroke-width="1"></path><path id="Vector_45" stroke="#ffffff" stroke-linecap="round" stroke-linejoin="round" d="M102.66560500000001 458.43566500000003c19.91675 -4.4385900000000005 92.584435 -20.6655 97.53517000000001 -21.794615" stroke-width="1"></path><path id="Vector_46" stroke="#ffffff" stroke-linecap="round" stroke-linejoin="round" d="M291.87473 270.64916500000004C252.72409000000002 262.682465 208.75150000000002 273.44350000000003 194.675 310.65338c-12.342395000000002 32.666465 -8.53575 73.86269 -5.391 128.37768" stroke-width="1"></path><path id="Vector_47" stroke="#ffffff" stroke-linecap="round" stroke-linejoin="round" d="M217.841325 220.9711c5.0780225 18.204808 8.0191125 36.938832500000004 8.76337 55.823805" stroke-width="1"></path><path id="Vector_48" stroke="#ffffff" stroke-linecap="round" stroke-linejoin="round" d="M183.356895 318.335555c0.11381 -14.340060000000001 1.422625 -48.027820000000006 2.2192950000000002 -55.653090000000006 12.608650500000001 -4.778822 25.4691805 -8.8631035 38.524685 -12.234575" stroke-width="1"></path><path id="Vector_49" stroke="#ffffff" stroke-linecap="round" stroke-linejoin="round" d="M83.03338000000001 475.10882999999995c10.413615 0.023960000000000002 15.70578 89.056325 3.86954 88.99942 -11.83624 -0.056905 -16.559355 -89.02937 -3.86954 -88.99942Z" stroke-width="1"></path><path id="Vector_50" stroke="#ffffff" stroke-linecap="round" stroke-linejoin="round" d="M83.03338000000001 475.10882999999995c6.589 -1.47953 12.177669999999999 -3.2945 29.24917 -7.05622" stroke-width="1"></path><path id="Vector_51" stroke="#ffffff" stroke-linecap="round" stroke-linejoin="round" d="M118.94043500000001 501.11441500000006c-8.194320000000001 2.3960000000000004 -12.186655 6.322445000000001 -15.36435 27.65583 -2.18635 14.675500000000001 -6.25955 32.663470000000004 -16.673165 35.341" stroke-width="1"></path><path id="Vector_52" stroke="#ffffff" stroke-linecap="round" stroke-linejoin="round" d="M329.94417500000003 495.87915499999997c-6.71479 -1.308815 -10.952715000000001 -4.1570599999999995 -10.755045 -7.226935 0.25158 -3.9294400000000005 7.685169999999999 -6.927435000000001 28.737025000000003 -5.23526 23.447855 1.8868500000000001 28.680120000000002 6.71479 28.680120000000002 9.958375 0 2.902155 -4.792000000000001 3.926445 -8.985 3.926445" stroke-width="1"></path><path id="Vector_53" stroke="#ffffff" stroke-linecap="round" stroke-linejoin="round" d="M327.61107 513.9749449999999c2.73144 -8.706465 86.256 16.388640000000002 83.024395 26.1763 -2.506815 7.568365000000001 -86.720225 -14.396965000000002 -83.024395 -26.1763Z" stroke-width="1"></path><path id="Vector_54" stroke="#ffffff" stroke-linecap="round" stroke-linejoin="round" d="M327.61107 513.9749449999999c0.967385 -6.544075 1.6502450000000002 -13.998630000000002 4.154065 -30.848500000000005" stroke-width="1"></path><path id="Vector_55" stroke="#ffffff" stroke-linecap="round" stroke-linejoin="round" d="M364.25789000000003 485.75006500000006c-0.056905 8.42194 2.3960000000000004 13.549380000000001 19.973655 26.0565 13.777 9.79365 27.598925 17.925075000000003 26.403920000000003 28.33869" stroke-width="1"></path><path id="Vector_56" stroke="#ffffff" stroke-linecap="round" stroke-linejoin="round" d="M283.11136000000005 296.76856c23.65451 15.07084 46.449455 31.4475 68.286 49.05211 22.920735 19.07815 25.26582 26.1763 25.26582 59.238105000000004v88.31656" stroke-width="1"></path><path id="Vector_57" stroke="#ffffff" stroke-linecap="round" stroke-linejoin="round" d="M319.18913 488.65222000000006c0.39833500000000005 -22.818905 0.5690500000000001 -88.9515 0 -97.42135999999999 -17.18531 -5.91812 -43.81685 -14.852205 -56.165235 -18.2695" stroke-width="1"></path><path id="Vector_58" stroke="#ffffff" stroke-linecap="round" stroke-linejoin="round" d="M274.063465 268.3732645c-22.932715 28.395595 -37.386585000000004 94.0636655 -49.96259 187.2171505 -35.110385 11.03957 -88.25965500000001 23.387955 -107.493545 27.371305" stroke-width="1"></path><path id="Vector_59" stroke="#ffffff" stroke-linecap="round" stroke-linejoin="round" d="M173.4105 312.36053c0.45524 8.934085000000001 1.36572 32.0465 0.170715 36.362295 -1.195005 4.3157950000000005 -13.99264 25.382625 -21.6239 34.37062 -4.8339300000000005 5.6905 -10.782 6.987335000000001 -4.66621 -4.836925 3.598792 -7.06221 6.701312499999999 -14.37001 9.284500000000001 -21.863500000000002 7.253890000000001 -20.650525 -8.086500000000001 -25.089115000000003 -14.22625 -17.697455 -9.38034 11.27318 -16.40661 14.10645 -12.689815000000001 5.23526 2.267215 -5.40897 3.4712050000000003 -8.64956 5.064545000000001 -12.746720000000002 1.5933400000000002 -4.097160000000001 11.83624 -9.44623 12.5191 -11.83624 0.547486 -2.7344350000000004 0.7385670000000001 -5.525775 0.5690500000000001 -8.30813" stroke-width="1"></path><path id="Vector_60" stroke="#ffffff" stroke-linecap="round" stroke-linejoin="round" d="M152.855815 366.07885000000005c-4.710536 4.806975 -10.028757500000001 8.976015 -15.81959 12.40529 -7.059215000000001 4.136095 -9.503135 0.28452500000000003 -1.1980000000000002 -7.454555 5.806706 -5.393995 11.042565 -11.372015000000001 15.624915 -17.838220000000003" stroke-width="1"></path><path id="Vector_61" stroke="#ffffff" stroke-linecap="round" stroke-linejoin="round" d="M146.59626500000002 349.06425500000006c2.9398920000000004 2.9171300000000002 6.307170500000001 5.36704 9.985330000000001 7.268865000000001" stroke-width="1"></path><path id="Vector_62" stroke="#ffffff" stroke-linecap="round" stroke-linejoin="round" d="M144.7184 361.75407c-5.398188 2.68352 -11.1153435 4.6722 -17.014595 5.91812 -7.679180000000001 1.6083150000000002 -6.651895000000001 -2.88718 1.47953 -6.316455 6.5332930000000005 -3.09084 12.7308465 -6.849565 18.494125 -11.210285" stroke-width="1"></path><path id="Vector_63" stroke="#ffffff" stroke-linecap="round" stroke-linejoin="round" d="M137.150035 357.20167000000004c-4.1357955 0.68286 -8.3335875 0.91048 -12.5191 0.68286 -5.57669 -0.68286 -7.173025 -3.9414200000000004 1.308815 -5.23526 6.672261 -0.9613950000000001 13.158532500000002 -2.938095 19.23389 -5.8612150000000005 0.6580015 -4.12711 2.1896445 -8.065535 4.4925 -11.551715000000002" stroke-width="1"></path><path id="Vector_64" stroke="#ffffff" stroke-linecap="round" stroke-linejoin="round" d="M277.53467 377.289135c-0.28452500000000003 -12.348385 -1.0242900000000001 -47.57258 0 -61.741924999999995" stroke-width="1"></path><path id="Vector_65" stroke="#ffffff" stroke-linecap="round" stroke-linejoin="round" d="M197.52624 258.41459c8.438113000000001 -7.441676500000001 16.401219 -15.405082000000002 23.843195 -23.843195" stroke-width="1"></path><path id="Vector_66" stroke="#ffffff" stroke-linecap="round" stroke-linejoin="round" d="m380.87415000000004 171.179225 -4.4925 -4.8938299999999995 -3.86954 -11.893145 11.551715000000002 4.8372245000000005L438.16850000000005 218.01204c0.93444 1.0114115000000001 1.43161 2.352872 1.3777000000000001 3.7293740000000004 -0.05391 1.3768015 -0.649915 2.675733 -1.6622250000000003 3.611371 -1.01231 0.9359375000000001 -2.35407 1.43161 -3.7287750000000006 1.378299 -1.3777000000000001 -0.053311000000000004 -2.67753 -0.6514125000000001 -3.61197 -1.6625245000000002L387.579955 178.34626" stroke-width="1"></path><path id="Vector_67" stroke="#ffffff" stroke-linecap="round" stroke-linejoin="round" d="M429.98316500000004 209.13486c-1.81497 0.333643 -3.5011550000000002 1.1725425 -4.860885000000001 2.4208585 -1.35973 1.248316 -2.3390950000000004 2.8548340000000003 -2.82728 4.6353615" stroke-width="1"></path><path id="Vector_68" stroke="#ffffff" stroke-linecap="round" stroke-linejoin="round" d="M433.056035 212.492255c-1.81497 0.3345415 -3.49816 1.1743395 -4.85789 2.422356 -1.356735 1.248316 -2.3361 2.854235 -2.824285 4.633864" stroke-width="1"></path><path id="Vector_69" stroke="#ffffff" stroke-linecap="round" stroke-linejoin="round" d="M376.26484500000004 205.891275c0.5690500000000001 -10.641235 -1.0242900000000001 -16.388640000000002 -1.0242900000000001 -21.794615 0 -2.50382 3.4741999999999997 -7.568365000000001 7.170030000000001 -16.673165 2.44991 -6.03193 7.277850000000001 -2.16239 5.292165 8.934085000000001 -2.16838 12.120764999999999 5.46288 18.89246 12.462195 15.762685" stroke-width="1"></path><path id="Vector_70" stroke="#ffffff" stroke-linecap="round" stroke-linejoin="round" d="M396.181595 172.37423c4.154065 0.625955 7.682175 1.25191 9.284500000000001 1.6502450000000002 0.22762 2.821889 0.22762 5.657255500000001 0 8.478845" stroke-width="1"></path><path id="Vector_71" stroke="#ffffff" stroke-linecap="round" stroke-linejoin="round" d="M387.70275 163.2275c7.73908 0.34143 25.493440000000003 1.36572 27.371305 3.243585 2.84525 2.84525 3.52811 16.73007 3.86954 21.6239" stroke-width="1"></path><path id="Vector_72" stroke="#ffffff" stroke-linecap="round" stroke-linejoin="round" d="M417.86240000000004 175.617815c9.958375 18.038885 10.072185000000001 20.4858 5.7474050000000005 26.574635" stroke-width="1"></path><path id="Vector_73" stroke="#ffffff" stroke-linecap="round" stroke-linejoin="round" d="M417.29335000000003 210.848c-5.405975 6.942410000000001 -11.6805 13.31577 -13.031245 16.786975" stroke-width="1"></path><path id="Vector_74" stroke="#ffffff" stroke-linecap="round" stroke-linejoin="round" d="M284.03981 164.811855c3.9839490000000004 -3.4166960000000004 7.567167 -7.2751545 10.68017 -11.5008 -6.25955 -8.592655 0.715805 -13.986650000000001 3.357395 -7.85289 1.52146 3.5341 3.129775 -1.8778650000000001 3.129775 -6.25955 2.081525 0.1308815 4.118125 0.6723775000000001 5.99 1.5933400000000002 12.006955000000001 -6.999315000000001 18.43722 -43.2478 -10.868855 -40.231835000000004 3.7407550000000005 -31.013225000000002 -40.531335 -35.39491 -42.181580000000004 -9.512120000000001 -22.591285000000003 -17.52674 -58.896675 9.787659999999999 -33.34633 28.509405 -13.884820000000001 0.853575 -18.494125 19.23389 -3.64192 19.23389 -34.325695 23.405925000000003 -7.2658700000000005 75.55786 66.881345 26.020560000000003Z" stroke-width="1"></path><path id="Vector_75" stroke="#ffffff" stroke-linecap="round" stroke-linejoin="round" d="M250.846225 189.161205c17.697455 -10.129090000000001 38.46778 -27.554 43.873754999999996 -35.850150000000006" stroke-width="1"></path><path id="Vector_76" stroke="#ffffff" stroke-linecap="round" stroke-linejoin="round" d="M295.801175 185.63309500000003c-0.757735 -3.8935000000000004 -1.326785 -7.787000000000001 -1.7191299999999998 -11.713445 16.91576 2.6955 14.465850000000001 -6.376355 13.043225000000001 -33.127695" stroke-width="1"></path><path id="Vector_77" stroke="#ffffff" stroke-linecap="round" stroke-linejoin="round" d="M294.082045 173.91965000000002c-0.260565 -2.578695 -0.44326 -5.1514 -0.5570700000000001 -7.748065 5.91812 4.32478 11.381 7.05622 13.201960000000001 4.32478" stroke-width="1"></path></g></g></svg>