<svg xmlns="http://www.w3.org/2000/svg" fill="none" viewBox="-0.5 -0.5 600 600" id="Listening-Feedback--Streamline-Bangalore.svg" height="600" width="600"><desc>Listening Feedback Streamline Illustration: https://streamlinehq.com</desc><g id="Customer-service-Support-Listening-to-feedback"><g id="color 2"><path id="Vector" fill="#add8e6" d="m447.99210000000005 270.70607 -59.861064999999996 58.55824c-15.594965 -46.665095 -33.40623 -59.465725000000006 -41.25912 -62.939925 -7.903804999999999 6.007969999999999 -46.868755 14.546715 -66.97419 17.1314l-44.84114 88.37047c-2.357664 4.6722 -3.694033 9.79365 -3.9195565 15.022920000000001 -0.225823 5.232265000000001 0.664291 10.449555 2.6107415 15.307445 14.100460000000002 34.145995 31.300745000000003 66.929265 51.385215 97.93650000000001 24.579965 -3.4143 45.35029 -13.42958 57.64177 -34.768955 -21.453185 -29.875125 -39.435165 -58.213815000000004 -51.95127 -83.99178l20.255185 -33.28643 -0.85058 -32.666465c12.402295 25.610245000000003 34.02919 51.55593 50.81317000000001 69.4241 5.2801849999999995 5.5976550000000005 12.47118 9.00297 20.147365 9.539075 7.67319 0.5391 15.271505000000001 -1.829945 21.279475 -6.636920000000001 29.192265 -23.274145 57.13262 -47.57258 84.90226 -71.88 -2.27021 -10.212950000000001 -7.065205000000001 -19.692724 -13.941725000000002 -27.5746655 -6.8795150000000005 -7.8819415 -15.624915 -13.913871499999999 -25.436535000000003 -17.545009500000003Z" stroke-width="1"></path><path id="Subtract" fill="#add8e6" fill-rule="evenodd" d="m201.14749450000002 112.513165 -22.645195 -8.955050000000002c-5.767172 3.8255135000000005 -12.191447 6.5527605 -18.949365 8.04457 -33.061805 7.3976500000000005 -66.108635 -15.013935 -66.408135 -47.060435 -0.266555 -27.08678 23.549685000000004 -49.26777995 53.254095 -49.56727995 29.647505 -0.28153 53.924974999999996 21.39930495 54.23645500000001 48.557964950000006 0.0787685 9.482769 -2.8060155 18.753491999999998 -8.251225 26.51773l8.76337 22.462500000000002ZM155.8487185 53.63386100000001c0.7858880000000001 0.325856 1.5001955 0.8032590000000001 2.101292 1.405254 0.6019950000000001 0.601396 1.0796975 1.315404 1.405254 2.1015915 0.325856 0.7858880000000001 0.493576 1.6283815 0.493576 2.479261s-0.16772 1.693373 -0.493576 2.479261c-0.3255565 0.7861875 -0.8032590000000001 1.5001955 -1.405254 2.1015915l-10.81195 10.755045 -10.81195 -10.755045c-1.2147720000000002 -1.2150715 -1.8973324999999999 -2.862621 -1.8973324999999999 -4.580852500000001 0 -1.7182315000000001 0.6825605 -3.3660805 1.8973324999999999 -4.580852500000001 1.2150715 -1.2147720000000002 2.8629205 -1.8973324999999999 4.580852500000001 -1.8973324999999999 1.7182315000000001 0 3.3660805 0.6825605 4.580852500000001 1.8973324999999999l1.6502450000000002 1.6502450000000002 1.6502450000000002 -1.6502450000000002c0.601396 -0.6019950000000001 1.3157035000000001 -1.079398 2.1015915 -1.405254 0.7858880000000001 -0.325856 1.6283815 -0.493576 2.479261 -0.493576s1.693373 0.16772 2.4795605 0.493576Z" clip-rule="evenodd" stroke-width="1"></path><path id="Vector_2" fill="#add8e6" d="m75.49496500000001 265.18928 2.50382 5.064545000000001 5.57669 0.7966700000000001 -4.040255 3.926445 0.967385 5.573695 -5.00764 -2.61763 -4.950735 2.61763 0.91048 -5.573695 -3.98335 -3.926445 5.57669 -0.7966700000000001 2.4469149999999997 -5.064545000000001Z" stroke-width="1"></path><path id="Vector_3" fill="#add8e6" d="m97.23267500000001 265.18928 2.50382 5.064545000000001 5.57669 0.7966700000000001 -4.040255 3.926445 0.967385 5.573695 -5.00764 -2.61763 -4.950735 2.61763 0.91048 -5.573695 -4.040255 -3.926445 5.57669 -0.7966700000000001 2.50382 -5.064545000000001Z" stroke-width="1"></path><path id="Vector_4" fill="#add8e6" d="m118.97008550000001 265.18928 2.50382 5.064545000000001 5.57669 0.7966700000000001 -4.040255 3.926445 0.967385 5.573695 -5.00764 -2.61763 -5.00764 2.61763 0.967385 -5.573695 -4.040255 -3.926445 5.57669 -0.7966700000000001 2.50382 -5.064545000000001Z" stroke-width="1"></path><path id="Vector_5" fill="#add8e6" d="m140.70809500000001 265.18928 2.50382 5.064545000000001 5.57669 0.7966700000000001 -4.040255 3.926445 0.91048 5.573695 -4.950735 -2.61763 -5.00764 2.61763 0.967385 -5.573695 -4.040255 -3.926445 5.57669 -0.7966700000000001 2.50382 -5.064545000000001Z" stroke-width="1"></path><path id="Vector_6" fill="#add8e6" d="m162.445805 265.18928 2.4469149999999997 5.064545000000001 5.57669 0.7966700000000001 -4.040255 3.926445 0.967385 5.573695 -4.950735 -2.61763 -5.00764 2.61763 0.967385 -5.573695 -4.040255 -3.926445 5.57669 -0.7966700000000001 2.50382 -5.064545000000001Z" stroke-width="1"></path><path id="Vector_7" fill="#add8e6" d="m505.92139000000003 477.15741 -20.94104 -3.015965 -9.33242 -18.949365 -9.33242 18.949365 -20.94104 3.015965 15.136730000000002 14.795300000000001 -3.5850150000000003 20.82723 18.721745000000002 -9.844565 18.721745000000002 9.844565 -3.5850150000000003 -20.82723 15.136730000000002 -14.795300000000001Z" stroke-width="1"></path></g><g id="color 1"><path id="Vector_8" fill="#41175e" d="M287.23847 151.26547c0.2692505 1.310612 0.40282750000000006 2.6454835 0.39833500000000005 3.98335l3.12678 -6.03193c-1.1144395 0.782294 -2.293571 1.4678495 -3.5251150000000004 2.0485800000000003Z" stroke-width="1"></path><path id="Vector_9" fill="#41175e" d="M279.1013545 279.46944c-1.536435 7.6252699999999995 -5.7474050000000005 4.723115 -8.934085000000001 -3.357395 2.9054495 1.3028250000000001 5.889368 2.424153 8.934085000000001 3.357395Z" stroke-width="1"></path><path id="Vector_10" fill="#41175e" d="M274.6627645 248.86054000000001c-1.4049545 0.351014 -2.866814 0.41031500000000004 -4.2957285 0.174908 -1.428615 -0.235407 -2.7943350000000002 -0.76073 -4.0124015 -1.543623 1.308815 -7.292825000000001 5.064545000000001 -5.85822 8.30813 1.3687150000000001Z" stroke-width="1"></path><path id="Vector_11" fill="#ffffff" d="m238.243265 169.36126000000002 -15.9900055 26.1763c-0.13447550000000003 0.20366000000000004 -0.18239550000000002 0.45254450000000007 -0.13387649999999998 0.6915455 0.048818499999999994 0.239001 0.1901825 0.44925 0.3932435 0.5843245 0.2033605 0.13507450000000001 0.451646 0.1841925 0.6909465 0.136572 0.2393005 -0.047920000000000004 0.4501485 -0.1883855 0.5861215000000001 -0.391147l18.038885 -24.807585c0.171913 -0.234808 0.2944085 -0.5022615 0.3602985 -0.7858880000000001 0.06589 -0.2836265 0.073677 -0.5774360000000001 0.022762 -0.8640574999999999 -0.05091500000000001 -0.286921 -0.15903450000000002 -0.560065 -0.31836850000000005 -0.8038580000000001 -0.159334 -0.243793 -0.366588 -0.45254450000000007 -0.6088835 -0.6139749999999999 -0.241996 -0.16173 -0.514541 -0.2722455 -0.8008630000000001 -0.325856 -0.2860225 -0.053311000000000004 -0.5801315 -0.0482195 -0.8643570000000002 0.015274500000000002 -0.2842255 0.0631945 -0.5525775 0.18359350000000002 -0.7888830000000001 0.35341 -0.236605 0.1698165 -0.436072 0.385756 -0.5870200000000001 0.6349400000000001Z" stroke-width="1"></path><path id="Vector_12" fill="#41175e" d="M279.61349950000005 145.518065c0.0242595 0.7460545 0.3375365 1.4534735 0.8736415000000001 1.9728065 0.5364045000000001 0.519333 1.2537070000000001 0.8095485 2.000061 0.8095485 0.7466535 0 1.4636565000000001 -0.2902155 2.000061 -0.8095485 0.5364045000000001 -0.519333 0.8496815000000001 -1.226752 0.8736415000000001 -1.9728065 -0.023960000000000002 -0.7460545 -0.337237 -1.4534735 -0.8736415000000001 -1.9728065 -0.5364045000000001 -0.519333 -1.2534075 -0.8095485 -2.000061 -0.8095485 -0.7463540000000001 0 -1.4636565000000001 0.2902155 -2.000061 0.8095485 -0.5361049999999999 0.519333 -0.8493820000000001 1.226752 -0.8736415000000001 1.9728065Z" stroke-width="1"></path><path id="Vector_13" fill="#41175e" d="m320.126565 333.07394999999997 -9.104800000000001 14.90911 -0.853575 -32.663470000000004c3.01297 6.08584 6.334425000000001 12.012945 9.958375 17.754360000000002Z" stroke-width="1"></path><path id="Vector_14" fill="#41175e" d="m458.235 265.072475 -6.373360000000001 7.286835c11.959035 5.2514330000000005 21.914415 14.207681000000001 28.395595 25.547349999999998 4.345745 -3.1186935 9.197645000000001 -5.4667735 14.340060000000001 -6.942410000000001 17.137390000000003 -6.7282675 33.427195 -15.436829000000001 48.539965 -25.94868 -16.61626 -5.51679 -67.77385500000001 -1.422625 -84.90226 0.056905Z" stroke-width="1"></path><path id="Vector_15" fill="#41175e" d="M327.69792500000005 483.18934c-10.227925 7.96071 -22.24087 13.312775000000002 -34.99957 15.591970000000002l2.051575 3.243585c3.6988250000000003 5.7474050000000005 4.154065 12.06386 4.7201200000000005 18.89246 2.105485 18.296455 6.32544 36.28742 12.579 53.610499999999995 9.67385 -14.675500000000001 18.835555 -65.156225 21.794615 -82.113915l-6.14574 -9.2246Z" stroke-width="1"></path><path id="Vector_16" fill="#41175e" d="M329.45 99.36811c0 -12.06386 -8.418945 -27.42821 -20.53971 -27.42821 -12.066855 0 -22.534380000000002 11.722430000000001 -24.016905 23.501765000000002 -0.380964 3.068677 0.0775705 6.183177499999999 1.326785 9.011955 -3.5975940000000004 0.386355 -6.975355 1.9212924999999998 -9.632519 4.3771925000000005 -2.6574635 2.4561995000000003 -4.452966 5.7027795 -5.120851 9.2590425l1.476535 -0.056905c-0.41870100000000005 4.02528 -0.612777 8.070926 -0.58103 12.117770000000002 2.440925 -21.71375 14.891140000000002 -13.528415 18.733725 -5.06155 0.8985 -4.4385900000000005 3.1866800000000004 -7.568365000000001 5.86421 -7.568365000000001h8.02061c0.8685499999999999 0.0320465 1.7041549999999999 0.33004900000000004 2.3960000000000004 0.853575 -0.080865 -0.374375 -0.16772 -0.73078 -0.25756999999999997 -1.08419 11.971015 -0.1198 22.330720000000003 -5.981015 22.330720000000003 -17.92208Z" stroke-width="1"></path></g><g id="outlines"><path id="Vector_17" stroke="#ffffff" stroke-linejoin="round" d="M329.45 99.36811c0 -12.06386 -8.418945 -27.42821 -20.53971 -27.42821 -12.066855 0 -22.534380000000002 11.722430000000001 -24.016905 23.501765000000002 -0.380964 3.068677 0.0775705 6.183177499999999 1.326785 9.011955 -3.5975940000000004 0.386355 -6.975355 1.9212924999999998 -9.632519 4.3771925000000005 -2.6574635 2.4561995000000003 -4.452966 5.7027795 -5.120851 9.2590425l1.476535 -0.056905c-0.41870100000000005 4.02528 -0.612777 8.070926 -0.58103 12.117770000000002 2.440925 -21.71375 14.891140000000002 -13.528415 18.733725 -5.06155 0.8985 -4.4385900000000005 3.1866800000000004 -7.568365000000001 5.86421 -7.568365000000001h8.02061c0.8685499999999999 0.0320465 1.7041549999999999 0.33004900000000004 2.3960000000000004 0.853575 -0.080865 -0.374375 -0.16772 -0.73078 -0.25756999999999997 -1.08419 11.971015 -0.1198 22.330720000000003 -5.981015 22.330720000000003 -17.92208Z" stroke-width="1"></path><path id="Vector_18" stroke="#ffffff" stroke-linecap="round" stroke-linejoin="round" d="M273.58127 481.425285c-38.261724 -5.453895 -73.7024575 -23.235210000000002 -100.94947000000002 -50.645450000000004" stroke-width="1"></path><path id="Vector_19" stroke="#ffffff" stroke-linecap="round" stroke-linejoin="round" d="M475.64793 326.01773000000003c-4.49849 37.80888 -20.985965 73.18582 -47.045460000000006 100.94647499999999 -26.06249 27.760655 -60.32529 46.44646 -97.777765 53.322979999999994" stroke-width="1"></path><path id="Vector_20" stroke="#ffffff" stroke-linecap="round" stroke-linejoin="round" d="M457.267615 223.76244000000003c5.3610500000000005 10.4145135 9.670855000000001 21.3384765 12.860529999999999 32.60956" stroke-width="1"></path><path id="Vector_21" stroke="#ffffff" stroke-linecap="round" stroke-linejoin="round" d="M125.51446000000001 354.81166V296.256415h46.206860000000006c2.1447195 0 4.201386 -0.8520774999999999 5.718054 -2.368446 1.5163685 -1.516668 2.368446 -3.5733345 2.368446 -5.718054V257.507105c0 -1.0605295000000001 -0.20935050000000002 -2.110277 -0.6160715 -3.0896420000000004 -0.4070205 -0.9790655000000001 -1.0030255 -1.8685805000000002 -1.7544710000000001 -2.6167315 -0.7511460000000001 -0.748151 -1.643057 -1.3408615 -2.6239195 -1.7436890000000003 -0.9808625000000001 -0.40282750000000006 -2.0315085 -0.6076855 -3.092038 -0.6034925000000001H66.21945c-1.063824 0.0008985 -2.1171655 0.211447 -3.0995255 0.6202645 -0.9823600000000001 0.408518 -1.8745705000000001 1.0069190000000001 -2.6251175 1.76106 -0.7508465 0.7538414999999999 -1.345354 1.6484480000000001 -1.7493794999999999 2.6326050000000003 -0.40432500000000005 0.9844565 -0.6103810000000001 2.0386965 -0.6064875000000001 3.1025205000000002v30.605905c0 2.1447195 0.8520774999999999 4.201386 2.368446 5.718054 1.516668 1.5163685 3.5733345 2.368446 5.718054 2.368446h46.20087V359.6995" stroke-width="1"></path><path id="Vector_22" stroke="#ffffff" stroke-linecap="round" stroke-linejoin="round" d="M125.5147595 390.54800000000006v-13.77101" stroke-width="1"></path><path id="Vector_23" stroke="#ffffff" stroke-linecap="round" stroke-linejoin="round" d="M112.4266095 397.52036000000004v33.373285h13.08815v-37.5573" stroke-width="1"></path><path id="Vector_24" stroke="#ffffff" stroke-linecap="round" stroke-linejoin="round" d="M125.5147595 324.3585h45.296380000000006c5.191533000000001 0 10.170720500000002 2.063555 13.841692 5.73243 3.6709715000000003 3.67187 5.733628 8.652555 5.733628 13.84289v67.31861500000001c0.0014975000000000001 5.196325000000001 -2.059362 10.177010000000001 -5.730034 13.854870000000002 -3.670672 3.6748650000000005 -8.650458500000001 5.74441 -13.845286 5.7504h-103.68091000000001c-2.5694105 0.0029950000000000003 -5.114262 -0.5001650000000001 -7.488698 -1.482525 -2.3747355000000003 -0.979365 -4.532633000000001 -2.41996 -6.350897499999999 -4.23493 -1.817965 -1.81497 -3.260357 -3.9713700000000003 -4.244514000000001 -6.3434099999999995 -0.9841570000000001 -2.375035 -1.490911 -4.91779 -1.4912105 -7.487500000000001v-67.3875c0 -5.190335 2.062357 -10.17102 5.7333285 -13.84289 3.6709715000000003 -3.6688750000000003 8.650159 -5.73243 13.841991499999999 -5.73243H112.42631" stroke-width="1"></path><path id="Vector_25" stroke="#ffffff" stroke-linecap="round" stroke-linejoin="round" d="M119.31181500000001 387.25350000000003c6.7687 -0.53311 6.942410000000001 -8.772355 0.39833500000000005 -8.706465 -4.8938299999999995 0.05091500000000001 -8.30813 0.23061500000000001 -12.177669999999999 0.39833500000000005 -6.48717 0.29950000000000004 -6.42727 8.934085000000001 -1.081195 9.161705000000001 4.2987235 -0.062895 8.591157500000001 -0.35041500000000003 12.860529999999999 -0.853575v0Z" stroke-width="1"></path><path id="Vector_26" stroke="#ffffff" stroke-linecap="round" stroke-linejoin="round" d="M114.2655395 359.762395c-2.3420900000000002 -0.056905 -4.088175000000001 -0.056905 -6.2895 -0.056905 -6.202645 -0.056905 -6.4302649999999995 8.592655 -1.308815 9.104800000000001 2.5777965000000003 0.170715 5.1642785 0.170715 7.742075 0" stroke-width="1"></path><path id="Vector_27" stroke="#ffffff" stroke-linecap="round" stroke-linejoin="round" d="M120.8485495 396.538c6.541080000000001 -0.7128099999999999 6.544075 -8.64956 0.22762 -8.42194 -4.723115 0.170715 -8.023605 0.46123000000000003 -11.779335 0.739765 -6.25955 0.464225 -6.03193 8.802305 -0.853575 8.877180000000001 4.1531665 -0.1797 8.2940535 -0.5780350000000001 12.40529 -1.195005v0Z" stroke-width="1"></path><path id="Vector_28" stroke="#ffffff" stroke-linecap="round" stroke-linejoin="round" d="M114.43026449999999 368.98400000000004c-2.46189 0.0599 -4.597325 0.28452500000000003 -7.0112950000000005 0.33843500000000004 -6.589 0.170715 -6.711795 8.946065 -1.25191 9.284500000000001 3.2945 0.200665 6.771695 -0.22762 13.08815 -0.5690500000000001 0.942826 0.026955 1.86888 -0.25457500000000005 2.638595 -0.7996650000000001 0.7700145 -0.54509 1.342359 -1.32379 1.6307775 -2.22229 0.28871800000000003 -0.8985 0.2782355 -1.865885 -0.02995 -2.758395 -0.3081855 -0.889515 -0.8970025 -1.6592300000000002 -1.6786975 -2.18635" stroke-width="1"></path><path id="Vector_29" stroke="#ffffff" stroke-linecap="round" stroke-linejoin="round" d="M190.3864595 365.28218c-3.243585 0.39833500000000005 -34.939969500000004 1.1980000000000002 -51.783849499999995 0.967385 -3.8126349999999998 -0.05391 -3.483185 -6.136755 -4.4925 -7.682175 -2.6955 -4.130105 -3.52811 -4.106145 -11.60862 -3.594 -9.503135 0.5990000000000001 -8.6282955 1.0242900000000001 -7.909495499999999 17.29912 0.176705 3.98335 7.113125 4.4385900000000005 8.42194 -8.194320000000001 -1.081195 9.730755 3.357395 16.388640000000002 9.90147 18.494125" stroke-width="1"></path><path id="Vector_30" stroke="#ffffff" stroke-linecap="round" stroke-linejoin="round" d="M190.3864595 399.31137c-8.194320000000001 -0.22762 -43.47542 -0.45524 -64.8717 -0.853575" stroke-width="1"></path><path id="Vector_31" stroke="#ffffff" stroke-linecap="round" stroke-linejoin="round" d="m75.4952645 265.18928 2.50382 5.064545000000001 5.57669 0.7966700000000001 -4.040255 3.926445 0.967385 5.573695 -5.00764 -2.61763 -4.950735 2.61763 0.91048 -5.573695 -3.98335 -3.926445 5.57669 -0.7966700000000001 2.4469149999999997 -5.064545000000001Z" stroke-width="1"></path><path id="Vector_32" stroke="#ffffff" stroke-linecap="round" stroke-linejoin="round" d="m97.2329745 265.18928 2.50382 5.064545000000001 5.57669 0.7966700000000001 -4.040255 3.926445 0.967385 5.573695 -5.00764 -2.61763 -4.950735 2.61763 0.91048 -5.573695 -4.040255 -3.926445 5.57669 -0.7966700000000001 2.50382 -5.064545000000001Z" stroke-width="1"></path><path id="Vector_33" stroke="#ffffff" stroke-linecap="round" stroke-linejoin="round" d="m118.97038500000001 265.18928 2.50382 5.064545000000001 5.57669 0.7966700000000001 -4.040255 3.926445 0.967385 5.573695 -5.00764 -2.61763 -5.00764 2.61763 0.967385 -5.573695 -4.040255 -3.926445 5.57669 -0.7966700000000001 2.50382 -5.064545000000001Z" stroke-width="1"></path><path id="Vector_34" stroke="#ffffff" stroke-linecap="round" stroke-linejoin="round" d="m140.7083945 265.18928 2.50382 5.064545000000001 5.57669 0.7966700000000001 -4.040255 3.926445 0.91048 5.573695 -4.950735 -2.61763 -5.00764 2.61763 0.967385 -5.573695 -4.040255 -3.926445 5.57669 -0.7966700000000001 2.50382 -5.064545000000001Z" stroke-width="1"></path><path id="Vector_35" stroke="#ffffff" stroke-linecap="round" stroke-linejoin="round" d="m162.445805 265.18928 2.4469149999999997 5.064545000000001 5.57669 0.7966700000000001 -4.040255 3.926445 0.967385 5.573695 -4.950735 -2.61763 -5.00764 2.61763 0.967385 -5.573695 -4.040255 -3.926445 5.57669 -0.7966700000000001 2.50382 -5.064545000000001Z" stroke-width="1"></path><path id="Vector_36" stroke="#ffffff" stroke-linecap="round" stroke-linejoin="round" d="M473.0303 195.822085c-6.771695 -0.236605 -7.340745 -8.42194 -0.7966700000000001 -8.64956 4.8938299999999995 -0.170715 8.30813 -0.11381 12.234575 -0.11381 6.48717 0 6.825605 8.6855 1.47953 9.104800000000001 -3.243585 0.260565 -6.657885 -0.12279500000000002 -12.917435 -0.34143Z" stroke-width="1"></path><path id="Vector_37" stroke="#ffffff" stroke-linecap="round" stroke-linejoin="round" d="M473.59935 204.64236000000002c-6.541080000000001 -0.715805 -6.544075 -8.64956 -0.22762 -8.42194 4.723115 0.170715 5.292165 0.1198 8.985 0.39833500000000005 6.25955 0.46722 6.03193 8.79931 0.853575 8.877180000000001 -3.219625 -0.0518135 -6.433260000000001 -0.337237 -9.610955 -0.853575v0Z" stroke-width="1"></path><path id="Vector_38" stroke="#ffffff" stroke-linecap="round" stroke-linejoin="round" d="M451.008065 191.61111499999998c9.44623 1.1980000000000002 16.104115 -11.267190000000001 12.120764999999999 -20.087465 0 0 -0.45524 -7.454555 -2.0485800000000003 -18.835555s-7.85289 -12.177669999999999 -7.682175 -9.44623c0.170715 2.73144 -1.93477 17.80827 -4.21097 22.249855 -2.4469149999999997 4.777025 -9.90147 4.872865 -13.884820000000001 4.8938299999999995 -11.494810000000001 0.056905 -48.483059999999995 -2.2192950000000002 -48.483059999999995 -2.2192950000000002" stroke-width="1"></path><path id="Vector_39" stroke="#ffffff" stroke-linecap="round" stroke-linejoin="round" d="M387.160655 208.05666000000002c11.437905 -0.34143 86.89393500000001 -1.6502450000000002 95.25897 -2.50382" stroke-width="1"></path><path id="Vector_40" stroke="#ffffff" stroke-linecap="round" stroke-linejoin="round" d="M473.77006500000005 177.95391500000002c-6.544075 0.560065 -8.086500000000001 -7.214955 -1.82096 -8.194320000000001 4.669205 -0.73078 7.9667 -1.087185 11.722430000000001 -1.536435 6.25955 -0.74875 7.61329 7.445570000000001 2.50382 8.53575 -4.112135 0.6106805000000001 -8.251225 1.0096145 -12.40529 1.195005Z" stroke-width="1"></path><path id="Vector_41" stroke="#ffffff" stroke-linecap="round" stroke-linejoin="round" d="M472.68887 187.058715c-6.589 0.0599 -7.5114600000000005 -7.849895 -1.1381000000000001 -8.30813 4.723115 -0.34143 11.6805 -0.560065 15.421255 -0.68286 6.25955 -0.20965000000000003 7.0023100000000005 8.110460000000002 1.82096 8.706465 -3.12678 0.3594 -10.072185000000001 0.22762 -16.104115 0.28452500000000003Z" stroke-width="1"></path><path id="Vector_42" stroke="#ffffff" stroke-linecap="round" stroke-linejoin="round" d="M462.161445 161.337655c0.739765 8.706465 1.1381000000000001 8.086500000000001 21.51009 6.8885" stroke-width="1"></path><path id="Vector_43" stroke="#ffffff" stroke-linecap="round" stroke-linejoin="round" d="M510.07545500000003 132.2592c5.190335 0 10.17102 2.062357 13.84289 5.733628 3.6688750000000003 3.6709715000000003 5.73243 8.6498595 5.73243 13.841692v52.295694999999995c0.0029950000000000003 5.194528 -2.0605599999999997 10.1773095 -5.7294350000000005 13.853073 -3.67187 3.6757635000000004 -8.652555 5.743811 -13.845885 5.749202h-103.68091000000001c-2.56971 0.0038935 -5.11546 -0.49866750000000004 -7.4934899999999995 -1.4786315 -2.375035 -0.9802635 -4.53443 -2.418762 -6.35539 -4.233732 -1.82096 -1.81497 -3.2645500000000003 -3.9707710000000005 -4.2529 -6.3443085 -0.9883500000000001 -2.3735375 -1.4975 -4.9180895 -1.5004950000000001 -7.488698V151.84650000000002c-0.0029950000000000003 -2.569111 0.5001650000000001 -5.113663 1.47953 -7.488398500000001 0.9823600000000001 -2.3747355000000003 2.41996 -4.532633000000001 4.23493 -6.350598000000001 1.81497 -1.8182645 3.9713700000000003 -3.2606565 6.3434099999999995 -4.2448135 2.375035 -0.9841570000000001 4.91779 -1.4912105 7.487500000000001 -1.4915100000000001l103.73781500000001 -0.011980000000000001Z" stroke-width="1"></path><path id="Vector_44" stroke="#ffffff" stroke-linecap="round" stroke-linejoin="round" d="M287.23847 151.26547c1.23993 -0.5645575 2.4208585 -1.250712 3.5251150000000004 -2.0485800000000003l-3.12678 6.03193" stroke-width="1"></path><path id="Vector_45" stroke="#ffffff" stroke-linecap="round" stroke-linejoin="round" d="M297.7629 140.85185500000003c0.25996600000000003 4.868073 1.397467 9.6489915 3.357395 14.11244 1.87487 4.392467 5.028605000000001 8.120044 9.047895 10.69814 4.717125 2.854235 21.45618 2.6146350000000003 28.111069999999998 14.795300000000001 6.034925 11.036575000000001 12.80063 47.003530000000005 15.8735 68.05838 0.62296 4.2774589999999995 -0.24858500000000003 8.638179 -2.46788 12.347786 -2.2192950000000002 3.7099064999999998 -5.64857 6.541679 -9.70979 8.018214 -21.23455 7.476119000000001 -43.252592 12.514308 -65.62644 15.016930000000002" stroke-width="1"></path><path id="Vector_46" stroke="#ffffff" stroke-linecap="round" stroke-linejoin="round" d="M291.11400000000003 125.08917c-3.9234500000000003 -8.64956 -16.19696 -18.04188 -18.206605 5.46288 -0.621762 4.9941625 -0.3908475 10.0581085 0.68286 14.975000000000001 2.500825 9.21861 9.44623 7.73908 13.6572 5.7474050000000005 0.2692505 1.310612 0.402528 2.6454835 0.39833500000000005 3.98335 0.197071 2.5220895 -0.45853450000000007 5.03759 -1.8619915000000002 7.142475999999999 -1.4034570000000002 2.1051855 -3.473002 3.67786 -5.8770885 4.466144000000001 -3.76172 1.296835 -20.0665 2.776365 -28.054165000000005 22.363665 -2.626615 6.42727 -4.21097 14.169345 -7.170030000000001 20.258180000000003" stroke-width="1"></path><path id="Vector_47" stroke="#ffffff" stroke-linecap="round" stroke-linejoin="round" d="m309.03009000000003 211.92620000000002 4.66621 23.501765000000002 -44.55362 7.28384" stroke-width="1"></path><path id="Vector_48" stroke="#ffffff" stroke-linecap="round" stroke-linejoin="round" d="M274.662465 248.86054000000001c-2.530775 0.530714 -5.165177 0.2303155 -7.5114600000000005 -0.8565699999999999 -3.98335 -2.560725 -6.8885 -9.053885000000001 -10.01528 -17.64055 -4.4925 -12.24356 -5.12145 -7.05622 -5.633595000000001 -2.3960000000000004 -0.464225 2.31813 1.00632 15.91543 -4.609305 12.746720000000002 -7.209564 -6.603975 -15.042088000000001 -12.4936425 -23.387955 -17.58664 -10.6622 -5.537755 -11.3211 -2.50981 -3.1866800000000004 4.950735 2.4996270000000003 2.2788955 4.8743625 4.691368000000001 7.113125 7.226935 2.7251505000000003 3.0611895000000002 5.252930500000001 6.292195500000001 7.568365000000001 9.67385 3.44425 5.53476 9.787659999999999 15.98731 17.52674 21.28247 8.1982135 5.619219 17.14338 10.062002 26.574635 13.198965000000001" stroke-width="1"></path><path id="Vector_49" stroke="#ffffff" stroke-linecap="round" stroke-linejoin="round" d="M243.8771595 258.01925c-3.4143 -5.80431 -13.723090000000001 -11.830250000000001 -18.65286 -16.322750000000003 -3.363385 -3.0668800000000003 -9.742735000000001 -7.487500000000001 -13.42958 -10.69814 -0.913475 -0.793675 -0.5690500000000001 -2.95906 6.4302649999999995 0.11381 1.554405 0.6888500000000001 6.903475000000001 3.07287 9.30846 4.3128" stroke-width="1"></path><path id="Vector_50" stroke="#ffffff" stroke-linecap="round" stroke-linejoin="round" d="M224.81668 241.33111000000002c-1.230945 -0.33544 -2.28818 -0.5990000000000001 -2.848245 -0.72479 -7.3976500000000005 -1.8778650000000001 -7.400645000000001 0.34442500000000004 -6.373360000000001 0.967385 4.14508 2.5158 11.222265 5.897155000000001 15.022920000000001 8.365035 5.5796850000000004 3.2199245 10.872449 6.9133585 15.81959 11.03957" stroke-width="1"></path><path id="Vector_51" stroke="#ffffff" stroke-linecap="round" stroke-linejoin="round" d="M266.36332000000004 247.43492c1.06023 -5.81629 3.6988250000000003 -6.016955 6.373360000000001 -2.0965 5.2712 7.700145000000001 8.985 28.56631 5.6905 36.473110000000005 -1.87487 4.513465 -5.46288 1.410645 -8.26021 -5.6905" stroke-width="1"></path><path id="Vector_52" stroke="#ffffff" stroke-linecap="round" stroke-linejoin="round" d="m265.15933 273.72503 3.5853145000000004 11.264195 -52.23879 -14.28016 -28.794229500000004 -83.365825 54.401180000000004 14.055534999999999 9.275515 29.13536" stroke-width="1"></path><path id="Vector_53" stroke="#ffffff" stroke-linecap="round" stroke-linejoin="round" d="m211.611725 193.54588500000003 -2.902155 -10.527425000000001 8.251225 1.991675 1.8778650000000001 10.413615" stroke-width="1"></path><path id="Vector_54" stroke="#ffffff" stroke-linecap="round" stroke-linejoin="round" d="M293.5552245 139.03089500000002c-2.4028885 2.2965660000000003 -5.2229805 4.112135 -8.30813 5.34907" stroke-width="1"></path><path id="Vector_55" stroke="#ffffff" stroke-linecap="round" stroke-linejoin="round" d="M262.31437950000003 203.674975s-1.129115 15.786645 5.23526 27.2545l6.14574 11.03957" stroke-width="1"></path><path id="Vector_56" stroke="#ffffff" stroke-linecap="round" stroke-linejoin="round" d="m279.8051795 283.521675 -44.805200000000006 88.247675c-2.360659 4.6722 -3.6985255000000006 9.79365 -3.924049 15.022920000000001 -0.225823 5.232265000000001 0.6657885 10.449555 2.615234 15.307445 14.0809925 34.15498 31.282176000000003 66.941245 51.385215 97.93650000000001 24.579665499999997 -3.4143 45.349990500000004 -13.42958 57.6414705 -34.768955 -21.453185 -29.875125 -39.435165 -58.213815000000004 -51.950970500000004 -83.99178l29.3507005 -48.198535c12.003960000000001 18.47316 25.703090000000003 35.79025 40.914695 51.726645000000005 5.2801849999999995 5.59466 12.47118 8.999975 20.147365 9.53608 7.67319 0.5391 15.271505000000001 -1.829945 21.279475 -6.633925 29.180285 -23.28912 57.13262 -47.57258 84.90226 -71.88 -2.25823 -10.215945 -7.047235000000001 -19.7014095 -13.923755 -27.584848500000003 -6.8795150000000005 -7.8837385 -15.62791 -13.912973000000001 -25.445520000000002 -17.5348265l-59.932945 58.513315c-15.574000000000002 -46.62616 -33.391255 -59.423795000000005 -41.244145 -62.895" stroke-width="1"></path><path id="Vector_57" stroke="#ffffff" stroke-linecap="round" stroke-linejoin="round" d="m311.021765 347.98306 -0.7966700000000001 -32.663470000000004c2.97104 6.0978200000000005 6.274525000000001 12.024925 9.90147 17.754360000000002" stroke-width="1"></path><path id="Vector_58" stroke="#ffffff" stroke-linecap="round" stroke-linejoin="round" d="M458.235 265.072475c17.0715 -1.47354 67.89066 -5.543745 84.75850000000001 -0.062895" stroke-width="1"></path><path id="Vector_59" stroke="#ffffff" stroke-linecap="round" stroke-linejoin="round" d="m451.80473500000005 272.35931 13.372675 -15.193635000000002c27.200590000000002 -4.609305 71.188155 -5.57669 86.256 1.8778650000000001 -16.50844 12.066855 -37.737 25.13404 -56.84809500000001 31.92071 -5.142415000000001 1.4759360000000001 -9.99132 3.8243155 -14.340060000000001 6.942410000000001" stroke-width="1"></path><path id="Vector_60" stroke="#ffffff" stroke-linecap="round" stroke-linejoin="round" d="m327.58112 483.132435 12.120764999999999 18.038885c-2.50382 27.485115 -12.860529999999999 70.277675 -23.96 82.85368000000001 -8.28417 -20.19229 -13.759030000000001 -41.426840000000006 -16.27483 -63.107645000000005 -0.560065 -6.8286 -1.021295 -13.145055000000001 -4.7201200000000005 -18.89246l-2.0965 -3.2945" stroke-width="1"></path><path id="Vector_61" stroke="#ffffff" stroke-linecap="round" stroke-linejoin="round" d="M218.212705 191.83873499999999s9.104800000000001 -2.61763 16.559355 7.682175" stroke-width="1"></path><path id="Vector_62" stroke="#ffffff" stroke-linecap="round" stroke-linejoin="round" d="M271.0208445 169.531975c-0.6448235 0.411513 -1.1404960000000002 1.0185995 -1.4145385000000001 1.7326075 -0.2740425 0.714008 -0.312079 1.4972005000000002 -0.10841900000000002 2.23427 0.20366000000000004 0.737369 0.638534 1.38968 1.2402295 1.8616920000000001 0.6019950000000001 0.472012 1.339364 0.7385670000000001 2.103688 0.7604305000000001 0.6346405 -0.0029950000000000003 1.256702 -0.1797 1.7981980000000002 -0.5106475 0.5417955 -0.3309475 0.9823600000000001 -0.8038580000000001 1.274672 -1.3672175000000002 -2.0554685 -1.0599305 -3.756329 -2.6975965 -4.8938299999999995 -4.711135v0Z" stroke-width="1"></path><path id="Vector_63" stroke="#ffffff" stroke-linecap="round" stroke-linejoin="round" d="M275.74366 175.677715c-0.0026955 0.8146400000000001 0.282129 1.6044215 0.8041575000000001 2.2297775000000004 0.5220285 0.6256555 1.2480165 1.047052 2.0500775 1.190213 0.802061 0.143161 1.6289805000000002 -0.001198 2.3352014999999997 -0.4076195 0.7059215 -0.4064215 1.2462195 -1.0488490000000001 1.5253535 -1.8143710000000002 -2.1932385 -0.7442575 -4.3406535 -1.618498 -6.4302649999999995 -2.61763 -0.20246199999999998 0.44505700000000004 -0.2997995 0.9308460000000001 -0.28452500000000003 1.41963Z" stroke-width="1"></path><path id="Vector_64" stroke="#ffffff" stroke-linecap="round" stroke-linejoin="round" d="M282.28803450000004 177.903c-0.002396 0.857768 0.3111805 1.6861849999999998 0.8808294999999999 2.3274145 0.5696490000000001 0.6412295 1.355537 1.0500470000000002 2.207315 1.1485825 0.8520774999999999 0.0985355 1.7107440000000003 -0.1200995 2.4115740000000003 -0.6142745000000001 0.7011295000000001 -0.4944745 1.1953045 -1.2294475 1.3887815000000001 -2.0650525 -2.274403 -0.440265 -4.517658 -1.029681 -6.71479 -1.764055 -0.1177035 0.3087845 -0.17640550000000002 0.6370365 -0.17371 0.967385v0Z" stroke-width="1"></path><path id="Vector_65" stroke="#ffffff" stroke-linecap="round" stroke-linejoin="round" d="M288.9459195 179.205825c-0.032346 0.9101805000000001 0.29680449999999997 1.7961015 0.9155715000000001 2.4645855 0.6190665 0.6681845 1.4771340000000002 1.0644230000000001 2.3870150000000003 1.1018605000000001 0.9101805000000001 0.037737 1.7981980000000002 -0.286322 2.4699765 -0.901495 0.6717785000000001 -0.6148735000000001 1.0731085 -1.470545 1.115937 -2.380426 -2.293571 -0.112612 -4.575162000000001 -0.3980355 -6.825605 -0.853575 0.008985 0.164725 -0.062895 0.39833500000000005 -0.062895 0.5690500000000001Z" stroke-width="1"></path><path id="Vector_66" stroke="#ffffff" stroke-linecap="round" stroke-linejoin="round" d="M295.8883295 179.49035c-0.0002995 0.8958045 0.351613 1.7556690000000001 0.9796645 2.3945025 0.6280515 0.638534 1.481926 1.0048225000000002 2.3777305 1.0197975000000001 0.46692050000000007 0.004792 0.9281505000000001 -0.0883525 1.3594305000000002 -0.2734435 0.42828499999999997 -0.185091 0.8116450000000001 -0.458235 1.129115 -0.801462 0.314475 -0.343227 0.5570700000000001 -0.7490495 0.70682 -1.1911115 0.14975000000000002 -0.4423615 0.20366000000000004 -0.9110790000000001 0.16173 -1.3759029999999999 -2.2282800000000003 0.246189 -4.473931 0.322262 -6.714490499999999 0.22762v0Z" stroke-width="1"></path><path id="Vector_67" stroke="#ffffff" stroke-linecap="round" stroke-linejoin="round" d="M306.18484 182.096c0.5391 -0.001797 1.069215 -0.128186 1.5514100000000002 -0.3686845 0.48219500000000004 -0.240798 0.901495 -0.5897155 1.2279499999999999 -1.0191985000000001 0.32346 -0.429483 0.54509 -0.92845 0.64692 -1.4576665000000002 0.098835 -0.5289170000000001 0.07487500000000001 -1.0743065 -0.068885 -1.5930405 -2.19833 0.7457550000000001 -4.46854 1.2605955 -6.771695 1.536435 0.134775 0.8083505 0.554075 1.5427245 1.177035 2.073738 0.625955 0.5310135 1.416635 0.8242240000000001 2.2372650000000003 0.8284170000000001v0Z" stroke-width="1"></path><path id="Vector_68" stroke="#ffffff" stroke-linecap="round" stroke-linejoin="round" d="M312.72891500000003 179.888685c0.6079850000000001 0.000599 1.2039900000000001 -0.1578365 1.7281149999999998 -0.460032 0.52712 -0.301896 0.9643900000000001 -0.7370695 1.2698800000000001 -1.2611945 0.30549 -0.524125 0.46722 -1.119531 0.470215 -1.7263180000000002 0.0029950000000000003 -0.6064875000000001 -0.152745 -1.203391 -0.452245 -1.7308105 -1.9767000000000001 1.2207620000000001 -4.073200000000001 2.2315745000000002 -6.25955 3.015965 0.272545 0.6364375 0.72479 1.1800300000000001 1.29983 1.563989 0.57504 0.38395900000000005 1.25191 0.591812 1.9437550000000001 0.5984010000000001v0Z" stroke-width="1"></path><path id="Vector_69" stroke="#ffffff" stroke-linecap="round" stroke-linejoin="round" d="M319.95585 168.962925c0.80266 0.24588950000000004 1.488515 0.7691159999999999 1.9377650000000002 1.4762355 0.44925 0.70682 0.631945 1.5508110000000002 0.5151399999999999 2.380426 -0.11381 0.8299145000000001 -0.524125 1.5909440000000001 -1.15008 2.1465165 -0.62895 0.5555725 -1.43161 0.8694485000000001 -2.27021 0.8853219999999999 -0.5900150000000001 0.048818499999999994 -1.183025 -0.0272545 -1.74309 -0.22342700000000001 -0.560065 -0.19587300000000002 -1.069215 -0.5076525000000001 -1.5004950000000001 -0.9146730000000001 1.89883 -1.5007945 3.3544000000000005 -3.4879770000000003 4.21097 -5.7504Z" stroke-width="1"></path><path id="Vector_70" stroke="#ffffff" stroke-linecap="round" stroke-linejoin="round" d="M425.51462499999997 80.58946v30.102745000000002" stroke-width="1"></path><path id="Vector_71" stroke="#ffffff" stroke-linecap="round" stroke-linejoin="round" d="M440.59445000000005 95.61238h-30.102745000000002" stroke-width="1"></path><path id="Vector_72" stroke="#ffffff" stroke-linecap="round" stroke-linejoin="round" d="M301.06339 138.17732c4.0702050000000005 6.241580000000001 10.2429 1.0242900000000001 10.2429 -8.985 0 -9.958375 -6.2116299999999995 -15.22059 -10.2429 -8.985 -1.47953 2.7634865 -2.2540370000000003 5.8501335 -2.2540370000000003 8.985s0.7745070000000001 6.221214 2.2540370000000003 8.985v0Z" stroke-width="1"></path><path id="Vector_73" stroke="#ffffff" stroke-linecap="round" stroke-linejoin="round" d="M305.04674 117.4639h-8.02061c-3.483185 0 -6.268535 5.265210000000001 -6.25955 11.722430000000001 0.008985 6.45722 2.788345 11.6805 6.25955 11.6805h7.514455" stroke-width="1"></path><path id="Vector_74" stroke="#ffffff" stroke-linecap="round" stroke-linejoin="round" d="M271.41888 118.14676c-2.73144 0.11381 -5.292165 5.519785 -4.95373 11.950050000000001 0.34442500000000004 6.14574 3.189675 11.0815 6.4302649999999995 11.324095000000002 -0.90449 -7.7528570000000006 -0.8670525 -15.586878500000001 0.110815 -23.33105l-1.58735 0.056905Z" stroke-width="1"></path><path id="Vector_75" stroke="#ffffff" stroke-linecap="round" stroke-linejoin="round" d="M272.38626500000004 117.748425c0.56306 -3.220224 2.2872815 -6.1220795 4.8462095000000005 -8.156583 2.5586284999999998 -2.0345035 5.77436 -3.0599915 9.0386105 -2.882987 3.2891090000000003 -0.10183000000000002 6.5174195 0.9026930000000001 9.168294 2.8524380000000003 2.650575 1.949745 4.569771 4.7323995000000005 5.453296 7.902607" stroke-width="1"></path><path id="Vector_76" stroke="#ffffff" stroke-linecap="round" stroke-linejoin="round" d="M157.9506095 54.98221c-0.601396 -0.6019950000000001 -1.3157035000000001 -1.079398 -2.1015915 -1.405254 -0.7858880000000001 -0.325856 -1.6283815 -0.493576 -2.479261 -0.493576s-1.693373 0.16772 -2.4795605 0.493576c-0.7858880000000001 0.325856 -1.5001955 0.8032590000000001 -2.101292 1.405254l-1.6502450000000002 1.70715 -1.6502450000000002 -1.70715c-1.2150715 -1.2147720000000002 -2.8629205 -1.8973324999999999 -4.580852500000001 -1.8973324999999999 -1.7182315000000001 0 -3.3660805 0.6825605 -4.580852500000001 1.8973324999999999 -1.2150715 1.2147720000000002 -1.8976320000000002 2.862621 -1.8976320000000002 4.580852500000001 0 1.7182315000000001 0.6825605 3.3660805 1.8976320000000002 4.580852500000001l10.81195 10.81195 10.81195 -10.81195c0.6016955 -0.601396 1.079398 -1.315404 1.405254 -2.1015915 0.3255565 -0.7858880000000001 0.49327650000000006 -1.6283815 0.49327650000000006 -2.479261s-0.16772 -1.693373 -0.49327650000000006 -2.479261c-0.325856 -0.7861875 -0.8035585 -1.5001955 -1.405254 -2.1015915v0Z" stroke-width="1"></path><path id="Vector_77" stroke="#ffffff" stroke-linecap="round" stroke-linejoin="round" d="m178.5022995 103.558115 22.645195 8.955050000000002 -8.76337 -22.462500000000002c5.445209500000001 -7.7639385 8.3299935 -17.034961000000003 8.251225 -26.51773 -0.31148 -27.15866 -24.588950000000004 -48.839465 -54.23645500000001 -48.55793500000001 -29.70441 0.29950000000000004 -53.52065 22.48047 -53.254095 49.56725 0.29950000000000004 32.0465 33.34633 54.458085000000004 66.408135 47.060435 6.757918000000001 -1.4918095 13.182193 -4.219056500000001 18.949365 -8.04457v0Z" stroke-width="1"></path><path id="Vector_78" stroke="#ffffff" stroke-linecap="round" stroke-linejoin="round" d="m505.92139000000003 477.15741 -20.94104 -3.015965 -9.33242 -18.949365 -9.33242 18.949365 -20.94104 3.015965 15.136730000000002 14.795300000000001 -3.5850150000000003 20.82723 18.721745000000002 -9.844565 18.721745000000002 9.844565 -3.5850150000000003 -20.82723 15.136730000000002 -14.795300000000001Z" stroke-width="1"></path><path id="Vector_79" stroke="#ffffff" stroke-linecap="round" stroke-linejoin="round" d="M311.30629 127.42227500000001c26.568645000000004 1.8143710000000002 52.385545 9.6154475 75.512935 22.818905" stroke-width="1"></path><path id="Vector_80" stroke="#ffffff" stroke-linecap="round" stroke-linejoin="round" d="M129.5550145 249.4835c10.0012035 -30.368102 27.9831835 -57.4887255 52.062983499999994 -78.5226105 24.0798 -21.0335855 53.371499 -35.2065245 84.80851650000001 -41.034794500000004" stroke-width="1"></path><path id="Vector_81" stroke="#ffffff" stroke-linecap="round" stroke-linejoin="round" d="m467.22599 282.143975 -32.43585 30.330365000000004" stroke-width="1"></path><path id="Vector_82" stroke="#ffffff" stroke-linecap="round" stroke-linejoin="round" d="m324.109915 485.35173000000003 -24.12772 -37.32968" stroke-width="1"></path><path id="Vector_83" stroke="#ffffff" stroke-linecap="round" stroke-linejoin="round" d="M326.89826 283.45279c4.381685 3.1857815000000005 9.365364999999999 5.444311000000001 14.648545 6.638118 5.283180000000001 1.1935075000000002 10.755045 1.2971345 16.080155 0.304292" stroke-width="1"></path><path id="Vector_84" stroke="#ffffff" stroke-linecap="round" stroke-linejoin="round" d="M140.7083945 458.2080450000001v6.6249400000000005" stroke-width="1"></path><path id="Vector_85" stroke="#ffffff" stroke-linecap="round" stroke-linejoin="round" d="M153.59558 471.098525h-6.6249400000000005" stroke-width="1"></path><path id="Vector_86" stroke="#ffffff" stroke-linecap="round" stroke-linejoin="round" d="M140.7083945 483.9860100000001v-6.6249400000000005" stroke-width="1"></path><path id="Vector_87" stroke="#ffffff" stroke-linecap="round" stroke-linejoin="round" d="M127.817615 471.098525h6.627935000000001" stroke-width="1"></path><path id="Vector_88" stroke="#ffffff" stroke-linecap="round" stroke-linejoin="round" d="M146.97064 471.098525c-0.8227265 0 -1.6376659999999998 -0.16173 -2.3980965 -0.47620500000000004 -0.7604305000000001 -0.314475 -1.451377 -0.7757050000000001 -2.033006 -1.356735 -0.5816290000000001 -0.584025 -1.042859 -1.272875 -1.3570345000000001 -2.033605 -0.314475 -0.76073 -0.47560600000000003 -1.5753700000000002 -0.47440800000000005 -2.398995 0.0014975000000000001 0.823625 -0.159334 1.638265 -0.47350949999999997 2.398995 -0.31387600000000004 0.76073 -0.775106 1.452575 -1.3570345000000001 2.033605 -0.5816290000000001 0.58103 -1.272875 1.045255 -2.0333055 1.35973 -0.7604305000000001 0.314475 -1.5756695 0.47321 -2.3986955 0.47321 0.8227265 0 1.6376659999999998 0.15873500000000001 2.3980965 0.47321 0.7601310000000001 0.314475 1.4510775 0.7757050000000001 2.033006 1.35973 0.5816290000000001 0.58103 1.042859 1.2698800000000001 1.357334 2.0306100000000002 0.3141755 0.76073 0.4753065 1.5753700000000002 0.4741085 2.398995 -0.000599 -0.823625 0.1608315 -1.638265 0.475007 -2.398995 0.314475 -0.757735 0.7757050000000001 -1.44958 1.3576335 -2.0306100000000002 0.5816290000000001 -0.58103 1.2722760000000002 -1.04226 2.032407 -1.356735 0.7601310000000001 -0.314475 1.5747710000000001 -0.47620500000000004 2.3974975 -0.47620500000000004v0Z" stroke-width="1"></path><path id="Vector_89" stroke="#ffffff" stroke-linecap="round" stroke-linejoin="round" d="M333.84067 492.40795c-2.94708 16.894795000000002 -12.05188 67.055055 -21.6838 81.94919" stroke-width="1"></path></g></g></svg>