<svg xmlns="http://www.w3.org/2000/svg" fill="none" viewBox="-0.5 -0.5 600 600" id="Investing--Streamline-Bangalore.svg" height="600" width="600"><desc>Investing Streamline Illustration: https://streamlinehq.com</desc><g id="Finances-Investing-01"><g id="color 2"><path id="Vector" fill="#add8e6" d="M507.901085 215.481265s-37.889745 27.934365 -54.10467500000001 54.050765000000006c-8.490825000000001 -9.135947999999999 -15.568010000000001 -19.4917595 -20.99495 -30.72271 -17.92208 -36.583925 -40.621185000000004 -37.138000000000005 -50.636465 -40.112035000000006 -6.42727 8.086500000000001 -18.54504 15.702785000000002 -29.29709 20.366 -7.3677 28.1922345 -12.093810000000001 57.0101245 -14.11244 86.079295 -0.380365 5.265210000000001 0.7876850000000001 10.52443 3.357395 15.133735l48.929315 86.256c11.863195 -3.2945 22.97165 -8.859210000000001 32.714385 -16.385645 -12.0399 -33.900405000000006 -22.06117 -65.25805500000001 -40.651135000000004 -87.211405 3.7078100000000003 -7.2029749999999995 8.847230000000001 -16.634230000000002 14.936065000000001 -29.365975 8.02061 13.477500000000001 21.5041 26.856165000000004 38.231175 39.37227 5.328105 3.968375 11.950050000000001 5.789335 18.55702 5.10348 6.6069700000000005 -0.6858550000000001 12.716770000000002 -3.8276100000000004 17.116425 -8.802305l61.954570000000004 -69.978175c-7.143075 -9.44623 -15.954365000000001 -17.5066735 -25.999595 -23.783295Z" stroke-width="1"></path><path id="Vector_2" fill="#add8e6" d="M142.30443000000002 232.20834c0.000599 5.086708 -1.507084 10.0593065 -4.332866500000001 14.2888455 -2.825483 4.2298385000000005 -6.841778000000001 7.526734500000001 -11.5412325 9.4734845 -4.699155 1.9470495 -9.870322 2.4567985 -14.859393 1.4648545 -4.989071 -0.991944 -9.5717205 -3.4412550000000004 -13.1687155 -7.037651 -3.5972945000000003 -3.5966955000000005 -6.046905000000001 -8.179345 -7.039448 -13.1681165 -0.992543 -4.9887715 -0.48339299999999996 -10.160238 1.4630575000000001 -14.859692500000001 1.9464505 -4.6994545 5.2427475 -8.7163485 9.471987 -11.5424305 4.229539 -2.826082 9.201838 -4.334364 14.288546000000002 -4.334364 6.8193155 0.0029950000000000003 13.358598500000001 2.7131705000000004 18.180848 7.5351205 4.822249500000001 4.8216505000000005 7.5333235 11.360634000000001 7.537217 18.1799495Z" stroke-width="1"></path><path id="Vector_3" fill="#add8e6" d="m197.60411 125.134095 26.85317 -9.61395 -29.129370000000005 -56.665400000000005 -56.267065 20.141375 6.454224999999999 30.108735000000003 -40.534330000000004 -14.23823 -2.674535 6.316455 46.65012 23.96L152.4455 141.364l4.4385900000000005 -1.5903450000000001c-1.422625 -1.53943 0.793675 -2.61763 7.337750000000001 -2.674535l29.4708 -10.527425000000001c-1.153075 -3.3723699999999996 -1.4376 -5.9301 3.9114700000000004 -1.4376Z" stroke-width="1"></path><path id="Subtract" fill="#add8e6" fill-rule="evenodd" d="M183.0487095 307.859045c8.894551000000002 -7.038250000000001 15.632402500000001 -16.4362605 19.4462355 -27.119725 1.433407 -5.0444785 2.201924 -10.227925 2.3058505 -15.421255 2.1489125000000002 -0.6559050000000001 4.369106 -1.095571 6.6282345 -1.30582 8.780142 -0.8065535 17.5210495 1.9036220000000001 24.304724500000003 7.5357195 6.783675000000001 5.6320975 11.055743 13.725486 11.8778705 22.5041305 0.605589 6.54707 -0.7436585 13.124089999999999 -3.876728 18.90444 -3.133369 5.78035 -7.909795 10.50047 -13.725785500000002 13.567350000000001 -5.8159905 3.063885 -12.4103815 4.33676 -18.949365 3.6539 -6.538684 -0.679865 -12.72875 -3.285515 -17.787005500000003 -7.484505 -4.714729 -3.914465 -8.248829 -9.050889999999999 -10.2240315 -14.834235000000001Zm-0.1728115 -0.518135c-0.5537755000000001 -1.9976650000000002 -1.003325 -4.019290000000001 -1.3486485 -6.052895 0.225823 1.78502 0.5975025 3.55806 1.1144395 5.2981549999999995 0.0751745 0.25158 0.153344 0.50316 0.23420900000000003 0.7547400000000001Z" clip-rule="evenodd" stroke-width="1"></path></g><g id="color 1"><path id="Vector_4" fill="#41175e" d="M151.2475 493.2375650000001c-4.553598 -7.2568850000000005 -11.034179 -13.109115 -18.71875 -16.89779 -0.8377015 8.57169 1.033874 17.188305 5.3517655 24.636870000000002 4.317592 7.451560000000001 10.863464 13.360695000000002 18.716054500000002 16.894795000000002 0.5591665 -8.550725 -1.2941395 -17.086475 -5.34907 -24.633875Z" stroke-width="1"></path><path id="Vector_5" fill="#41175e" d="M202.49494500000003 280.73932c-3.816828 10.69215 -10.562766000000002 20.09645 -19.4675 27.137695 -3.1321710000000005 -10.9104855 -3.1435520000000006 -22.48047 -0.032945 -33.397245 3.8132340000000005 -10.6936475 10.559771 -20.098247 19.4675 -27.137695 3.1234855 10.9116835 3.1348665000000002 22.479571500000002 0.032945 33.397245Z" stroke-width="1"></path><path id="Vector_6" fill="#41175e" d="M103.21668500000001 199.89229000000003c-3.5308055000000005 -3.6595905 -5.973228 -8.229661 -7.053225 -13.198965000000001 5.004046000000001 0.8958045 9.6561795 3.178893 13.426585 6.589 3.529308 3.660489 5.971431 8.2305595 7.053225 13.198965000000001 -5.0043455 -0.8958045 -9.656479000000001 -3.1785935 -13.426585 -6.589Z" stroke-width="1"></path><path id="Vector_7" fill="#41175e" d="M140.8249 378.2685c-8.3479635 -6.460215000000001 -16.046611000000002 -13.720095000000002 -22.986625 -21.674815000000002 -2.166583 7.63126 -2.956664 15.58598 -2.333105 23.495775000000002 1.739496 13.953705 7.357217500000001 27.14069 16.21493 38.063455 6.654291000000001 -12.20163 9.8053305 -26.005585 9.104800000000001 -39.884415000000004Z" stroke-width="1"></path><path id="Vector_8" fill="#41175e" d="M322.88496000000004 141.918075c0.33843500000000004 2.788345 2.6146350000000003 4.32478 7.736085000000001 5.23526 0.7996650000000001 -1.70715 1.53943 -3.4143 2.2192950000000002 -5.12145 -5.00764 1.536435 -9.329425 2.105485 -9.95538 -0.11381Z" stroke-width="1"></path><path id="Vector_9" fill="#41175e" d="M366.806635 142.145695s8.81728 -15.358360000000001 -4.950735 -23.609585c-26.511740000000003 -15.8735 -32.31605 3.129775 -32.31605 3.129775 1.4675500000000001 -0.177903 2.95906 -0.061697 4.381685 0.34143 -1.081195 2.956065 -1.1980000000000002 6.99632 0.625955 4.94774 3.243585 -3.52811 6.711795 1.764055 0.45524 6.0888349999999996 3.045915 17.476424 10.138074999999999 33.9983415 20.70743 48.246455000000005 2.944085 4.305612 7.101145 7.641443000000001 11.941065 9.585797000000001 4.83992 1.9440545 10.14706 2.4094775 15.253535000000001 1.3369680000000002 3.4712050000000003 -0.572045 6.732760000000001 -2.0306100000000002 9.476180000000001 -4.234331 2.740425 -2.2037210000000003 4.866875 -5.0780225 6.169700000000001 -8.344669 10.982664999999999 -28.2129 -31.744005 -37.488414999999996 -31.744005 -37.488414999999996Z" stroke-width="1"></path><path id="Vector_10" fill="#41175e" d="M320.60876 188.628095c-1.6262850000000002 1.3169015 -3.3214550000000003 2.549344 -5.07353 3.6928350000000005 0 0 5.92411 5.6905 14.004620000000001 12.00995l-8.931090000000001 -15.702785000000002Z" stroke-width="1"></path><path id="Vector_11" fill="#41175e" d="M430.63907 411.9922c-4.321785 -6.19965 -6.8885 -9.497145 -8.985 -12.794640000000001 -7.179015 3.063885 -13.995635 6.91845 -20.32407 11.48882l3.1866800000000004 5.6306c5.8612150000000005 30.779615 11.491815 42.27143 20.19828 55.925635 5.12744 -13.02825 7.915785 -48.87241000000001 5.92411 -60.250415000000004Z" stroke-width="1"></path><path id="Vector_12" fill="#41175e" d="M525.0834 202.85135000000002c-4.4385900000000005 6.0888349999999996 -6.8286 9.557045 -9.215615 12.579 5.196325000000001 5.8088025000000005 11.01561 11.031184 17.350035000000002 15.574000000000002l4.4385900000000005 -4.8339300000000005C564.857 210.647335 573.95581 201.59944 584.025 188.9845c-13.995635 -0.64093 -48.81850000000001 8.293155 -58.9416 13.86685Z" stroke-width="1"></path></g><g id="outlines"><path id="Vector_13" stroke="#ffffff" stroke-linecap="round" stroke-linejoin="round" d="M249.31877500000002 81.66766c32.219611 2.2345695 63.03277 14.06452 88.469305 33.966295" stroke-width="1"></path><path id="Vector_14" stroke="#ffffff" stroke-linecap="round" stroke-linejoin="round" d="M363.733765 358.34276500000004c-17.6106 19.575319999999998 -39.66578 34.631185 -64.309838 43.90071 -24.644657000000002 9.269525000000002 -51.1560975 12.480165 -77.30095 9.36237 -26.1448525 -3.117795 -51.157595 -12.474175 -72.931245 -27.278460000000003 -21.7733505 -14.804285 -39.6696735 -34.625195 -52.1815855 -57.794515000000004 -12.511912 -23.166325 -19.2725255 -49.0020935 -19.7127905 -75.3287425 -0.440265 -26.326349500000003 5.4529965 -52.373265499999995 17.1832135 -75.94601200000001 10.606193500000002 -21.313917500000002 25.703389500000004 -40.041053500000004 44.2190785 -54.91033" stroke-width="1"></path><path id="Vector_15" stroke="#ffffff" stroke-linecap="round" stroke-linejoin="round" d="M402.70470500000005 280.5117c-2.35407 11.879967 -6.016955 23.46283 -10.922765 34.535345" stroke-width="1"></path><path id="Vector_16" stroke="#ffffff" stroke-linecap="round" stroke-linejoin="round" d="M393.88742499999995 186.807135c2.24026 5.523079500000001 4.17503 11.164162 5.801315000000001 16.89779" stroke-width="1"></path><path id="Vector_17" stroke="#ffffff" stroke-linecap="round" stroke-linejoin="round" d="M266.330375 184.36022c38.68941 -30.549 56.551590000000004 -33.906395 65.89 -27.99127 8.05655 5.10947 13.456535 15.762685 18.961345 18.13173" stroke-width="1"></path><path id="Vector_18" stroke="#ffffff" stroke-linecap="round" stroke-linejoin="round" d="M375.45320000000004 192.78216c2.13843 2.0842205 4.399655 4.0405545 6.7687 5.85822" stroke-width="1"></path><path id="Vector_19" stroke="#ffffff" stroke-linecap="round" stroke-linejoin="round" d="M329.53985 121.665885s5.80431 -19.009265000000003 32.31605 -3.129775c13.777 8.245235000000001 4.950735 23.609585 4.950735 23.609585s42.684740000000005 9.257545 31.747 37.494405c-1.30582 3.2660475 -3.429275 6.139749999999999 -6.172695 8.343471000000001 -2.740425 2.2037210000000003 -6.0019800000000005 3.6625855000000005 -9.473184999999999 4.235529 -5.1064750000000005 1.075205 -10.413615 0.6112795000000001 -15.256530000000001 -1.3330745 -4.83992 -1.9446535 -8.993985 -5.281982 -11.938070000000002 -9.589690500000001 -10.566360000000001 -14.2499105 -17.655525 -30.771229 -20.70743 -48.246455000000005 6.2565550000000005 -4.32478 2.7554000000000003 -9.6439 -0.45524 -6.0888349999999996 -1.83893 2.033605 -1.70715 -1.9886800000000002 -0.625955 -4.94774 -1.4256199999999999 -0.40282750000000006 -2.914135 -0.5208305 -4.38468 -0.34742v0Z" stroke-width="1"></path><path id="Vector_20" stroke="#ffffff" stroke-linecap="round" stroke-linejoin="round" d="M330.62104500000004 147.15333500000003c-12.060865000000002 -2.16239 -8.30813 -7.73908 -1.081195 -25.48745" stroke-width="1"></path><path id="Vector_21" stroke="#ffffff" stroke-linecap="round" stroke-linejoin="round" d="M326.92222000000004 154.32037000000003c2.28818 -3.925247 4.24691 -8.0322905 5.8612150000000005 -12.279499999999999 -5.00764 1.536435 -9.33242 2.0965 -9.958375 -0.170715" stroke-width="1"></path><path id="Vector_22" stroke="#ffffff" stroke-linecap="round" stroke-linejoin="round" d="M304.292 159.2142c-18.2695 -9.670855000000001 -67.24973 -45.344300000000004 -67.24973 -45.344300000000004 3.129775 -11.605625 8.985 -20.027565000000003 17.80827 -24.975305000000002 0 0 43.352625 31.519379999999998 69.57984 45.401205000000004" stroke-width="1"></path><path id="Vector_23" stroke="#ffffff" stroke-linecap="round" stroke-linejoin="round" d="M398.0954 273.512385c8.023605 13.477500000000001 21.5041 26.85916 38.23417 39.37227 5.328105 3.968375 11.950050000000001 5.789335 18.55702 5.10348 6.6069700000000005 -0.6858550000000001 12.713775 -3.8276100000000004 17.11343 -8.802305l61.90066 -69.92127c-7.188 -9.4237675 -15.990305000000001 -17.495592 -25.999595 -23.8402 0 0 -50.351940000000006 37.09607 -59.849085 65.7702" stroke-width="1"></path><path id="Vector_24" stroke="#ffffff" stroke-linecap="round" stroke-linejoin="round" d="M383.07547500000004 303.26771c18.661845 21.962335000000003 28.62022 52.855760000000004 40.681085 86.822055 -9.742735000000001 7.526435 -20.85119 13.091145000000001 -32.714385 16.385645l-48.929315 -86.1961c-2.572705 -4.609305 -3.73776 -9.868525 -3.357395 -15.133735 2.015635 -29.088039 6.7387500000000005 -57.9247975 14.109445000000001 -86.1362 10.755045 -4.66621 22.872815 -12.279499999999999 29.300085 -20.366 10.01528 2.95906 32.714385 3.52811 50.636465 40.112035000000006 5.417955 11.220168500000002 12.486155 21.566396 20.965 30.695755000000002" stroke-width="1"></path><path id="Vector_25" stroke="#ffffff" stroke-linecap="round" stroke-linejoin="round" d="M379.09512 311.34822c3.12678 -7.28384 10.65621 -20.47382 17.0715 -33.68177 21.39029 -44.065435 8.985 -53.535625 5.391 -58.088025" stroke-width="1"></path><path id="Vector_26" stroke="#ffffff" stroke-linecap="round" stroke-linejoin="round" d="M315.53523 192.32093c1.752075 -1.143491 3.447245 -2.3759335 5.07353 -3.6928350000000005l8.931090000000001 15.702785000000002" stroke-width="1"></path><path id="Vector_27" stroke="#ffffff" stroke-linecap="round" stroke-linejoin="round" d="M352.92181500000004 219.009375c-11.89614 -4.950735 -28.024214999999998 -17.70644 -37.386585000000004 -26.688444999999998 -9.910455 6.776187500000001 -20.2039705 12.976137000000001 -30.827534999999997 18.569000000000003 -13.369680000000002 6.370365 -20.98297 2.0965 -34.990585 -7.909795 -16.20295 -11.566690000000001 -39.369275 -28.332700000000003 -39.369275 -28.332700000000003 0.7825934999999999 -5.9226125000000005 2.9539684999999998 -11.576274000000002 6.3371205 -16.500054 3.383152 -4.92378 7.8822410000000005 -8.9781115 13.1303795 -11.832646C258.4685 165.530655 275.54 177.193185 275.54 177.193185" stroke-width="1"></path><path id="Vector_28" stroke="#ffffff" stroke-linecap="round" stroke-linejoin="round" d="M227.70086500000002 87.52887500000001c3.594 3.5251150000000004 8.0266 -0.7457550000000001 4.777025 -4.381685 -2.440925 -2.7344350000000004 -5.46288 -5.85822 -7.451560000000001 -7.9068000000000005 -0.57504 -0.6882510000000001 -1.3956700000000002 -1.124922 -2.2875810000000003 -1.217168 -0.891911 -0.0925455 -1.7847205 0.1662225 -2.4885455 0.721795 -0.7041245 0.555273 -1.1635575 1.363324 -1.281261 2.25224s0.116206 1.788614 0.6514125000000001 2.508013c1.5663850000000001 1.901825 4.78002 4.78002 8.08051 8.023605Z" stroke-width="1"></path><path id="Vector_29" stroke="#ffffff" stroke-linecap="round" stroke-linejoin="round" d="M239.60000000000002 69.834415c-1.1980000000000002 -1.422625 -2.0965 -2.458895 -3.243585 -3.8126349999999998 -0.545689 -0.7041245 -1.3447550000000001 -1.167451 -2.2270820000000002 -1.291444 -0.882327 -0.123993 -1.7781315 0.10123099999999999 -2.4969315 0.6274525 -0.7188 0.526521 -1.2039900000000001 1.3127085 -1.3519430000000001 2.191142 -0.147953 0.878733 0.052712 1.7802280000000001 0.5591665 2.5131045 1.250712 1.627483 2.6053505 3.1720045 4.055230000000001 4.624280000000001" stroke-width="1"></path><path id="Vector_30" stroke="#ffffff" stroke-linecap="round" stroke-linejoin="round" d="M234.75409000000002 74.842055c-1.25191 -1.36572 -4.213965 -4.37869 -5.459885 -5.7474050000000005 -0.5585675 -0.731978 -1.384888 -1.2120765 -2.297165 -1.3348715 -0.9125765000000001 -0.12279500000000002 -1.8362345 0.1218965 -2.5682125 0.6804640000000001 -0.731978 0.5582680000000001 -1.2120765 1.3845885 -1.3348715 2.297165 -0.12279500000000002 0.912277 0.12219600000000001 1.8362345 0.6804640000000001 2.5682125 1.5244550000000001 1.9437550000000001 5.25323 5.555725 8.532755000000002 8.931090000000001 2.74941 2.830275 5.80431 -0.11381 5.519785 -2.788345" stroke-width="1"></path><path id="Vector_31" stroke="#ffffff" stroke-linecap="round" stroke-linejoin="round" d="M218.59606499999998 88.211735s-1.13211 8.90713 19.65918 21.680805" stroke-width="1"></path><path id="Vector_32" stroke="#ffffff" stroke-linecap="round" stroke-linejoin="round" d="M202.1625 73.590145c5.6306 -10.129090000000001 18.736720000000002 -20.13239 30.378285 -13.711110000000001 1.8350365000000002 1.0401635 3.4119040000000003 2.480459 4.6137975 4.213965 1.2018935 1.7332065 1.9976650000000002 3.714998 2.3286125 5.79832" stroke-width="1"></path><path id="Vector_33" stroke="#ffffff" stroke-linecap="round" stroke-linejoin="round" d="m148.902415 125.02028500000002 -46.59621 -23.837205 2.674535 -6.316455 40.507375 14.166350000000001" stroke-width="1"></path><path id="Vector_34" stroke="#ffffff" stroke-linecap="round" stroke-linejoin="round" d="m164.206865 137.084145 29.419885 -10.509455" stroke-width="1"></path><path id="Vector_35" stroke="#ffffff" stroke-linecap="round" stroke-linejoin="round" d="m197.60411 125.134095 26.85317 -9.557045 -29.129370000000005 -56.722305 -56.32397 20.13838 13.426585 62.298995 4.381685 -1.536435" stroke-width="1"></path><path id="Vector_36" stroke="#ffffff" stroke-linecap="round" stroke-linejoin="round" d="m14.975000000000001 188.45738 9.784665 -20.536715 31.63319 -10.527425000000001 10.527425000000001 -33.90939" stroke-width="1"></path><path id="Vector_37" stroke="#ffffff" stroke-linecap="round" stroke-linejoin="round" d="m55.08404 130.42626 11.893145 -7.110130000000001 5.97203 12.459200000000001" stroke-width="1"></path><path id="Vector_38" stroke="#ffffff" stroke-linecap="round" stroke-linejoin="round" d="m397.697065 404.483735 6.8286 11.833245c5.8612150000000005 30.779615 11.491815 42.27143 20.19828 55.925635 5.118455 -12.971345000000001 7.9068000000000005 -48.87241000000001 5.915125000000001 -60.250415000000004 -4.405645000000001 -5.8342600000000004 -8.502805 -11.89015 -12.279499999999999 -18.1497" stroke-width="1"></path><path id="Vector_39" stroke="#ffffff" stroke-linecap="round" stroke-linejoin="round" d="M421.63909500000005 399.19756000000007c-7.188 3.07287 -14.01061 6.93642 -20.34204 11.521765" stroke-width="1"></path><path id="Vector_40" stroke="#ffffff" stroke-linecap="round" stroke-linejoin="round" d="m524.798875 228.85094500000002 -31.803905 32.77129" stroke-width="1"></path><path id="Vector_41" stroke="#ffffff" stroke-linecap="round" stroke-linejoin="round" d="M515.7539750000001 215.42436c5.2382550000000005 5.8100005 11.093480000000001 11.0320825 17.463845000000003 15.574000000000002" stroke-width="1"></path><path id="Vector_42" stroke="#ffffff" stroke-linecap="round" stroke-linejoin="round" d="m530.0341350000001 234.54144500000004 7.508465000000001 -8.36204c27.1946 -15.475165 36.2994 -24.52306 46.36859 -37.152975 -13.995635 -0.625955 -48.81850000000001 8.30813 -58.9416 13.881825 -3.7287750000000006 5.5242775 -7.754055 10.842499 -12.060865000000002 15.930405" stroke-width="1"></path><path id="Vector_43" stroke="#ffffff" stroke-linecap="round" stroke-linejoin="round" d="m407.74529 400.09007 -26.37397 -50.45377" stroke-width="1"></path><path id="Vector_44" stroke="#ffffff" stroke-linecap="round" stroke-linejoin="round" d="M211.20141 170.4155c-7.549496500000001 -6.7746900000000005 -15.699490500000001 -12.848550000000001 -24.349350000000005 -18.146705 -6.921744500000001 -3.8075435000000004 -14.250809000000002 -6.8214120000000005 -21.848525000000002 -8.985 -11.144395000000001 -3.1537349999999997 -12.003960000000001 -6.364375 0.625955 -6.19965 13.418199 1.0779005 26.6258495 3.9872435 39.255465 8.646565" stroke-width="1"></path><path id="Vector_45" stroke="#ffffff" stroke-linecap="round" stroke-linejoin="round" d="M198.230065 143.3407c6.541080000000001 0.28452500000000003 -2.626615 -11.48882 -3.926445 -14.906115000000002 -1.77304 -4.660220000000001 -3.51014 -9.916445 6.4302649999999995 -0.39833500000000005 8.244037 7.237118 16.9226485 13.963289000000001 25.987614999999998 20.141375" stroke-width="1"></path><path id="Vector_46" stroke="#ffffff" stroke-linecap="round" stroke-linejoin="round" d="M175.18653500000002 146.755c-2.902155 -0.056905 -8.931090000000001 0.2396 -10.695145 0.34143 -8.017615000000001 0.458235 -7.34374 2.62961 -6.0888349999999996 2.95906 4.9387550000000005 1.296835 13.139064999999999 2.3960000000000004 17.694460000000003 3.69583 7.33176 2.0785299999999998 21.67781 5.633595000000001 26.796265 9.90147" stroke-width="1"></path><path id="Vector_47" stroke="#ffffff" stroke-linecap="round" stroke-linejoin="round" d="M175.551925 153.60157c-1.32379 0.27554 -2.3690450000000003 0.49717000000000006 -2.995 0.661895 -7.849895 1.70715 -6.825605 3.818625 -5.51679 3.926445 5.118455 0.422295 13.369680000000002 0.218635 18.092795000000002 0.739765 5.6991855000000005 0.763725 11.3142115 2.059362 16.772 3.86954" stroke-width="1"></path><path id="Vector_48" stroke="#ffffff" stroke-linecap="round" stroke-linejoin="round" d="M142.30443000000002 232.20834c0.000599 5.086708 -1.5073835 10.0593065 -4.332866500000001 14.2888455 -2.825483 4.2298385000000005 -6.8420775 7.526734500000001 -11.5412325 9.4734845 -4.6994545 1.9470495 -9.870322 2.4567985 -14.859393 1.4648545 -4.989071 -0.991944 -9.57202 -3.4412550000000004 -13.169015000000002 -7.037651 -3.596995 -3.5966955000000005 -6.0466055 -8.179345 -7.0391485 -13.1681165 -0.992543 -4.9887715 -0.48339299999999996 -10.160238 1.4630575000000001 -14.859692500000001 1.9464505 -4.6994545 5.2427475 -8.7163485 9.471987 -11.5424305 4.229539 -2.826082 9.201838 -4.334364 14.288546000000002 -4.334364 6.8193155 0.0029950000000000003 13.358598500000001 2.7131705000000004 18.180848 7.5351205 4.822249500000001 4.8216505000000005 7.5333235 11.360634000000001 7.537217 18.1799495v0Z" stroke-width="1"></path><path id="Vector_49" stroke="#ffffff" stroke-linecap="round" stroke-linejoin="round" d="M204.99517100000003 265.259363c2.0884135 -0.623559 4.242717000000001 -1.043458 6.433859000000001 -1.247118 8.7798425 -0.8065535 17.5210495 1.9036220000000001 24.304724500000003 7.5357195 6.783675000000001 5.6320975 11.055743 13.725486 11.8778705 22.5041305 0.605589 6.54707 -0.7436585 13.124089999999999 -3.876728 18.90444 -3.133369 5.78035 -7.909795 10.50047 -13.725785500000002 13.567350000000001 -5.8159905 3.063885 -12.4103815 4.33676 -18.949365 3.6539 -6.5389835000000005 -0.679865 -12.72875 -3.285515 -17.787005500000003 -7.484505 -4.7108355 -3.9114700000000004 -8.243438000000001 -9.041905 -10.2192395 -14.819260000000002" stroke-width="1"></path><path id="Vector_50" stroke="#ffffff" stroke-linecap="round" stroke-linejoin="round" d="M99.40405 392.252155c12.9464865 5.49882 24.085490500000002 14.528745 32.145335 26.0565 -13.721892 3.07287 -28.029606 2.243255 -41.304045 -2.3960000000000004 -12.945288500000002 -5.501815 -24.0836935 -14.528745 -32.145335 -26.0565 13.721592500000002 -3.075865 28.0299055 -2.243255 41.304045 2.3960000000000004Z" stroke-width="1"></path><path id="Vector_51" stroke="#ffffff" stroke-linecap="round" stroke-linejoin="round" d="M151.2475 493.2375650000001c4.0633165 7.544405 5.917521 16.08315 5.34907 24.633875 -7.852590500000001 -3.5341 -14.3984625 -9.443235 -18.716054500000002 -16.894795000000002 -4.317592 -7.448565 -6.1894670000000005 -16.06518 -5.3517655 -24.636870000000002 7.689962 3.782685 14.172340000000002 9.634915000000001 18.71875 16.89779Z" stroke-width="1"></path><path id="Vector_52" stroke="#ffffff" stroke-linecap="round" stroke-linejoin="round" d="M250.17235000000002 312.82775000000004c-7.8214425 8.209295000000001 -17.799285 14.046550000000002 -28.787940000000003 16.840885 1.208782 -11.32709 5.9447755 -21.98929 13.539796 -30.4804145 7.5950204999999995 -8.490825000000001 17.665109 -14.3816905 28.788539 -16.8405855 -1.5894465 11.221965500000001 -6.2787180000000005 21.776645000000002 -13.540395 30.480115v0Z" stroke-width="1"></path><path id="Vector_53" stroke="#ffffff" stroke-linecap="round" stroke-linejoin="round" d="M202.49494500000003 280.73932c-3.816828 10.69215 -10.562466500000001 20.09645 -19.4675 27.137695 -3.1321710000000005 -10.9104855 -3.1435520000000006 -22.48047 -0.032945 -33.397245 3.8132340000000005 -10.6936475 10.559771 -20.098247 19.4675 -27.137695 3.123785 10.9116835 3.135166 22.479571500000002 0.032945 33.397245Z" stroke-width="1"></path><path id="Vector_54" stroke="#ffffff" stroke-linecap="round" stroke-linejoin="round" d="M103.21668500000001 199.89229000000003c-3.5308055000000005 -3.6595905 -5.9729285 -8.229661 -7.053225 -13.198965000000001 5.0043455 0.8958045 9.6561795 3.178893 13.426585 6.589 3.5296075000000005 3.660489 5.971431 8.2305595 7.053225 13.198965000000001 -5.0043455 -0.8958045 -9.6561795 -3.1785935 -13.426585 -6.589v0Z" stroke-width="1"></path><path id="Vector_55" stroke="#ffffff" stroke-linecap="round" stroke-linejoin="round" d="M120.11747000000001 257.68381c1.931775 31.95066 3.9953300000000005 53.176225 37.943655 105.6636 30.300415000000005 46.871750000000006 -2.7374300000000003 90.302245 -1.9138050000000002 144.49677" stroke-width="1"></path><path id="Vector_56" stroke="#ffffff" stroke-linecap="round" stroke-linejoin="round" d="M197.60411 325.856s-26.221225000000004 26.221225000000004 -26.955000000000002 74.5755" stroke-width="1"></path><path id="Vector_57" stroke="#ffffff" stroke-linecap="round" stroke-linejoin="round" d="M131.7201 418.13794s29.300085 17.0116 26.113405 65.02744" stroke-width="1"></path><path id="Vector_58" stroke="#ffffff" stroke-linecap="round" stroke-linejoin="round" d="M196.69363 515.59524c-0.5154395 -1.89883 -1.7634560000000001 -3.5191250000000003 -3.470606 -4.49849 -1.7068505 -0.9823600000000001 -3.732968 -1.24592 -5.634194 -0.7337750000000001l-60.759565 16.26884c-0.941628 0.25457500000000005 -1.823955 0.691845 -2.5966650000000002 1.284855 -0.77271 0.596005 -1.420828 1.3357700000000001 -1.9072160000000002 2.183355 -0.48608850000000003 0.84459 -0.8011625000000001 1.776035 -0.9269525000000001 2.7434200000000004 -0.12579 0.967385 -0.0599 1.949745 0.194076 2.890175 0.25397600000000004 0.9434250000000001 0.690647 1.823955 1.2857535 2.59966 0.594807 0.77271 1.3360695 1.41963 2.1812584999999998 1.9048200000000002 0.8454885 0.48818500000000004 1.7781315 0.80266 2.745217 0.92845 0.9670855 0.12579 1.9494455000000002 0.0599 2.8910735 -0.19467500000000001l60.76256 -16.271835c1.900028 -0.5151399999999999 3.5182265000000004 -1.764055 4.499688 -3.4712050000000003 0.9814615 -1.70715 1.24592 -3.73177 0.7355720000000001 -5.633595000000001Z" stroke-width="1"></path><path id="Vector_59" stroke="#ffffff" stroke-linecap="round" stroke-linejoin="round" d="m123.993 221.33050000000003 -11.494810000000001 1.0242900000000001c-1.285454 0.1895835 -2.4496105 0.8634585 -3.2543670000000002 1.8835555000000002 -0.8044570000000001 1.020097 -1.1887155 2.3094445 -1.074007 3.603584 0.1147085 1.2941395 0.719998 2.4954340000000004 1.6918754999999999 3.357994 0.971578 0.8622605 2.2363665000000004 1.3207950000000002 3.5349985 1.2809615l6.4302649999999995 -0.5690500000000001c1.3031245 -0.0464225 2.5745020000000003 0.408518 3.5517705 1.2713775 0.9775680000000001 0.8631590000000001 1.5867510000000002 2.068347 1.7017590000000002 3.366979 0.11530750000000001 1.2989315 -0.2722455 2.5924720000000003 -1.082393 3.6140665000000003 -0.810447 1.0215945000000002 -1.9817915 1.693373 -3.2726365 1.8766670000000003l-11.491815 1.081195" stroke-width="1"></path><path id="Vector_60" stroke="#ffffff" stroke-linecap="round" stroke-linejoin="round" d="m115.334455 218.26961 2.560725 27.87746" stroke-width="1"></path><path id="Vector_61" stroke="#ffffff" stroke-linecap="round" stroke-linejoin="round" d="m229.52182500000004 291.32065500000004 -12.234575 -6.99632c-1.4408945000000002 -0.8221275000000001 -3.1495420000000003 -1.038067 -4.749471000000001 -0.6004975 -1.6002285 0.43756950000000006 -2.9611565 1.4927080000000001 -3.7832840000000005 2.9336025 -0.8221275000000001 1.4408945000000002 -1.038067 3.1495420000000003 -0.600797 4.749471000000001 0.43756950000000006 1.6002285 1.4930075 2.9611565 2.9339020000000002 3.7832840000000005l6.825605 3.926445c0.713409 0.40732000000000007 1.3396635 0.949415 1.8431229999999998 1.5993300000000001 0.5034595000000001 0.649915 0.8739410000000001 1.392675 1.0904795 2.183355 0.21683800000000003 0.793675 0.2752405 1.6202950000000003 0.17221250000000002 2.434935 -0.10302800000000001 0.8146400000000001 -0.3656895 1.6023250000000002 -0.77271 2.315135 -0.4070205 0.7128099999999999 -0.950613 1.338765 -1.5999290000000002 1.841925 -0.6490165 0.50316 -1.390878 0.87454 -2.183355 1.093175 -0.7921775000000001 0.21564 -1.6193965 0.272545 -2.434336 0.170715 -0.8149395 -0.10183000000000002 -1.6017260000000002 -0.36539 -2.315135 -0.77271l-12.279499999999999 -6.99632" stroke-width="1"></path><path id="Vector_62" stroke="#ffffff" stroke-linecap="round" stroke-linejoin="round" d="m222.97775000000001 282.21885000000003 -16.954695 29.812230000000003" stroke-width="1"></path><path id="Vector_63" stroke="#ffffff" stroke-linecap="round" stroke-linejoin="round" d="M226.562765 472.69785500000006c1.7751365000000001 0.7457550000000001 3.7710045000000005 0.77271 5.565608500000001 0.07487500000000001 1.7949035000000002 -0.6978350000000001 3.2480775000000004 -2.06655 4.052834 -3.81563 0.8047565 -1.74908 0.8982005000000001 -3.7437500000000004 0.26026550000000004 -5.55872 -0.637935 -1.817965 -1.9572325 -3.315465 -3.679058 -4.178025l-37.889745 -17.23922c-1.7763345 -0.751745 -3.7757964999999998 -0.7846900000000001 -5.574893 -0.086855 -1.7987970000000002 0.69484 -3.2558645 2.06655 -4.062418 3.818625 -0.8065535 1.752075 -0.8990990000000001 3.74974 -0.2578695 5.567705 0.6412295 1.82096 1.9656185000000002 3.3184600000000004 3.6925355000000004 4.178025l37.892739999999996 17.23922Z" stroke-width="1"></path><path id="Vector_64" stroke="#ffffff" stroke-linecap="round" stroke-linejoin="round" d="M311.16253 427.581175c0.10782 2.19833 -0.440265 4.381685 -1.5753700000000002 6.271529999999999 -1.13211 1.8868500000000001 -2.8003250000000004 3.39633 -4.792000000000001 4.33676 -1.991675 0.94043 -4.21696 1.2698800000000001 -6.394324999999999 0.94642 -2.178563 -0.32346 -4.2118685000000005 -1.28785 -5.842945500000001 -2.76738 -1.6310769999999999 -1.47953 -2.7865480000000002 -3.4083099999999997 -3.3205565000000004 -5.546740000000001 -0.5340085 -2.135435 -0.42259450000000004 -4.38468 0.320465 -6.45722 0.7430595 -2.07254 2.0842205 -3.878525 3.853966 -5.190335 1.7697455 -1.3118100000000001 3.8884085 -2.06655 6.088236 -2.17437 1.46156 -0.07188 2.920125 0.14675500000000002 4.2978250000000005 0.637935 1.3777000000000001 0.49417500000000003 2.6415900000000003 1.254905 3.7257800000000003 2.2372650000000003s1.9617250000000002 2.16838 2.584685 3.4891750000000004c0.625955 1.32379 0.9823600000000001 2.7554000000000003 1.05424 4.21696Z" stroke-width="1"></path><path id="Vector_65" stroke="#ffffff" stroke-linecap="round" stroke-linejoin="round" d="M341.25928500000003 454.434345c0.10782 2.201325 -0.440265 4.381685 -1.5753700000000002 6.271529999999999 -1.13211 1.8868500000000001 -2.8003250000000004 3.39633 -4.792000000000001 4.33676 -1.991675 0.9434250000000001 -4.21696 1.2698800000000001 -6.394324999999999 0.94642 -2.177365 -0.32346 -4.21097 -1.28785 -5.8432450000000005 -2.76738 -1.6322750000000001 -1.47953 -2.78535 -3.4083099999999997 -3.3214550000000003 -5.546740000000001 -0.53311 -2.135435 -0.422295 -4.38468 0.320465 -6.45722 0.7457550000000001 -2.07254 2.08452 -3.878525 3.854565 -5.190335 1.7700449999999999 -1.3118100000000001 3.890505 -2.06655 6.0888349999999996 -2.17437 1.46156 -0.07487500000000001 2.92312 0.140765 4.30082 0.6349400000000001 1.3777000000000001 0.49118000000000006 2.644585 1.25191 3.7287750000000006 2.23427 1.081195 0.9823600000000001 1.9617250000000002 2.171375 2.584685 3.4921699999999998 0.62296 1.32379 0.979365 2.758395 1.04825 4.219955000000001v0Z" stroke-width="1"></path><path id="Vector_66" stroke="#ffffff" stroke-linecap="round" stroke-linejoin="round" d="m290.853435 468.03164499999997 48.414175 -53.421815" stroke-width="1"></path><path id="Vector_67" stroke="#ffffff" stroke-linecap="round" stroke-linejoin="round" d="m459.65463 160.57992000000002 1.308815 27.1946" stroke-width="1"></path><path id="Vector_68" stroke="#ffffff" stroke-linecap="round" stroke-linejoin="round" d="m473.93478999999996 173.49436 -27.251505 1.36572" stroke-width="1"></path><path id="Vector_69" stroke="#ffffff" stroke-linecap="round" stroke-linejoin="round" d="M252.10712 90.65865000000001c-4.040255 -5.23526 -1.865885 -14.516765000000001 -5.573695 -18.889465 -4.597325 -5.414960000000001 -5.25922 -4.172035 -13.477500000000001 4.950735 -1.9946700000000002 2.213305 1.1381000000000001 6.370365 8.478845 0.34143 -2.4478135 1.645453 -4.261585500000001 4.076195 -5.1427145 6.890896000000001 -0.8808294999999999 2.8150005 -0.776304 5.8459405 0.29680449999999997 8.593254000000002" stroke-width="1"></path><path id="Vector_70" stroke="#ffffff" stroke-linecap="round" stroke-linejoin="round" d="m216.20905 100.10188500000001 7.508465000000001 -7.167034999999999" stroke-width="1"></path><path id="Vector_71" stroke="#ffffff" stroke-linecap="round" stroke-linejoin="round" d="M223.72650000000002 92.93485000000001c3.57603 3.2945 7.787000000000001 -0.8985 4.5524000000000004 -4.32478 -2.3960000000000004 -2.548745 -4.21097 -4.267875 -6.202645 -6.25955 -0.5741415000000001 -0.651113 -1.3797965 -1.0527425 -2.2453515000000004 -1.1192315 -0.865555 -0.06618950000000001 -1.7230235000000003 0.2075535 -2.3897105 0.763725 -0.666687 0.555872 -1.0904795 1.350146 -1.180629 2.2136045 -0.0901495 0.8634585 0.15993300000000002 1.7278155 0.6972360000000001 2.409777 1.5004950000000001 1.734105 3.45024 3.2525700000000004 6.7687 6.316455Z" stroke-width="1"></path><path id="Vector_72" stroke="#ffffff" stroke-linecap="round" stroke-linejoin="round" d="M140.60926 376.17199999999997c-1.994071 -13.378665 -7.5387145 -25.975635 -16.056195 -36.482095 -6.755821500000001 12.339400000000001 -9.891886 26.335034999999998 -9.047895 40.375595000000004 1.739496 13.953705 7.357217500000001 27.14069 16.21493 38.063455 7.0849720000000005 -12.785655 10.180903500000001 -27.39826 8.88916 -41.956955v0Z" stroke-width="1"></path><path id="Vector_73" stroke="#ffffff" stroke-linecap="round" stroke-linejoin="round" d="M221.49822 182.769875c2.1770655 -11.856606000000001 8.7379125 -22.4592055 18.37732 -29.698420000000002" stroke-width="1"></path><path id="Vector_74" stroke="#ffffff" stroke-linecap="round" stroke-linejoin="round" d="M246.93176 120.998c3.1300744999999996 -9.994315 9.219808 -18.8035085 17.463845000000003 -25.262825000000003" stroke-width="1"></path></g></g></svg>