<svg xmlns="http://www.w3.org/2000/svg" fill="none" viewBox="-0.5 -0.5 600 600" id="Modular-Coding-Application--Streamline-Bangalore.svg" height="600" width="600"><desc>Modular Coding Application Streamline Illustration: https://streamlinehq.com</desc><g id="Development-Modular-coding-of-application-01"><g id="color 2"><path id="Vector" fill="#add8e6" d="m215.2806 477.81032000000005 -47.34496 21.794615c1.25191 -0.625955 52.01117 -32.60357 52.01117 -32.60357 0 -11.785325 -8.038580000000001 -28.71007 -21.28247 -31.013225000000002l6.657885 -9.104800000000001c-7.200579 -10.185995 -17.858885500000003 -17.406940000000002 -29.988935 -20.318080000000002l-28.33869 35.853145000000005c-3.674266 -12.534075 -11.0776065 -23.64852 -21.225565 -31.869795 -6.865438500000001 -1.79101 -13.508049000000002 -4.34874 -19.80294 -7.622275 -2.6955 10.72809 -5.915125000000001 18.77266 -6.589 27.3144 -1.1980000000000002 14.86119 -0.937435 46.722 4.097160000000001 59.301 -1.1381000000000001 4.609305 -13.998630000000002 59.57953500000001 31.980610000000002 59.63644h81.191455c5.81629 -23.408920000000002 4.15107 -47.99188 -1.36572 -71.367855Z" stroke-width="1"></path><path id="Vector_2" fill="#add8e6" d="M372.053875 195.450705H241.28618500000002V126.70647h130.76769v68.744235Z" stroke-width="1"></path><path id="Vector_3" fill="#add8e6" d="M345.19471500000003 258.3274355H267.75300000000004c-2.0976980000000003 0 -4.109739 0.8335085 -5.5931625 2.316932 -1.4834235 1.4831239999999999 -2.3166325 3.495165 -2.3166325 5.592863 0 2.0979975 0.8332090000000001 4.109739 2.3166325 5.5931625 1.4834235 1.4834235 3.4954645 2.3166325 5.5931625 2.3166325h77.44770500000001c2.0965 0 4.109140000000001 -0.8332090000000001 5.591665 -2.3166325 1.48552 -1.4834235 2.31813 -3.495165 2.31813 -5.5931625 0 -2.0976980000000003 -0.8326100000000001 -4.109739 -2.31813 -5.592863 -1.482525 -1.4834235 -3.495165 -2.316932 -5.591665 -2.316932h-0.0059900000000000005Z" stroke-width="1"></path><path id="Vector_4" fill="#add8e6" d="M136.29646000000002 302.38119h-46.6621c-2.0976980000000003 0 -4.109739 -0.8326100000000001 -5.5931625 -2.31813 -1.4834235 -1.4822255 -2.3166325 -3.4939670000000005 -2.3166325 -5.5919645000000004 0 -2.0976980000000003 0.8332090000000001 -4.109739 2.3166325 -5.592863 1.4834235 -1.4834235 3.4954645 -2.316932 5.5931625 -2.316932h46.6621c2.0976980000000003 0 4.109739 0.8335085 5.5931625 2.316932 1.4834235 1.4831239999999999 2.3166325 3.495165 2.3166325 5.592863 0 2.0979975 -0.8332090000000001 4.109739 -2.3166325 5.5919645000000004 -1.4834235 1.48552 -3.4954645 2.31813 -5.5931625 2.31813Z" stroke-width="1"></path><path id="Vector_5" fill="#add8e6" d="M493.48914499999995 252.98166000000003h-45.35328500000001c-1.051245 -0.020366 -2.0965 0.168918 -3.07287 0.5573695 -0.979365 0.388152 -1.86888 0.967385 -2.620625 1.7038555 -0.74875 0.7364705 -1.3447550000000001 1.6149040000000001 -1.752075 2.584685 -0.40732000000000007 0.969781 -0.61697 2.010843 -0.61697 3.0623875 0 1.051844 0.20965000000000003 2.092906 0.61697 3.062687 0.40732000000000007 0.9694815 1.003325 1.8482145 1.752075 2.584685 0.751745 0.736171 1.6412600000000002 1.3157035000000001 2.620625 1.7038555 0.9763700000000001 0.388152 2.0216250000000002 0.5777355 3.07287 0.5570700000000001h45.35328500000001c1.051245 0.0206655 2.0965 -0.168918 3.07287 -0.5570700000000001 0.979365 -0.388152 1.86888 -0.9676845000000001 2.620625 -1.7038555 0.74875 -0.7364705 1.3447550000000001 -1.6152035 1.752075 -2.584685 0.40732000000000007 -0.969781 0.61697 -2.010843 0.61697 -3.062687 0 -1.0515445 -0.20965000000000003 -2.0926065 -0.61697 -3.0623875 -0.40732000000000007 -0.969781 -1.003325 -1.8482145 -1.752075 -2.584685 -0.751745 -0.7364705 -1.6412600000000002 -1.3157035000000001 -2.620625 -1.7038555 -0.9763700000000001 -0.38845150000000006 -2.0216250000000002 -0.5777355 -3.07287 -0.5573695Z" stroke-width="1"></path></g><g id="color 1"><path id="Vector_6" fill="#41175e" d="m111.656595 391.0871000000001 8.023605 6.373360000000001c0 -1.36572 0.11381 -2.73144 0.170715 -4.207975 -2.8278790000000003 -0.28752 -5.5931625 -1.0183000000000002 -8.194320000000001 -2.165385Z" stroke-width="1"></path><path id="Vector_7" fill="#41175e" d="M74.83906 369.583c-1.0242900000000001 3.5251150000000004 -5.99 23.729385 10.69814 34.310719999999996 -1.5933400000000002 0.68286 -9.503135 6.262545000000001 -10.183 6.7746900000000005 -7.147268 5.283180000000001 -13.3795635 11.701465 -18.4492 19.00028 -10.413615 15.648875 -11.665525 39.093735 4.32478 51.558925 10.58433 8.191324999999999 29.81822 8.877180000000001 39.890405 -0.8985 -2.3693445 -16.562350000000002 -2.9416889999999998 -33.331355 -1.70715 -50.0165 0.68286 -8.766365 3.86954 -16.27483 5.80431 -24.358334999999997 4.381685 -18.110765 1.482525 -22.83987 -2.560725 -32.945 -7.682175 -1.87487 -4.950735 -10.97967 0.34143 -7.909795 0.742161 0.48519 1.574172 0.8146400000000001 2.4469149999999997 0.97038 2.902155 -14.795300000000001 8.53575 -15.8735 13.6572 -11.09947 -7.31978 -9.610955 -37.188915 -9.557045 -44.263105 14.612604999999999Z" stroke-width="1"></path><path id="Vector_8" fill="#41175e" d="M213.288925 471.09553000000005c-39.71969 25.280795000000005 -42.91236 27.233535 -45.467095 28.509405l47.34496 -21.794615 -1.8778650000000001 -6.71479Z" stroke-width="1"></path><path id="Vector_9" fill="#41175e" d="M381.4432 544.332265c-10.072185000000001 -8.53575 -24.858500000000003 -18.89246 -38.069445 -22.762 -11.974010000000002 3.44425 -24.67281 3.44425 -36.646820000000005 0 -2.3420900000000002 6.672860000000001 -3.8336 13.618265 -4.4385900000000005 20.6655 -0.07188 0.8415950000000001 0.03594 1.6861849999999998 0.308485 2.48585 0.27554 0.7966700000000001 0.7128099999999999 1.530445 1.284855 2.15041 0.572045 0.619965 1.266885 1.1141400000000001 2.04259 1.44958 0.77271 0.33544 1.6083150000000002 0.506155 2.452905 0.50316 22.932715 0.056905 42.849465 0.29950000000000004 71.301965 0.34442500000000004 0.56306 0.0029950000000000003 1.1141400000000001 -0.16772 1.578365 -0.48818500000000004 0.46123000000000003 -0.32346 0.8146400000000001 -0.7787000000000001 1.00632 -1.308815s0.218635 -1.105155 0.07188 -1.6502450000000002c-0.14675500000000002 -0.54509 -0.458235 -1.0302799999999999 -0.89251 -1.38968Z" stroke-width="1"></path><path id="Vector_10" fill="#41175e" d="M450.127535 475.64793c-0.04193 -0.542095 -0.25158 -1.06023 -0.6019950000000001 -1.476535 -0.35041500000000003 -0.41930000000000006 -0.8206300000000001 -0.7188 -1.34775 -0.8565699999999999 -0.52712 -0.13777 -1.08419 -0.10782 -1.5933400000000002 0.086855 -0.5091500000000001 0.19467500000000001 -0.94642 0.542095 -1.248915 0.9943400000000001 -8.53575 10.07518 -18.89246 33.97528 -22.762 47.174245 3.2945 12.635905000000001 3.52811 15.762685 0.056905 27.60192h27.2545c2.3600600000000003 0.224625 4.4565600000000005 -50.019495000000006 0.242595 -73.524255Z" stroke-width="1"></path><path id="Vector_11" fill="#41175e" d="M151.717715 139.510095c0 1.5193634999999999 -0.450448 3.0045840000000004 -1.2947385 4.267875 -0.843991 1.2632910000000002 -2.043788 2.248047 -3.4475445000000002 2.8293765 -1.4037565 0.5816290000000001 -2.948278 0.7337750000000001 -4.4385900000000005 0.43727 -1.490312 -0.296505 -2.859027 -1.0281835 -3.9333335 -2.10249 -1.0743065 -1.0743065 -1.805985 -2.4430215 -2.10249 -3.9333335 -0.296505 -1.490312 -0.14435900000000002 -3.0348335000000004 0.43697050000000004 -4.4385900000000005 0.5816290000000001 -1.4037565 1.5663850000000001 -2.6035535 2.829676 -3.4475445000000002 1.2632910000000002 -0.8442904999999999 2.7485114999999998 -1.2947385 4.267875 -1.2947385 2.037199 0.0008985 3.9908375 0.810447 5.431133 2.2510420000000004 1.440595 1.4402955 2.2501435 3.3939340000000002 2.2510420000000004 5.431133Z" stroke-width="1"></path><path id="Vector_12" fill="#41175e" d="m242.65190500000003 504.16033000000004 -20.997945 14.169345c4.311003 -4.639255 8.3054345 -9.563035000000001 11.95604 -14.738395 -0.062895 0.05391 3.4083099999999997 0.16772 9.041905 0.5690500000000001Z" stroke-width="1"></path></g><g id="outlines"><path id="Vector_13" stroke="#ffffff" stroke-linecap="round" stroke-linejoin="round" d="M126.96404000000001 390.233525c8.4414075 6.058885000000001 18.574690500000003 9.305465000000002 28.964645 9.284500000000001h35.341" stroke-width="1"></path><path id="Vector_14" stroke="#ffffff" stroke-linecap="round" stroke-linejoin="round" d="M218.46728000000002 399.50904h-11.324095000000002" stroke-width="1"></path><path id="Vector_15" stroke="#ffffff" stroke-linecap="round" stroke-linejoin="round" d="M220.57276500000003 399.512035h236.83861000000002c6.532095 0.0029950000000000003 13.001295 -1.28186 19.03622 -3.77969 6.034925 -2.500825 11.51877 -6.16371 16.13706 -10.782 4.61829 -4.61829 8.281175000000001 -10.102135 10.782 -16.13706 2.49783 -6.034925 3.782685 -12.504125 3.77969 -19.03622v-14.115435000000002" stroke-width="1"></path><path id="Vector_16" stroke="#ffffff" stroke-linecap="round" stroke-linejoin="round" d="M507.146345 240.0615295v-83.707255c0.0029950000000000003 -6.531795499999999 -1.28186 -12.9997975 -3.782685 -19.0347225 -2.49783 -6.0346255 -6.160715 -11.518171 -10.779005000000002 -16.136461 -4.621285 -4.618589500000001 -10.102135 -8.281774 -16.13706 -10.7799035 -6.034925 -2.4984290000000002 -12.504125 -3.7832840000000005 -19.03622 -3.780888H155.928685c-6.531795499999999 -0.002396 -12.9997975 1.282459 -19.0347225 3.780888 -6.0352245 2.4981295 -11.51877 6.161314 -16.1373595 10.7799035 -4.618889 4.61829 -8.282373 10.1018355 -10.7811015 16.136461 -2.4987285000000004 6.034925 -3.7838830000000003 12.502927 -3.7817865 19.0347225v83.707255" stroke-width="1"></path><path id="Vector_17" stroke="#ffffff" stroke-linecap="round" stroke-linejoin="round" d="M106.19371500000001 349.261925v-13.600295000000001" stroke-width="1"></path><path id="Vector_18" stroke="#ffffff" stroke-linecap="round" stroke-linejoin="round" d="M103.462275 489.535745c-1.0779005 -3.0339349999999996 -1.8796620000000002 -6.15772 -2.3960000000000004 -9.335415000000001" stroke-width="1"></path><path id="Vector_19" stroke="#ffffff" stroke-linecap="round" stroke-linejoin="round" d="M109.617 409.86575c4.263682 1.314805 8.4282295 2.932105 12.462195 4.836925 4.4508695000000005 2.273205 8.106566500000001 5.84624 10.4825 10.2429 7.4255035 13.732075 15.535065000000001 27.083785 24.298434999999998 40.004215l41.711365 -29.02155c7.909795 1.3687150000000001 13.79497 7.75705 17.128405 14.741389999999999 2.5526385 5.058555 3.9704715000000004 10.611285 4.154065 16.271835 -3.1058149999999998 2.003655 -42.418185 26.978959999999997 -48.198535 30.504075000000004 -19.536385 11.91411 -34.75997 7.81695 -45.86543 -12.234575 -1.764055 -3.1866800000000004 -18.380315 -29.988935 -18.380315 -29.988935" stroke-width="1"></path><path id="Vector_20" stroke="#ffffff" stroke-linecap="round" stroke-linejoin="round" d="m119.68020000000001 397.46046 -8.023605 -6.373360000000001c2.6203255000000003 1.1470850000000001 5.4044775000000005 1.8778650000000001 8.251225 2.16239" stroke-width="1"></path><path id="Vector_21" stroke="#ffffff" stroke-linecap="round" stroke-linejoin="round" d="M150.80723500000002 455.79108c-1.843722 -7.807965000000001 -4.3568265 -15.442219999999999 -7.5114600000000005 -22.818905 -7.63725 -16.499455 -18.69479 -22.51042 -21.51009 -26.119395 -1.8224575000000003 -2.770375 -2.5682125 -6.1098 -2.0965 -9.392320000000002l0.22762 -4.21097c1.3414605000000002 0.11381 2.690708 -0.10183000000000002 3.9303385000000004 -0.625955 1.2396305 -0.52712 2.3322065 -1.34775 3.1827865 -2.39001 6.067869999999999 -7.70913 -0.28452500000000003 -28.111069999999998 -7.909795 -35.2811" stroke-width="1"></path><path id="Vector_22" stroke="#ffffff" stroke-linecap="round" stroke-linejoin="round" d="M119.11115000000001 354.952425c-5.12145 -4.792000000000001 -10.755045 -3.69583 -13.6572 11.09947 -0.8730424999999999 -0.15574 -1.7053530000000001 -0.48519 -2.4469149999999997 -0.97038 -5.29516 -3.0668800000000003 -8.023605 6.03193 -0.34143 7.909795 1.6813930000000001 3.291505 2.961456 6.771695 3.8126349999999998 10.36869 1.547816 7.5114600000000005 1.1165360000000002 15.295465000000002 -1.25191 22.58829 -1.9437550000000001 8.086500000000001 -5.0915 15.594965 -5.80431 24.358334999999997 -1.2240565 16.685145 -0.651712 33.45415 1.70715 50.0165 -10.072185000000001 9.787659999999999 -29.318055 9.12277 -39.890405 0.8985 -16.014265 -12.432245 -14.759360000000001 -35.91604 -4.3337650000000005 -51.552935000000005 5.0450775000000005 -7.316785 11.2764745 -13.738064999999999 18.43722 -19.003275 0.679865 -0.518135 8.592655 -6.09183 10.183 -6.7746900000000005 -16.673165 -10.58433 -11.725425000000001 -30.785605 -10.69814 -34.310719999999996 4.76205 -16.337725000000002 19.799945 -21.525065 31.354655 -20.43189 4.906409000000001 0.15574 9.5531515 2.24026 12.929415 5.80431v0Z" stroke-width="1"></path><path id="Vector_23" stroke="#ffffff" stroke-linecap="round" stroke-linejoin="round" d="M220.327175 519.587575c7.217950000000001 -6.40331 21.483135 -27.4941 26.706415 -35.6405 10.61428 14.292140000000002 33.51405 23.732380000000003 59.57953500000001 37.61121" stroke-width="1"></path><path id="Vector_24" stroke="#ffffff" stroke-linecap="round" stroke-linejoin="round" d="M343.373755 521.62717c-19.698115 -8.72144 -64.503315 -60.94825000000001 -75.626745 -73.404455 -5.1427145 -5.7474050000000005 -12.122562 -9.53009 -19.746035 -10.701135" stroke-width="1"></path><path id="Vector_25" stroke="#ffffff" stroke-linecap="round" stroke-linejoin="round" d="m215.11587500000002 477.83428000000004 -47.294045000000004 21.770655" stroke-width="1"></path><path id="Vector_26" stroke="#ffffff" stroke-linecap="round" stroke-linejoin="round" d="M213.34582999999998 471.09553000000005c7.188 25.694105000000004 9.73974 52.19087 3.2945 78.076655H135.442885c-48.027820000000006 0 -31.923705 -59.92396 -31.923705 -59.92396 8.095485 0.67088 16.238291 0.49717000000000006 24.298434999999998 -0.5121450000000001" stroke-width="1"></path><path id="Vector_27" stroke="#ffffff" stroke-linecap="round" stroke-linejoin="round" d="M343.373755 521.570265c13.201960000000001 3.86954 27.949340000000003 14.283155 38.069445 22.762 0.43427499999999997 0.3594 0.7457550000000001 0.84459 0.895505 1.38968 0.14675500000000002 0.54509 0.12279500000000002 1.123125 -0.07188 1.6532400000000003 -0.19168000000000002 0.530115 -0.54509 0.9853550000000001 -1.0093150000000002 1.308815 -0.46123000000000003 0.320465 -1.0153050000000001 0.49118000000000006 -1.578365 0.48818500000000004 -28.4525 -0.02995 -48.36925 -0.29950000000000004 -71.301965 -0.34442500000000004 -0.8415950000000001 0.0029950000000000003 -1.6772000000000002 -0.170715 -2.44991 -0.5091500000000001 -0.77271 -0.33544 -1.4675500000000001 -0.8296150000000001 -2.0395950000000003 -1.44958 -0.572045 -0.619965 -1.0093150000000002 -1.350745 -1.284855 -2.147415 -0.27554 -0.7966700000000001 -0.38336000000000003 -1.6412600000000002 -0.314475 -2.482855 0.625955 -7.04424 2.117465 -13.983654999999999 4.4385900000000005 -20.6655 11.974010000000002 3.44425 24.67281 3.4412550000000004 36.646820000000005 -0.0029950000000000003v0Z" stroke-width="1"></path><path id="Vector_28" stroke="#ffffff" stroke-linecap="round" stroke-linejoin="round" d="M422.5945 521.570265c3.86954 -13.201960000000001 14.283155 -37.054140000000004 22.762 -47.174245 0.302495 -0.452245 0.739765 -0.7966700000000001 1.248915 -0.9883500000000001 0.5091500000000001 -0.19467500000000001 1.06622 -0.224625 1.5903450000000001 -0.086855 0.52712 0.13777 0.9973350000000001 0.43727 1.34775 0.853575 0.35041500000000003 0.41630500000000004 0.560065 0.9314450000000001 0.60499 1.47354 4.24092 23.49877 2.0965 73.751875 -0.22762 73.524255h-27.2545c3.447245 -11.83624 3.2226200000000005 -14.96901 -0.07188 -27.60192Z" stroke-width="1"></path><path id="Vector_29" stroke="#ffffff" stroke-linecap="round" stroke-linejoin="round" d="M422.5945 521.570265c-33.858475 1.991675 -66.749565 -2.674535 -89.511565 -6.589" stroke-width="1"></path><path id="Vector_30" stroke="#ffffff" stroke-linecap="round" stroke-linejoin="round" d="M233.77472500000002 432.229415c8.137415 -2.0455850000000004 14.876165 1.476535 14.396965000000002 4.609305 -0.1021295 0.6349400000000001 -0.34292750000000005 1.23993 -0.7053225 1.7700449999999999 -0.362395 0.53311 -0.8374020000000001 0.9763700000000001 -1.3911775000000002 1.3028250000000001" stroke-width="1"></path><path id="Vector_31" stroke="#ffffff" stroke-linecap="round" stroke-linejoin="round" d="M232.92114999999998 427.27867999999995c8.53575 -2.16239 17.18531 1.991675 13.54339 6.544075" stroke-width="1"></path><path id="Vector_32" stroke="#ffffff" stroke-linecap="round" stroke-linejoin="round" d="M219.09323500000002 460.568105c5.3523645 -7.2479000000000005 12.6799315 -12.797635 21.105764999999998 -15.990305000000001" stroke-width="1"></path><path id="Vector_33" stroke="#ffffff" stroke-linecap="round" stroke-linejoin="round" d="M233.54710500000002 438.09063000000003c7.909795 -1.70715 13.201960000000001 1.25191 12.917435 4.381685 -0.34143 3.7557300000000002 -7.787000000000001 9.619940000000001 -14.22625 6.0888349999999996" stroke-width="1"></path><path id="Vector_34" stroke="#ffffff" stroke-linecap="round" stroke-linejoin="round" d="M203.78579000000002 437.52158000000003c3.64192 -3.7557300000000002 23.40293 -20.554685000000003 24.753675 -19.23389 1.4975 1.464555 -1.8778650000000001 6.205640000000001 -1.8778650000000001 6.205640000000001" stroke-width="1"></path><path id="Vector_35" stroke="#ffffff" stroke-linecap="round" stroke-linejoin="round" d="M203.78579000000002 437.52158000000003c6.296088999999999 -5.160385000000001 13.3621925 -9.305465000000002 20.94104 -12.279499999999999 9.3518875 -3.6539 18.5070035 -7.79299 27.42821 -12.402295 2.6955 -1.58735 -1.0242900000000001 6.771695 -15.136730000000002 13.824919999999999" stroke-width="1"></path><path id="Vector_36" stroke="#ffffff" stroke-linecap="round" stroke-linejoin="round" d="M372.053875 167.0524145h135.09247000000002" stroke-width="1"></path><path id="Vector_37" stroke="#ffffff" stroke-linecap="round" stroke-linejoin="round" d="M106.19371500000001 167.0524145h135.09247000000002" stroke-width="1"></path><path id="Vector_38" stroke="#ffffff" stroke-linecap="round" stroke-linejoin="round" d="M151.717715 139.510095c0 1.5193634999999999 -0.450448 3.0045840000000004 -1.2947385 4.267875 -0.843991 1.2632910000000002 -2.043788 2.248047 -3.4475445000000002 2.8293765 -1.4037565 0.5816290000000001 -2.948278 0.7337750000000001 -4.4385900000000005 0.43727 -1.490312 -0.296505 -2.859027 -1.0281835 -3.9333335 -2.10249 -1.0743065 -1.0743065 -1.805985 -2.4430215 -2.10249 -3.9333335 -0.296505 -1.490312 -0.14435900000000002 -3.0348335000000004 0.43697050000000004 -4.4385900000000005 0.5816290000000001 -1.4037565 1.5663850000000001 -2.6035535 2.829676 -3.4475445000000002 1.2632910000000002 -0.8442904999999999 2.7485114999999998 -1.2947385 4.267875 -1.2947385 2.037199 0.0008985 3.9908375 0.810447 5.431133 2.2510420000000004 1.440595 1.4402955 2.2501435 3.3939340000000002 2.2510420000000004 5.431133Z" stroke-width="1"></path><path id="Vector_39" stroke="#ffffff" stroke-linecap="round" stroke-linejoin="round" d="M174.99186 139.510095c0 1.5193634999999999 -0.450448 3.0045840000000004 -1.2947385 4.267875 -0.843991 1.2632910000000002 -2.043788 2.248047 -3.4475445000000002 2.8293765 -1.4037565 0.5816290000000001 -2.948278 0.7337750000000001 -4.4385900000000005 0.43727 -1.490312 -0.296505 -2.859027 -1.0281835 -3.9333335 -2.10249 -1.0743065 -1.0743065 -1.805985 -2.4430215 -2.10249 -3.9333335 -0.296505 -1.490312 -0.14435900000000002 -3.0348335000000004 0.43697050000000004 -4.4385900000000005 0.5816290000000001 -1.4037565 1.5663850000000001 -2.6035535 2.829676 -3.4475445000000002 1.2632910000000002 -0.8442904999999999 2.7485114999999998 -1.2947385 4.267875 -1.2947385 2.037199 0.0008985 3.9908375 0.810447 5.431133 2.2510420000000004 1.440595 1.4402955 2.2501435 3.3939340000000002 2.2510420000000004 5.431133Z" stroke-width="1"></path><path id="Vector_40" stroke="#ffffff" stroke-linecap="round" stroke-linejoin="round" d="M198.37981499999998 139.510095c0 1.5193634999999999 -0.450448 3.0045840000000004 -1.2947385 4.267875 -0.843991 1.2632910000000002 -2.043788 2.248047 -3.4475445000000002 2.8293765 -1.4037565 0.5816290000000001 -2.948278 0.7337750000000001 -4.4385900000000005 0.43727 -1.490312 -0.296505 -2.859027 -1.0281835 -3.9333335 -2.10249 -1.0746060000000002 -1.0743065 -1.805985 -2.4430215 -2.10249 -3.9333335 -0.296505 -1.490312 -0.14435900000000002 -3.0348335000000004 0.43697050000000004 -4.4385900000000005 0.5816290000000001 -1.4037565 1.5660855000000002 -2.6035535 2.829676 -3.4475445000000002 1.2632910000000002 -0.8442904999999999 2.7485114999999998 -1.2947385 4.267875 -1.2947385 2.037199 0.0008985 3.9908375 0.810447 5.431133 2.2510420000000004 1.440595 1.4402955 2.2501435 3.3939340000000002 2.2510420000000004 5.431133Z" stroke-width="1"></path><path id="Vector_41" stroke="#ffffff" stroke-linecap="round" stroke-linejoin="round" d="m146.88079000000002 442.3615 28.33869 -35.850150000000006c12.145923 2.908145 22.823098 10.126095 30.045840000000002 20.315085000000003l-6.71479 9.104800000000001" stroke-width="1"></path><path id="Vector_42" stroke="#ffffff" stroke-linecap="round" stroke-linejoin="round" d="M205.37913 407.07740500000006c3.6988250000000003 -15.81959 6.819615000000001 -28.4525 7.5114600000000005 -32.32204 1.907815 -10.64423 -0.8985 -10.404630000000001 -5.12145 -1.422625 -5.851331500000001 13.450545 -14.480825000000001 25.514405 -25.322725000000002 35.39491" stroke-width="1"></path><path id="Vector_43" stroke="#ffffff" stroke-linecap="round" stroke-linejoin="round" d="M212.20773 377.94504c2.9126375 -2.76139 6.1861725000000005 -5.11546 9.730755 -6.999315000000001 1.0272850000000002 -0.452245 2.7943350000000002 0.176705 -1.6502450000000002 5.391 -2.95307 3.4741999999999997 -8.365035 10.4825 -10.868855 13.884820000000001" stroke-width="1"></path><path id="Vector_44" stroke="#ffffff" stroke-linecap="round" stroke-linejoin="round" d="M206.1758 403.4265c3.3789590000000005 -0.889515 6.704008 -1.9737050000000003 9.958375 -3.2465800000000002 4.034265 -1.32379 7.84091 -2.7434200000000004 -0.5690500000000001 5.46288 -5.143014 5.11546 -9.845164 10.653215 -14.055534999999999 16.559355" stroke-width="1"></path><path id="Vector_45" stroke="#ffffff" stroke-linecap="round" stroke-linejoin="round" d="M342.3285 307.83808000000005c-0.13777 -1.4585650000000001 -0.7667200000000001 -2.830275 -1.78502 -3.884515 -1.0183000000000002 -1.05424 -2.36605 -1.734105 -3.818625 -1.9227900000000002l-58.734945 -9.047895c-3.015965 -0.45524 -5.391 1.1980000000000002 -5.34907 3.7587249999999996l0.5690500000000001 47.23115 -38.297065 25.310745c-2.2762000000000002 1.422625 -0.967385 4.8938299999999995 2.2192950000000002 5.80431l59.52263 16.772c0.782294 0.266555 1.6155030000000001 0.35041500000000003 2.434935 0.2396 0.8206300000000001 -0.10782 1.6023250000000002 -0.40432500000000005 2.28818 -0.865555l40.94165 -31.582275 0.008985 -51.813500000000005Z" stroke-width="1"></path><path id="Vector_46" stroke="#ffffff" stroke-linecap="round" stroke-linejoin="round" d="m342.319515 359.67554 -69.109625 -15.702785000000002" stroke-width="1"></path><path id="Vector_47" stroke="#ffffff" stroke-linecap="round" stroke-linejoin="round" d="M334.32586000000003 350.85526500000003c1.0242900000000001 0.23061500000000001 2.0216250000000002 -0.28452500000000003 2.0216250000000002 -1.1980000000000002v-39.033834999999996c-0.032945 -0.47321 -0.23061500000000001 -0.9224600000000001 -0.5570700000000001 -1.26389 -0.32945 -0.34442500000000004 -0.7667200000000001 -0.560065 -1.23993 -0.6139749999999999l-53.71832 -8.53575c-0.19976649999999999 -0.0599 -0.41031500000000004 -0.07188 -0.6154725 -0.03594 -0.205457 0.032945 -0.400132 0.11381 -0.5699485 0.23361s-0.3099825 0.27853500000000003 -0.41031500000000004 0.46123000000000003c-0.1003325 0.182695 -0.1578365 0.386355 -0.168319 0.59301l0.34143 35.397905c0.0518135 0.446255 0.24559000000000003 0.865555 0.5531765000000001 1.19201 0.307287 0.32945 0.7119115 0.548085 1.1539735 0.62895l53.20916999999999 12.174675000000002Z" stroke-width="1"></path><path id="Vector_48" stroke="#ffffff" stroke-linecap="round" stroke-linejoin="round" d="M194.22574999999998 335.66163H63.401155V240.0615295H194.22574999999998v95.6001005Z" stroke-width="1"></path><path id="Vector_49" stroke="#ffffff" stroke-linecap="round" stroke-linejoin="round" d="M273.09608000000003 335.66163H241.28618500000002V240.0615295h130.76769v95.6001005h-29.647505" stroke-width="1"></path><path id="Vector_50" stroke="#ffffff" stroke-linecap="round" stroke-linejoin="round" d="M549.882 335.66163h-130.76769V240.0615295H549.882v95.6001005Z" stroke-width="1"></path><path id="Vector_51" stroke="#ffffff" stroke-linecap="round" stroke-linejoin="round" d="M372.053875 195.450705H241.28618500000002V126.70647h130.76769v68.744235Z" stroke-width="1"></path><path id="Vector_52" stroke="#ffffff" stroke-linecap="round" stroke-linejoin="round" d="M306.67003000000005 195.450705v44.610525" stroke-width="1"></path><path id="Vector_53" stroke="#ffffff" stroke-linecap="round" stroke-linejoin="round" d="M341.325175 195.450705v22.303765000000002h143.17298000000002v22.30676" stroke-width="1"></path><path id="Vector_54" stroke="#ffffff" stroke-linecap="round" stroke-linejoin="round" d="M274.291085 195.450705v22.303765000000002H128.841905v22.30676" stroke-width="1"></path><path id="Vector_55" stroke="#ffffff" stroke-linecap="round" stroke-linejoin="round" d="m294.83378999999996 173.93762 -27.029875 -13.48349 26.688444999999998 -12.749715" stroke-width="1"></path><path id="Vector_56" stroke="#ffffff" stroke-linecap="round" stroke-linejoin="round" d="m318.8477 174.05143 26.688444999999998 -13.714105 -27.029875 -12.5191" stroke-width="1"></path><path id="Vector_57" stroke="#ffffff" stroke-linecap="round" stroke-linejoin="round" d="m315.88864 136.55403 -18.77865 49.049115" stroke-width="1"></path><path id="Vector_58" stroke="#ffffff" stroke-linecap="round" stroke-linejoin="round" d="M167.082065 274.147325c1.0515445 0.0206655 2.0965 -0.168918 3.0737685 -0.5570700000000001 0.9775680000000001 -0.388152 1.8676820000000003 -0.967385 2.6185285 -1.7038555 0.7508465 -0.7364705 1.3474505 -1.6152035 1.7544710000000001 -2.584685 0.40732000000000007 -0.969781 0.61697 -2.010843 0.61697 -3.062687 0 -1.0515445 -0.20965000000000003 -2.0926065 -0.61697 -3.0623875 -0.4070205 -0.9694815 -1.0036245000000001 -1.8482145 -1.7544710000000001 -2.584685s-1.6409605000000003 -1.3157035000000001 -2.6185285 -1.7038555c-0.9772685 -0.388152 -2.022224 -0.5777355 -3.0737685 -0.5573695h-77.3908c-1.0515445 -0.020366 -2.0965 0.16921750000000002 -3.0737685 0.5573695 -0.9775680000000001 0.388152 -1.8676820000000003 0.967385 -2.6185285 1.7038555 -0.7508465 0.7364705 -1.3474505 1.6152035 -1.7544710000000001 2.584685 -0.40732000000000007 0.969781 -0.61697 2.010843 -0.61697 3.0623875 0 1.051844 0.20965000000000003 2.092906 0.61697 3.062687 0.4070205 0.9694815 1.0036245000000001 1.8482145 1.7544710000000001 2.584685s1.6409605000000003 1.3157035000000001 2.6185285 1.7038555c0.9772685 0.388152 2.022224 0.5777355 3.0737685 0.5570700000000001h77.3908Z" stroke-width="1"></path><path id="Vector_59" stroke="#ffffff" stroke-linecap="round" stroke-linejoin="round" d="M345.19471500000003 258.3280345c2.0965 0 4.109140000000001 0.8332090000000001 5.591665 2.3166325 1.48552 1.4834235 2.31813 3.495165 2.31813 5.5931625 0 2.0976980000000003 -0.8326100000000001 4.109439500000001 -2.31813 5.592863 -1.482525 1.4834235 -3.495165 2.316932 -5.591665 2.316932H267.75300000000004c-2.0976980000000003 0 -4.109739 -0.8335085 -5.5931625 -2.316932 -1.4834235 -1.4834235 -2.3166325 -3.495165 -2.3166325 -5.592863 0 -2.0979975 0.8332090000000001 -4.109739 2.3166325 -5.5931625 1.4834235 -1.4834235 3.4954645 -2.3166325 5.5931625 -2.3166325h77.441715Z" stroke-width="1"></path><path id="Vector_60" stroke="#ffffff" stroke-linecap="round" stroke-linejoin="round" d="M136.29646000000002 286.5618995c2.1045865 0.0068885000000000005 4.119922 0.8496815000000001 5.603046 2.3423895000000003 1.4834235 1.4930075 2.3130385 3.5137340000000004 2.306749 5.6183205 0.0008985 1.03627 -0.20366000000000004 2.062956 -0.601396 3.020158s-0.9811620000000001 1.8260515000000002 -1.7167340000000002 2.5562325c-0.7352725 0.73078 -1.6080155000000003 1.308815 -2.5676134999999998 1.70116 -0.9595980000000001 0.39234500000000005 -1.987482 0.5900150000000001 -3.0240515 0.58103H89.691265c-2.0976980000000003 0 -4.109739 -0.8326100000000001 -5.5931625 -2.315135 -1.4834235 -1.4849210000000002 -2.3166325 -3.4966625000000002 -2.3166325 -5.5943605 0 -2.0979975 0.8332090000000001 -4.109739 2.3166325 -5.5931625 1.4834235 -1.4834235 3.4954645 -2.3166325 5.5931625 -2.3166325h46.605195Z" stroke-width="1"></path><path id="Vector_61" stroke="#ffffff" stroke-linecap="round" stroke-linejoin="round" d="M493.48914499999995 252.98166000000003c1.051245 -0.020366 2.0965 0.168918 3.07287 0.5573695 0.979365 0.388152 1.86888 0.967385 2.620625 1.7038555 0.74875 0.7364705 1.3447550000000001 1.6149040000000001 1.752075 2.584685 0.40732000000000007 0.969781 0.61697 2.010843 0.61697 3.0623875 0 1.051844 -0.20965000000000003 2.092906 -0.61697 3.062687 -0.40732000000000007 0.9694815 -1.003325 1.8482145 -1.752075 2.584685 -0.751745 0.736171 -1.6412600000000002 1.3157035000000001 -2.620625 1.7038555 -0.9763700000000001 0.388152 -2.0216250000000002 0.5777355 -3.07287 0.5570700000000001h-45.35328500000001c-1.051245 0.0206655 -2.0965 -0.168918 -3.07287 -0.5570700000000001 -0.979365 -0.388152 -1.86888 -0.9676845000000001 -2.620625 -1.7038555 -0.74875 -0.7364705 -1.3447550000000001 -1.6152035 -1.752075 -2.584685 -0.40732000000000007 -0.969781 -0.61697 -2.010843 -0.61697 -3.062687 0 -1.0515445 0.20965000000000003 -2.0926065 0.61697 -3.0623875 0.40732000000000007 -0.969781 1.003325 -1.8482145 1.752075 -2.584685 0.751745 -0.7364705 1.6412600000000002 -1.3157035000000001 2.620625 -1.7038555 0.9763700000000001 -0.38845150000000006 2.0216250000000002 -0.5777355 3.07287 -0.5573695h45.35328500000001Z" stroke-width="1"></path><path id="Vector_62" stroke="#ffffff" stroke-linecap="round" stroke-linejoin="round" d="M514.8854249999999 281.203545c2.07254 0.040133 4.0432500000000005 0.8916115000000001 5.495825 2.370842 1.44958 1.4792305000000001 2.26422 3.4685094999999997 2.26422 5.5404505 0 2.071941 -0.8146400000000001 4.0612200000000005 -2.26422 5.5404505 -1.452575 1.4792305000000001 -3.4232850000000004 2.3304095 -5.495825 2.370842h-66.749565c-2.07254 -0.0404325 -4.0432500000000005 -0.8916115000000001 -5.495825 -2.370842 -1.44958 -1.4792305000000001 -2.26422 -3.4685094999999997 -2.26422 -5.5404505 0 -2.071941 0.8146400000000001 -4.0612200000000005 2.26422 -5.5404505 1.452575 -1.4792305000000001 3.4232850000000004 -2.330709 5.495825 -2.370842h66.749565Z" stroke-width="1"></path><path id="Vector_63" stroke="#ffffff" stroke-linecap="round" stroke-linejoin="round" d="m268.372965 205.34918 6.03193 -9.898475000000001 5.633595000000001 10.183" stroke-width="1"></path><path id="Vector_64" stroke="#ffffff" stroke-linecap="round" stroke-linejoin="round" d="m300.69500500000004 205.34918 6.03193 -9.898475000000001 5.57669 10.183" stroke-width="1"></path><path id="Vector_65" stroke="#ffffff" stroke-linecap="round" stroke-linejoin="round" d="m335.520865 205.34918 6.03193 -9.898475000000001 5.57669 10.183" stroke-width="1"></path><path id="Vector_66" stroke="#ffffff" stroke-linecap="round" stroke-linejoin="round" d="m540.66339 196.073665 -20.428895 20.258180000000003" stroke-width="1"></path><path id="Vector_67" stroke="#ffffff" stroke-linecap="round" stroke-linejoin="round" d="m540.606485 216.38904950000003 -20.315085000000003 -20.368995" stroke-width="1"></path><path id="Vector_68" stroke="#ffffff" stroke-linecap="round" stroke-linejoin="round" d="m74.213105 202.73155 8.99099 12.689815000000001 10.527425000000001 -18.380315" stroke-width="1"></path><path id="Vector_69" stroke="#ffffff" stroke-linecap="round" stroke-linejoin="round" d="M125.71212999999999 410.55160500000005c-6.865138999999999 -1.797 -13.50745 -4.35473 -19.80294 -7.628265000000001" stroke-width="1"></path><path id="Vector_70" stroke="#ffffff" stroke-linecap="round" stroke-linejoin="round" d="m307.751225 53.64045 -11.779335 3.86954 6.8286 6.14574 -8.99099 10.072185000000001 4.836925 4.32478 8.99099 -10.072185000000001 6.8286 6.0888349999999996 5.064545000000001 -24.298434999999998 -11.779335 3.86954Z" stroke-width="1"></path><path id="Vector_71" stroke="#ffffff" stroke-linecap="round" stroke-linejoin="round" d="M364.94075 437.52158000000003c0 0.8206300000000001 -0.242595 1.6232900000000001 -0.7008300000000001 2.309145 -0.45524 0.68286 -1.105155 1.2129750000000001 -1.8628900000000002 1.52745 -0.76073 0.314475 -1.596335 0.39833500000000005 -2.40199 0.236605 -0.8056550000000001 -0.15873500000000001 -1.54542 -0.554075 -2.12645 -1.135105 -0.58103 -0.58103 -0.9763700000000001 -1.3207950000000002 -1.135105 -2.12645 -0.16173 -0.8056550000000001 -0.07787 -1.6412600000000002 0.236605 -2.40199 0.314475 -0.757735 0.84459 -1.40765 1.52745 -1.8628900000000002 0.6858550000000001 -0.458235 1.488515 -0.7008300000000001 2.309145 -0.7008300000000001 1.099165 0.0059900000000000005 2.153405 0.446255 2.92911 1.224955 0.7787000000000001 0.7757050000000001 1.2189649999999999 1.829945 1.224955 2.92911Z" stroke-width="1"></path><path id="Vector_72" stroke="#ffffff" stroke-linecap="round" stroke-linejoin="round" d="M14.975000000000001 549.16919h569.0500000000001" stroke-width="1"></path><path id="Vector_73" stroke="#ffffff" stroke-linecap="round" stroke-linejoin="round" d="m242.65190500000003 504.16033000000004 -21.054850000000002 14.22625" stroke-width="1"></path><path id="Vector_74" stroke="#ffffff" stroke-linecap="round" stroke-linejoin="round" d="M233.54710500000002 503.64519c16.170005 0.74875 32.282506000000005 2.440925 48.25544 5.06754" stroke-width="1"></path><path id="Vector_75" stroke="#ffffff" stroke-linecap="round" stroke-linejoin="round" d="m247.03359 483.95905500000003 -3.8126349999999998 -5.52278" stroke-width="1"></path></g></g></svg>